G04*
G04 #@! TF.GenerationSoftware,Altium Limited,Altium Designer,23.3.1 (30)*
G04*
G04 Layer_Color=16711935*
%FSLAX43Y43*%
%MOMM*%
G71*
G04*
G04 #@! TF.SameCoordinates,A4EA7D40-A082-4D09-80F0-C7F5A4317295*
G04*
G04*
G04 #@! TF.FilePolarity,Negative*
G04*
G01*
G75*
G04:AMPARAMS|DCode=40|XSize=0.826mm|YSize=1.036mm|CornerRadius=0.113mm|HoleSize=0mm|Usage=FLASHONLY|Rotation=180.000|XOffset=0mm|YOffset=0mm|HoleType=Round|Shape=RoundedRectangle|*
%AMROUNDEDRECTD40*
21,1,0.826,0.810,0,0,180.0*
21,1,0.600,1.036,0,0,180.0*
1,1,0.226,-0.300,0.405*
1,1,0.226,0.300,0.405*
1,1,0.226,0.300,-0.405*
1,1,0.226,-0.300,-0.405*
%
%ADD40ROUNDEDRECTD40*%
%ADD70C,1.876*%
%ADD71C,1.576*%
G04:AMPARAMS|DCode=72|XSize=1.576mm|YSize=1.576mm|CornerRadius=0.188mm|HoleSize=0mm|Usage=FLASHONLY|Rotation=0.000|XOffset=0mm|YOffset=0mm|HoleType=Round|Shape=RoundedRectangle|*
%AMROUNDEDRECTD72*
21,1,1.576,1.200,0,0,0.0*
21,1,1.200,1.576,0,0,0.0*
1,1,0.376,0.600,-0.600*
1,1,0.376,-0.600,-0.600*
1,1,0.376,-0.600,0.600*
1,1,0.376,0.600,0.600*
%
%ADD72ROUNDEDRECTD72*%
G04:AMPARAMS|DCode=73|XSize=1.576mm|YSize=1.576mm|CornerRadius=0.188mm|HoleSize=0mm|Usage=FLASHONLY|Rotation=270.000|XOffset=0mm|YOffset=0mm|HoleType=Round|Shape=RoundedRectangle|*
%AMROUNDEDRECTD73*
21,1,1.576,1.200,0,0,270.0*
21,1,1.200,1.576,0,0,270.0*
1,1,0.376,-0.600,-0.600*
1,1,0.376,-0.600,0.600*
1,1,0.376,0.600,0.600*
1,1,0.376,0.600,-0.600*
%
%ADD73ROUNDEDRECTD73*%
%ADD74O,1.176X2.176*%
%ADD75O,1.176X2.676*%
%ADD76C,0.300*%
G04:AMPARAMS|DCode=100|XSize=0.8mm|YSize=0.65mm|CornerRadius=0.105mm|HoleSize=0mm|Usage=FLASHONLY|Rotation=270.000|XOffset=0mm|YOffset=0mm|HoleType=Round|Shape=RoundedRectangle|*
%AMROUNDEDRECTD100*
21,1,0.800,0.440,0,0,270.0*
21,1,0.590,0.650,0,0,270.0*
1,1,0.210,-0.220,-0.295*
1,1,0.210,-0.220,0.295*
1,1,0.210,0.220,0.295*
1,1,0.210,0.220,-0.295*
%
%ADD100ROUNDEDRECTD100*%
G04:AMPARAMS|DCode=101|XSize=0.4mm|YSize=0.8mm|CornerRadius=0.08mm|HoleSize=0mm|Usage=FLASHONLY|Rotation=270.000|XOffset=0mm|YOffset=0mm|HoleType=Round|Shape=RoundedRectangle|*
%AMROUNDEDRECTD101*
21,1,0.400,0.640,0,0,270.0*
21,1,0.240,0.800,0,0,270.0*
1,1,0.160,-0.320,-0.120*
1,1,0.160,-0.320,0.120*
1,1,0.160,0.320,0.120*
1,1,0.160,0.320,-0.120*
%
%ADD101ROUNDEDRECTD101*%
G04:AMPARAMS|DCode=102|XSize=1.276mm|YSize=0.726mm|CornerRadius=0.103mm|HoleSize=0mm|Usage=FLASHONLY|Rotation=90.000|XOffset=0mm|YOffset=0mm|HoleType=Round|Shape=RoundedRectangle|*
%AMROUNDEDRECTD102*
21,1,1.276,0.520,0,0,90.0*
21,1,1.070,0.726,0,0,90.0*
1,1,0.206,0.260,0.535*
1,1,0.206,0.260,-0.535*
1,1,0.206,-0.260,-0.535*
1,1,0.206,-0.260,0.535*
%
%ADD102ROUNDEDRECTD102*%
D40*
X25800Y2500D02*
D03*
X27200D02*
D03*
X40550D02*
D03*
X41950D02*
D03*
X55300D02*
D03*
X56700D02*
D03*
D70*
X21310Y25900D02*
D03*
X18770D02*
D03*
X16230D02*
D03*
X13690D02*
D03*
D71*
X26000Y17250D02*
D03*
X23500D02*
D03*
X28500D02*
D03*
X25369Y25750D02*
D03*
X21750Y3250D02*
D03*
Y8250D02*
D03*
Y5750D02*
D03*
X36500D02*
D03*
Y8250D02*
D03*
Y3250D02*
D03*
X51250Y5750D02*
D03*
Y8250D02*
D03*
Y3250D02*
D03*
D72*
X21000Y17250D02*
D03*
X27869Y25750D02*
D03*
D73*
X21750Y10750D02*
D03*
X36500D02*
D03*
X51250D02*
D03*
D74*
X31930Y22750D02*
D03*
X40570D02*
D03*
D75*
X31930Y28110D02*
D03*
X40570D02*
D03*
D76*
X44100Y7850D02*
D03*
X44100Y6750D02*
D03*
X44100Y5650D02*
D03*
X43000Y7850D02*
D03*
Y6750D02*
D03*
Y5650D02*
D03*
X41900Y7850D02*
D03*
X41900Y6750D02*
D03*
X41900Y5650D02*
D03*
X11250Y7500D02*
D03*
X7250D02*
D03*
Y11500D02*
D03*
X11250D02*
D03*
X9250Y9500D02*
D03*
X58850Y7850D02*
D03*
Y6750D02*
D03*
Y5650D02*
D03*
X57750Y7850D02*
D03*
Y6750D02*
D03*
Y5650D02*
D03*
X56650Y7850D02*
D03*
Y6750D02*
D03*
Y5650D02*
D03*
X29350Y7850D02*
D03*
Y6750D02*
D03*
Y5650D02*
D03*
X28250Y7850D02*
D03*
Y6750D02*
D03*
Y5650D02*
D03*
X27150Y7850D02*
D03*
Y6750D02*
D03*
Y5650D02*
D03*
D100*
X46500Y15750D02*
D03*
X45600D02*
D03*
Y14250D02*
D03*
X46500D02*
D03*
X47400D02*
D03*
Y15750D02*
D03*
D101*
X45675Y15000D02*
D03*
X47325D02*
D03*
D102*
X42075Y12850D02*
D03*
Y17150D02*
D03*
X39925Y12850D02*
D03*
Y17150D02*
D03*
X53075Y12850D02*
D03*
Y17150D02*
D03*
X50925Y12850D02*
D03*
Y17150D02*
D03*
X47575Y18350D02*
D03*
Y22650D02*
D03*
X45425Y18350D02*
D03*
Y22650D02*
D03*
X47575Y7350D02*
D03*
Y11650D02*
D03*
X45425Y7350D02*
D03*
Y11650D02*
D03*
M02*
