G04*
G04 #@! TF.GenerationSoftware,Altium Limited,Altium Designer,23.3.1 (30)*
G04*
G04 Layer_Color=8388736*
%FSLAX43Y43*%
%MOMM*%
G71*
G04*
G04 #@! TF.SameCoordinates,A4EA7D40-A082-4D09-80F0-C7F5A4317295*
G04*
G04*
G04 #@! TF.FilePolarity,Negative*
G04*
G01*
G75*
G04:AMPARAMS|DCode=40|XSize=0.826mm|YSize=1.036mm|CornerRadius=0.113mm|HoleSize=0mm|Usage=FLASHONLY|Rotation=180.000|XOffset=0mm|YOffset=0mm|HoleType=Round|Shape=RoundedRectangle|*
%AMROUNDEDRECTD40*
21,1,0.826,0.810,0,0,180.0*
21,1,0.600,1.036,0,0,180.0*
1,1,0.226,-0.300,0.405*
1,1,0.226,0.300,0.405*
1,1,0.226,0.300,-0.405*
1,1,0.226,-0.300,-0.405*
%
%ADD40ROUNDEDRECTD40*%
%ADD41O,0.900X0.450*%
%ADD42O,0.450X0.900*%
G04:AMPARAMS|DCode=43|XSize=0.776mm|YSize=0.976mm|CornerRadius=0.108mm|HoleSize=0mm|Usage=FLASHONLY|Rotation=0.000|XOffset=0mm|YOffset=0mm|HoleType=Round|Shape=RoundedRectangle|*
%AMROUNDEDRECTD43*
21,1,0.776,0.760,0,0,0.0*
21,1,0.560,0.976,0,0,0.0*
1,1,0.216,0.280,-0.380*
1,1,0.216,-0.280,-0.380*
1,1,0.216,-0.280,0.380*
1,1,0.216,0.280,0.380*
%
%ADD43ROUNDEDRECTD43*%
%ADD44R,3.176X3.176*%
%ADD45O,1.076X0.326*%
%ADD46O,0.326X1.076*%
G04:AMPARAMS|DCode=47|XSize=0.826mm|YSize=1.036mm|CornerRadius=0.113mm|HoleSize=0mm|Usage=FLASHONLY|Rotation=270.000|XOffset=0mm|YOffset=0mm|HoleType=Round|Shape=RoundedRectangle|*
%AMROUNDEDRECTD47*
21,1,0.826,0.810,0,0,270.0*
21,1,0.600,1.036,0,0,270.0*
1,1,0.226,-0.405,-0.300*
1,1,0.226,-0.405,0.300*
1,1,0.226,0.405,0.300*
1,1,0.226,0.405,-0.300*
%
%ADD47ROUNDEDRECTD47*%
G04:AMPARAMS|DCode=48|XSize=1mm|YSize=1.05mm|CornerRadius=0.14mm|HoleSize=0mm|Usage=FLASHONLY|Rotation=270.000|XOffset=0mm|YOffset=0mm|HoleType=Round|Shape=RoundedRectangle|*
%AMROUNDEDRECTD48*
21,1,1.000,0.770,0,0,270.0*
21,1,0.720,1.050,0,0,270.0*
1,1,0.280,-0.385,-0.360*
1,1,0.280,-0.385,0.360*
1,1,0.280,0.385,0.360*
1,1,0.280,0.385,-0.360*
%
%ADD48ROUNDEDRECTD48*%
%ADD49C,2.000*%
G04:AMPARAMS|DCode=50|XSize=0.776mm|YSize=0.976mm|CornerRadius=0.108mm|HoleSize=0mm|Usage=FLASHONLY|Rotation=90.000|XOffset=0mm|YOffset=0mm|HoleType=Round|Shape=RoundedRectangle|*
%AMROUNDEDRECTD50*
21,1,0.776,0.760,0,0,90.0*
21,1,0.560,0.976,0,0,90.0*
1,1,0.216,0.380,0.280*
1,1,0.216,0.380,-0.280*
1,1,0.216,-0.380,-0.280*
1,1,0.216,-0.380,0.280*
%
%ADD50ROUNDEDRECTD50*%
G04:AMPARAMS|DCode=51|XSize=0.876mm|YSize=0.876mm|CornerRadius=0.118mm|HoleSize=0mm|Usage=FLASHONLY|Rotation=270.000|XOffset=0mm|YOffset=0mm|HoleType=Round|Shape=RoundedRectangle|*
%AMROUNDEDRECTD51*
21,1,0.876,0.640,0,0,270.0*
21,1,0.640,0.876,0,0,270.0*
1,1,0.236,-0.320,-0.320*
1,1,0.236,-0.320,0.320*
1,1,0.236,0.320,0.320*
1,1,0.236,0.320,-0.320*
%
%ADD51ROUNDEDRECTD51*%
%ADD52C,2.076*%
G04:AMPARAMS|DCode=53|XSize=2.076mm|YSize=2.076mm|CornerRadius=0.238mm|HoleSize=0mm|Usage=FLASHONLY|Rotation=90.000|XOffset=0mm|YOffset=0mm|HoleType=Round|Shape=RoundedRectangle|*
%AMROUNDEDRECTD53*
21,1,2.076,1.600,0,0,90.0*
21,1,1.600,2.076,0,0,90.0*
1,1,0.476,0.800,0.800*
1,1,0.476,0.800,-0.800*
1,1,0.476,-0.800,-0.800*
1,1,0.476,-0.800,0.800*
%
%ADD53ROUNDEDRECTD53*%
G04:AMPARAMS|DCode=54|XSize=0.476mm|YSize=1.296mm|CornerRadius=0.078mm|HoleSize=0mm|Usage=FLASHONLY|Rotation=180.000|XOffset=0mm|YOffset=0mm|HoleType=Round|Shape=RoundedRectangle|*
%AMROUNDEDRECTD54*
21,1,0.476,1.140,0,0,180.0*
21,1,0.320,1.296,0,0,180.0*
1,1,0.156,-0.160,0.570*
1,1,0.156,0.160,0.570*
1,1,0.156,0.160,-0.570*
1,1,0.156,-0.160,-0.570*
%
%ADD54ROUNDEDRECTD54*%
G04:AMPARAMS|DCode=55|XSize=0.376mm|YSize=0.776mm|CornerRadius=0.068mm|HoleSize=0mm|Usage=FLASHONLY|Rotation=180.000|XOffset=0mm|YOffset=0mm|HoleType=Round|Shape=RoundedRectangle|*
%AMROUNDEDRECTD55*
21,1,0.376,0.640,0,0,180.0*
21,1,0.240,0.776,0,0,180.0*
1,1,0.136,-0.120,0.320*
1,1,0.136,0.120,0.320*
1,1,0.136,0.120,-0.320*
1,1,0.136,-0.120,-0.320*
%
%ADD55ROUNDEDRECTD55*%
G04:AMPARAMS|DCode=56|XSize=1.076mm|YSize=0.776mm|CornerRadius=0.108mm|HoleSize=0mm|Usage=FLASHONLY|Rotation=180.000|XOffset=0mm|YOffset=0mm|HoleType=Round|Shape=RoundedRectangle|*
%AMROUNDEDRECTD56*
21,1,1.076,0.560,0,0,180.0*
21,1,0.860,0.776,0,0,180.0*
1,1,0.216,-0.430,0.280*
1,1,0.216,0.430,0.280*
1,1,0.216,0.430,-0.280*
1,1,0.216,-0.430,-0.280*
%
%ADD56ROUNDEDRECTD56*%
G04:AMPARAMS|DCode=57|XSize=0.676mm|YSize=1.026mm|CornerRadius=0.098mm|HoleSize=0mm|Usage=FLASHONLY|Rotation=0.000|XOffset=0mm|YOffset=0mm|HoleType=Round|Shape=RoundedRectangle|*
%AMROUNDEDRECTD57*
21,1,0.676,0.830,0,0,0.0*
21,1,0.480,1.026,0,0,0.0*
1,1,0.196,0.240,-0.415*
1,1,0.196,-0.240,-0.415*
1,1,0.196,-0.240,0.415*
1,1,0.196,0.240,0.415*
%
%ADD57ROUNDEDRECTD57*%
%ADD58R,5.676X5.676*%
G04:AMPARAMS|DCode=59|XSize=0.376mm|YSize=0.626mm|CornerRadius=0.068mm|HoleSize=0mm|Usage=FLASHONLY|Rotation=180.000|XOffset=0mm|YOffset=0mm|HoleType=Round|Shape=RoundedRectangle|*
%AMROUNDEDRECTD59*
21,1,0.376,0.490,0,0,180.0*
21,1,0.240,0.626,0,0,180.0*
1,1,0.136,-0.120,0.245*
1,1,0.136,0.120,0.245*
1,1,0.136,0.120,-0.245*
1,1,0.136,-0.120,-0.245*
%
%ADD59ROUNDEDRECTD59*%
G04:AMPARAMS|DCode=60|XSize=0.376mm|YSize=0.626mm|CornerRadius=0.068mm|HoleSize=0mm|Usage=FLASHONLY|Rotation=270.000|XOffset=0mm|YOffset=0mm|HoleType=Round|Shape=RoundedRectangle|*
%AMROUNDEDRECTD60*
21,1,0.376,0.490,0,0,270.0*
21,1,0.240,0.626,0,0,270.0*
1,1,0.136,-0.245,-0.120*
1,1,0.136,-0.245,0.120*
1,1,0.136,0.245,0.120*
1,1,0.136,0.245,-0.120*
%
%ADD60ROUNDEDRECTD60*%
G04:AMPARAMS|DCode=61|XSize=1.476mm|YSize=1.276mm|CornerRadius=0.158mm|HoleSize=0mm|Usage=FLASHONLY|Rotation=270.000|XOffset=0mm|YOffset=0mm|HoleType=Round|Shape=RoundedRectangle|*
%AMROUNDEDRECTD61*
21,1,1.476,0.960,0,0,270.0*
21,1,1.160,1.276,0,0,270.0*
1,1,0.316,-0.480,-0.580*
1,1,0.316,-0.480,0.580*
1,1,0.316,0.480,0.580*
1,1,0.316,0.480,-0.580*
%
%ADD61ROUNDEDRECTD61*%
G04:AMPARAMS|DCode=62|XSize=1.076mm|YSize=1.876mm|CornerRadius=0.138mm|HoleSize=0mm|Usage=FLASHONLY|Rotation=180.000|XOffset=0mm|YOffset=0mm|HoleType=Round|Shape=RoundedRectangle|*
%AMROUNDEDRECTD62*
21,1,1.076,1.600,0,0,180.0*
21,1,0.800,1.876,0,0,180.0*
1,1,0.276,-0.400,0.800*
1,1,0.276,0.400,0.800*
1,1,0.276,0.400,-0.800*
1,1,0.276,-0.400,-0.800*
%
%ADD62ROUNDEDRECTD62*%
G04:AMPARAMS|DCode=63|XSize=0.676mm|YSize=1.026mm|CornerRadius=0.098mm|HoleSize=0mm|Usage=FLASHONLY|Rotation=90.000|XOffset=0mm|YOffset=0mm|HoleType=Round|Shape=RoundedRectangle|*
%AMROUNDEDRECTD63*
21,1,0.676,0.830,0,0,90.0*
21,1,0.480,1.026,0,0,90.0*
1,1,0.196,0.415,0.240*
1,1,0.196,0.415,-0.240*
1,1,0.196,-0.415,-0.240*
1,1,0.196,-0.415,0.240*
%
%ADD63ROUNDEDRECTD63*%
G04:AMPARAMS|DCode=64|XSize=1.076mm|YSize=1.876mm|CornerRadius=0.138mm|HoleSize=0mm|Usage=FLASHONLY|Rotation=270.000|XOffset=0mm|YOffset=0mm|HoleType=Round|Shape=RoundedRectangle|*
%AMROUNDEDRECTD64*
21,1,1.076,1.600,0,0,270.0*
21,1,0.800,1.876,0,0,270.0*
1,1,0.276,-0.800,-0.400*
1,1,0.276,-0.800,0.400*
1,1,0.276,0.800,0.400*
1,1,0.276,0.800,-0.400*
%
%ADD64ROUNDEDRECTD64*%
G04:AMPARAMS|DCode=65|XSize=0.626mm|YSize=0.876mm|CornerRadius=0.093mm|HoleSize=0mm|Usage=FLASHONLY|Rotation=0.000|XOffset=0mm|YOffset=0mm|HoleType=Round|Shape=RoundedRectangle|*
%AMROUNDEDRECTD65*
21,1,0.626,0.690,0,0,0.0*
21,1,0.440,0.876,0,0,0.0*
1,1,0.186,0.220,-0.345*
1,1,0.186,-0.220,-0.345*
1,1,0.186,-0.220,0.345*
1,1,0.186,0.220,0.345*
%
%ADD65ROUNDEDRECTD65*%
G04:AMPARAMS|DCode=66|XSize=0.626mm|YSize=0.876mm|CornerRadius=0.093mm|HoleSize=0mm|Usage=FLASHONLY|Rotation=90.000|XOffset=0mm|YOffset=0mm|HoleType=Round|Shape=RoundedRectangle|*
%AMROUNDEDRECTD66*
21,1,0.626,0.690,0,0,90.0*
21,1,0.440,0.876,0,0,90.0*
1,1,0.186,0.345,0.220*
1,1,0.186,0.345,-0.220*
1,1,0.186,-0.345,-0.220*
1,1,0.186,-0.345,0.220*
%
%ADD66ROUNDEDRECTD66*%
G04:AMPARAMS|DCode=67|XSize=1.576mm|YSize=3.676mm|CornerRadius=0.188mm|HoleSize=0mm|Usage=FLASHONLY|Rotation=180.000|XOffset=0mm|YOffset=0mm|HoleType=Round|Shape=RoundedRectangle|*
%AMROUNDEDRECTD67*
21,1,1.576,3.300,0,0,180.0*
21,1,1.200,3.676,0,0,180.0*
1,1,0.376,-0.600,1.650*
1,1,0.376,0.600,1.650*
1,1,0.376,0.600,-1.650*
1,1,0.376,-0.600,-1.650*
%
%ADD67ROUNDEDRECTD67*%
G04:AMPARAMS|DCode=68|XSize=1.176mm|YSize=3.776mm|CornerRadius=0.148mm|HoleSize=0mm|Usage=FLASHONLY|Rotation=0.000|XOffset=0mm|YOffset=0mm|HoleType=Round|Shape=RoundedRectangle|*
%AMROUNDEDRECTD68*
21,1,1.176,3.480,0,0,0.0*
21,1,0.880,3.776,0,0,0.0*
1,1,0.296,0.440,-1.740*
1,1,0.296,-0.440,-1.740*
1,1,0.296,-0.440,1.740*
1,1,0.296,0.440,1.740*
%
%ADD68ROUNDEDRECTD68*%
G04:AMPARAMS|DCode=69|XSize=1.976mm|YSize=1.776mm|CornerRadius=0.208mm|HoleSize=0mm|Usage=FLASHONLY|Rotation=90.000|XOffset=0mm|YOffset=0mm|HoleType=Round|Shape=RoundedRectangle|*
%AMROUNDEDRECTD69*
21,1,1.976,1.360,0,0,90.0*
21,1,1.560,1.776,0,0,90.0*
1,1,0.416,0.680,0.780*
1,1,0.416,0.680,-0.780*
1,1,0.416,-0.680,-0.780*
1,1,0.416,-0.680,0.780*
%
%ADD69ROUNDEDRECTD69*%
%ADD70C,1.876*%
%ADD71C,1.576*%
G04:AMPARAMS|DCode=72|XSize=1.576mm|YSize=1.576mm|CornerRadius=0.188mm|HoleSize=0mm|Usage=FLASHONLY|Rotation=0.000|XOffset=0mm|YOffset=0mm|HoleType=Round|Shape=RoundedRectangle|*
%AMROUNDEDRECTD72*
21,1,1.576,1.200,0,0,0.0*
21,1,1.200,1.576,0,0,0.0*
1,1,0.376,0.600,-0.600*
1,1,0.376,-0.600,-0.600*
1,1,0.376,-0.600,0.600*
1,1,0.376,0.600,0.600*
%
%ADD72ROUNDEDRECTD72*%
G04:AMPARAMS|DCode=73|XSize=1.576mm|YSize=1.576mm|CornerRadius=0.188mm|HoleSize=0mm|Usage=FLASHONLY|Rotation=270.000|XOffset=0mm|YOffset=0mm|HoleType=Round|Shape=RoundedRectangle|*
%AMROUNDEDRECTD73*
21,1,1.576,1.200,0,0,270.0*
21,1,1.200,1.576,0,0,270.0*
1,1,0.376,-0.600,-0.600*
1,1,0.376,-0.600,0.600*
1,1,0.376,0.600,0.600*
1,1,0.376,0.600,-0.600*
%
%ADD73ROUNDEDRECTD73*%
%ADD74O,1.176X2.176*%
%ADD75O,1.176X2.676*%
%ADD76C,0.300*%
G36*
X63529Y24557D02*
X63539Y24556D01*
X63551Y24554D01*
X63565Y24552D01*
X63581Y24549D01*
X63598Y24544D01*
X63617Y24539D01*
X63637Y24532D01*
X63657Y24523D01*
X63678Y24514D01*
X63699Y24501D01*
X63719Y24487D01*
X63739Y24471D01*
X63759Y24452D01*
X63759Y24451D01*
X63762Y24448D01*
X63768Y24441D01*
X63774Y24434D01*
X63782Y24423D01*
X63790Y24412D01*
X63799Y24397D01*
X63809Y24381D01*
X63818Y24363D01*
X63827Y24343D01*
X63835Y24322D01*
X63843Y24299D01*
X63850Y24274D01*
X63854Y24248D01*
X63858Y24221D01*
X63859Y24193D01*
Y24186D01*
X63858Y24178D01*
X63857Y24168D01*
X63857Y24156D01*
X63854Y24141D01*
X63852Y24125D01*
X63848Y24107D01*
X63844Y24088D01*
X63839Y24069D01*
X63832Y24048D01*
X63823Y24028D01*
X63813Y24007D01*
X63803Y23987D01*
X63789Y23967D01*
X63774Y23948D01*
X63773Y23948D01*
X63770Y23945D01*
X63766Y23939D01*
X63759Y23933D01*
X63751Y23926D01*
X63740Y23917D01*
X63728Y23908D01*
X63715Y23898D01*
X63700Y23888D01*
X63683Y23879D01*
X63664Y23869D01*
X63645Y23860D01*
X63624Y23852D01*
X63602Y23846D01*
X63578Y23840D01*
X63553Y23836D01*
X63528Y24038D01*
X63529D01*
X63531Y24039D01*
X63535D01*
X63540Y24040D01*
X63547Y24041D01*
X63554Y24043D01*
X63563Y24045D01*
X63572Y24048D01*
X63591Y24054D01*
X63610Y24064D01*
X63630Y24075D01*
X63638Y24082D01*
X63646Y24089D01*
X63647Y24090D01*
X63648Y24091D01*
X63650Y24094D01*
X63653Y24097D01*
X63656Y24101D01*
X63659Y24105D01*
X63666Y24118D01*
X63674Y24133D01*
X63680Y24150D01*
X63685Y24170D01*
X63686Y24180D01*
X63686Y24191D01*
Y24197D01*
X63686Y24202D01*
X63685Y24207D01*
X63684Y24214D01*
X63680Y24229D01*
X63675Y24246D01*
X63671Y24255D01*
X63666Y24264D01*
X63660Y24273D01*
X63653Y24282D01*
X63646Y24291D01*
X63638Y24299D01*
X63637Y24300D01*
X63635Y24301D01*
X63633Y24303D01*
X63629Y24306D01*
X63624Y24309D01*
X63618Y24313D01*
X63611Y24317D01*
X63603Y24322D01*
X63594Y24326D01*
X63584Y24330D01*
X63573Y24334D01*
X63562Y24337D01*
X63549Y24340D01*
X63536Y24342D01*
X63521Y24343D01*
X63506Y24344D01*
X63505D01*
X63503D01*
X63498D01*
X63492Y24343D01*
X63486Y24342D01*
X63478Y24342D01*
X63470Y24341D01*
X63461Y24339D01*
X63441Y24334D01*
X63420Y24326D01*
X63410Y24321D01*
X63400Y24316D01*
X63390Y24309D01*
X63381Y24302D01*
X63380Y24301D01*
X63379Y24300D01*
X63377Y24298D01*
X63374Y24294D01*
X63370Y24290D01*
X63366Y24285D01*
X63357Y24273D01*
X63350Y24258D01*
X63342Y24240D01*
X63339Y24231D01*
X63337Y24221D01*
X63336Y24210D01*
X63335Y24199D01*
Y24192D01*
X63336Y24188D01*
Y24183D01*
X63336Y24172D01*
X63339Y24158D01*
X63341Y24142D01*
X63345Y24123D01*
X63350Y24104D01*
X63181Y24127D01*
Y24141D01*
X63180Y24148D01*
X63179Y24156D01*
X63179Y24165D01*
X63177Y24174D01*
X63173Y24196D01*
X63167Y24217D01*
X63162Y24228D01*
X63157Y24238D01*
X63152Y24247D01*
X63145Y24256D01*
X63144Y24257D01*
X63143Y24258D01*
X63141Y24260D01*
X63138Y24263D01*
X63134Y24266D01*
X63129Y24270D01*
X63124Y24274D01*
X63117Y24279D01*
X63102Y24287D01*
X63084Y24294D01*
X63075Y24297D01*
X63064Y24299D01*
X63053Y24300D01*
X63041Y24301D01*
X63040D01*
X63039D01*
X63036D01*
X63032Y24300D01*
X63027D01*
X63022Y24299D01*
X63010Y24297D01*
X62996Y24293D01*
X62982Y24287D01*
X62967Y24279D01*
X62954Y24268D01*
X62952Y24266D01*
X62949Y24262D01*
X62944Y24255D01*
X62938Y24244D01*
X62931Y24232D01*
X62927Y24217D01*
X62923Y24200D01*
X62921Y24181D01*
Y24175D01*
X62922Y24172D01*
Y24167D01*
X62923Y24162D01*
X62926Y24149D01*
X62931Y24135D01*
X62937Y24120D01*
X62946Y24104D01*
X62952Y24096D01*
X62959Y24089D01*
X62960Y24088D01*
X62960Y24087D01*
X62963Y24086D01*
X62966Y24083D01*
X62970Y24080D01*
X62974Y24076D01*
X62980Y24073D01*
X62986Y24069D01*
X62993Y24065D01*
X63001Y24061D01*
X63010Y24058D01*
X63020Y24054D01*
X63030Y24050D01*
X63041Y24047D01*
X63054Y24045D01*
X63066Y24043D01*
X63034Y23852D01*
X63033D01*
X63029Y23853D01*
X63025Y23854D01*
X63018Y23856D01*
X63009Y23857D01*
X63000Y23861D01*
X62989Y23863D01*
X62978Y23867D01*
X62952Y23875D01*
X62926Y23886D01*
X62900Y23897D01*
X62888Y23905D01*
X62876Y23912D01*
X62876Y23912D01*
X62874Y23913D01*
X62871Y23915D01*
X62867Y23919D01*
X62861Y23923D01*
X62856Y23928D01*
X62850Y23934D01*
X62843Y23941D01*
X62836Y23948D01*
X62828Y23957D01*
X62820Y23967D01*
X62813Y23977D01*
X62805Y23988D01*
X62797Y23999D01*
X62784Y24025D01*
X62783Y24025D01*
X62782Y24028D01*
X62781Y24032D01*
X62778Y24037D01*
X62776Y24044D01*
X62773Y24052D01*
X62770Y24061D01*
X62766Y24072D01*
X62763Y24083D01*
X62761Y24096D01*
X62758Y24109D01*
X62756Y24123D01*
X62752Y24154D01*
X62750Y24171D01*
Y24194D01*
X62751Y24202D01*
X62752Y24212D01*
X62753Y24226D01*
X62756Y24240D01*
X62758Y24257D01*
X62763Y24275D01*
X62767Y24295D01*
X62774Y24314D01*
X62782Y24335D01*
X62792Y24355D01*
X62803Y24375D01*
X62816Y24396D01*
X62831Y24415D01*
X62848Y24433D01*
X62849Y24434D01*
X62852Y24436D01*
X62856Y24440D01*
X62862Y24444D01*
X62870Y24451D01*
X62879Y24457D01*
X62889Y24464D01*
X62901Y24471D01*
X62913Y24478D01*
X62927Y24485D01*
X62942Y24492D01*
X62958Y24498D01*
X62974Y24503D01*
X62992Y24506D01*
X63010Y24509D01*
X63029Y24510D01*
X63030D01*
X63035D01*
X63042Y24509D01*
X63052Y24507D01*
X63065Y24505D01*
X63078Y24501D01*
X63094Y24496D01*
X63111Y24490D01*
X63128Y24481D01*
X63147Y24471D01*
X63166Y24459D01*
X63186Y24444D01*
X63204Y24426D01*
X63214Y24415D01*
X63222Y24404D01*
X63232Y24393D01*
X63241Y24380D01*
X63249Y24367D01*
X63257Y24353D01*
Y24353D01*
X63258Y24357D01*
X63259Y24361D01*
X63261Y24368D01*
X63263Y24376D01*
X63267Y24385D01*
X63271Y24395D01*
X63276Y24406D01*
X63281Y24418D01*
X63288Y24430D01*
X63295Y24443D01*
X63303Y24455D01*
X63312Y24467D01*
X63323Y24479D01*
X63334Y24491D01*
X63347Y24502D01*
X63347Y24503D01*
X63350Y24504D01*
X63354Y24507D01*
X63359Y24510D01*
X63365Y24514D01*
X63374Y24519D01*
X63383Y24525D01*
X63394Y24530D01*
X63405Y24535D01*
X63418Y24540D01*
X63432Y24545D01*
X63447Y24549D01*
X63463Y24552D01*
X63479Y24555D01*
X63496Y24557D01*
X63514Y24558D01*
X63516D01*
X63521D01*
X63529Y24557D01*
D02*
G37*
G36*
X63840Y22973D02*
X63839D01*
X63835Y22974D01*
X63829Y22974D01*
X63821Y22976D01*
X63812Y22978D01*
X63800Y22980D01*
X63788Y22982D01*
X63773Y22986D01*
X63758Y22990D01*
X63741Y22996D01*
X63725Y23001D01*
X63707Y23007D01*
X63689Y23015D01*
X63670Y23024D01*
X63652Y23033D01*
X63633Y23044D01*
X63632Y23044D01*
X63628Y23047D01*
X63623Y23051D01*
X63615Y23055D01*
X63605Y23062D01*
X63594Y23072D01*
X63580Y23083D01*
X63564Y23095D01*
X63546Y23110D01*
X63526Y23127D01*
X63505Y23146D01*
X63481Y23168D01*
X63456Y23192D01*
X63430Y23218D01*
X63402Y23247D01*
X63372Y23278D01*
X63372Y23279D01*
X63371Y23280D01*
X63367Y23284D01*
X63360Y23292D01*
X63351Y23301D01*
X63340Y23312D01*
X63328Y23324D01*
X63315Y23338D01*
X63301Y23353D01*
X63271Y23382D01*
X63257Y23397D01*
X63242Y23410D01*
X63229Y23423D01*
X63216Y23434D01*
X63204Y23444D01*
X63195Y23451D01*
X63194Y23452D01*
X63192Y23452D01*
X63189Y23455D01*
X63184Y23458D01*
X63178Y23461D01*
X63171Y23464D01*
X63164Y23468D01*
X63155Y23473D01*
X63135Y23481D01*
X63114Y23487D01*
X63091Y23492D01*
X63079Y23493D01*
X63067Y23494D01*
X63066D01*
X63064D01*
X63061D01*
X63055Y23493D01*
X63050D01*
X63044Y23492D01*
X63028Y23489D01*
X63011Y23485D01*
X62993Y23478D01*
X62976Y23469D01*
X62967Y23463D01*
X62960Y23456D01*
X62960Y23456D01*
X62959Y23455D01*
X62957Y23452D01*
X62954Y23449D01*
X62952Y23445D01*
X62949Y23441D01*
X62945Y23435D01*
X62942Y23430D01*
X62934Y23415D01*
X62928Y23397D01*
X62924Y23376D01*
X62923Y23365D01*
X62923Y23353D01*
Y23346D01*
X62923Y23342D01*
Y23336D01*
X62925Y23330D01*
X62927Y23315D01*
X62932Y23299D01*
X62939Y23281D01*
X62944Y23273D01*
X62949Y23264D01*
X62955Y23256D01*
X62962Y23248D01*
X62963Y23248D01*
X62963Y23247D01*
X62966Y23244D01*
X62970Y23242D01*
X62974Y23239D01*
X62979Y23236D01*
X62985Y23233D01*
X62993Y23229D01*
X63001Y23225D01*
X63011Y23221D01*
X63022Y23217D01*
X63033Y23214D01*
X63047Y23211D01*
X63061Y23208D01*
X63076Y23206D01*
X63092Y23204D01*
X63072Y22997D01*
X63071D01*
X63069D01*
X63067Y22998D01*
X63064D01*
X63060Y22999D01*
X63055Y23000D01*
X63044Y23002D01*
X63029Y23004D01*
X63014Y23008D01*
X62996Y23013D01*
X62977Y23018D01*
X62956Y23025D01*
X62936Y23033D01*
X62916Y23043D01*
X62895Y23054D01*
X62876Y23065D01*
X62858Y23080D01*
X62840Y23095D01*
X62825Y23113D01*
X62825Y23113D01*
X62822Y23117D01*
X62818Y23123D01*
X62814Y23130D01*
X62808Y23140D01*
X62802Y23151D01*
X62795Y23165D01*
X62788Y23180D01*
X62781Y23197D01*
X62774Y23215D01*
X62767Y23236D01*
X62762Y23257D01*
X62757Y23281D01*
X62753Y23305D01*
X62751Y23331D01*
X62750Y23357D01*
Y23365D01*
X62751Y23373D01*
X62752Y23384D01*
X62752Y23397D01*
X62755Y23413D01*
X62757Y23430D01*
X62761Y23449D01*
X62766Y23469D01*
X62771Y23490D01*
X62778Y23511D01*
X62787Y23532D01*
X62797Y23553D01*
X62808Y23573D01*
X62821Y23592D01*
X62837Y23610D01*
X62838Y23611D01*
X62841Y23614D01*
X62846Y23619D01*
X62853Y23624D01*
X62861Y23631D01*
X62871Y23639D01*
X62883Y23648D01*
X62897Y23656D01*
X62912Y23665D01*
X62927Y23674D01*
X62945Y23682D01*
X62964Y23689D01*
X62985Y23694D01*
X63007Y23699D01*
X63029Y23702D01*
X63053Y23703D01*
X63054D01*
X63056D01*
X63060D01*
X63066D01*
X63072Y23702D01*
X63080Y23701D01*
X63088Y23700D01*
X63098Y23700D01*
X63119Y23697D01*
X63142Y23692D01*
X63168Y23685D01*
X63193Y23676D01*
X63193D01*
X63196Y23675D01*
X63199Y23673D01*
X63204Y23671D01*
X63210Y23668D01*
X63217Y23664D01*
X63226Y23660D01*
X63234Y23656D01*
X63244Y23650D01*
X63255Y23644D01*
X63279Y23630D01*
X63304Y23613D01*
X63331Y23593D01*
X63332Y23592D01*
X63333Y23591D01*
X63336Y23589D01*
X63339Y23586D01*
X63345Y23581D01*
X63351Y23576D01*
X63358Y23569D01*
X63366Y23562D01*
X63376Y23553D01*
X63386Y23543D01*
X63398Y23532D01*
X63410Y23519D01*
X63423Y23506D01*
X63438Y23491D01*
X63453Y23474D01*
X63470Y23456D01*
X63471Y23456D01*
X63474Y23452D01*
X63478Y23447D01*
X63485Y23441D01*
X63492Y23433D01*
X63500Y23423D01*
X63509Y23414D01*
X63518Y23404D01*
X63539Y23383D01*
X63558Y23361D01*
X63568Y23352D01*
X63576Y23344D01*
X63584Y23336D01*
X63590Y23331D01*
X63591Y23330D01*
X63595Y23327D01*
X63601Y23321D01*
X63608Y23316D01*
X63616Y23309D01*
X63627Y23302D01*
X63637Y23295D01*
X63647Y23288D01*
Y23703D01*
X63840D01*
Y22973D01*
D02*
G37*
G36*
X63334Y22860D02*
X63344D01*
X63355Y22859D01*
X63368Y22858D01*
X63380Y22858D01*
X63394Y22857D01*
X63409Y22855D01*
X63441Y22852D01*
X63476Y22847D01*
X63512Y22842D01*
X63549Y22835D01*
X63586Y22826D01*
X63622Y22816D01*
X63657Y22803D01*
X63690Y22789D01*
X63706Y22781D01*
X63721Y22773D01*
X63735Y22763D01*
X63748Y22754D01*
X63750Y22753D01*
X63753Y22750D01*
X63759Y22744D01*
X63766Y22737D01*
X63774Y22729D01*
X63784Y22718D01*
X63793Y22704D01*
X63803Y22690D01*
X63814Y22673D01*
X63824Y22655D01*
X63833Y22635D01*
X63842Y22613D01*
X63849Y22589D01*
X63854Y22563D01*
X63857Y22537D01*
X63859Y22507D01*
Y22500D01*
X63858Y22493D01*
X63857Y22482D01*
X63855Y22467D01*
X63853Y22453D01*
X63849Y22434D01*
X63844Y22416D01*
X63837Y22396D01*
X63829Y22376D01*
X63820Y22354D01*
X63808Y22332D01*
X63794Y22311D01*
X63777Y22291D01*
X63759Y22270D01*
X63737Y22252D01*
X63736Y22251D01*
X63732Y22248D01*
X63728Y22245D01*
X63724Y22243D01*
X63719Y22240D01*
X63714Y22237D01*
X63707Y22233D01*
X63700Y22230D01*
X63691Y22225D01*
X63682Y22221D01*
X63672Y22217D01*
X63662Y22212D01*
X63650Y22208D01*
X63638Y22204D01*
X63624Y22199D01*
X63609Y22194D01*
X63595Y22190D01*
X63578Y22186D01*
X63561Y22182D01*
X63543Y22178D01*
X63523Y22174D01*
X63503Y22170D01*
X63481Y22167D01*
X63460Y22164D01*
X63436Y22161D01*
X63412Y22159D01*
X63387Y22157D01*
X63360Y22156D01*
X63332Y22155D01*
X63303D01*
X63303D01*
X63300D01*
X63295D01*
X63290D01*
X63283Y22156D01*
X63274D01*
X63264D01*
X63253Y22157D01*
X63241Y22157D01*
X63228Y22158D01*
X63214Y22160D01*
X63199Y22161D01*
X63168Y22164D01*
X63133Y22168D01*
X63097Y22174D01*
X63061Y22181D01*
X63024Y22190D01*
X62987Y22200D01*
X62952Y22212D01*
X62920Y22226D01*
X62904Y22234D01*
X62889Y22242D01*
X62875Y22252D01*
X62861Y22261D01*
X62860Y22262D01*
X62857Y22265D01*
X62851Y22270D01*
X62844Y22277D01*
X62836Y22286D01*
X62826Y22297D01*
X62816Y22310D01*
X62806Y22325D01*
X62796Y22342D01*
X62785Y22360D01*
X62776Y22380D01*
X62767Y22402D01*
X62760Y22426D01*
X62755Y22452D01*
X62752Y22478D01*
X62750Y22507D01*
Y22515D01*
X62751Y22522D01*
X62752Y22533D01*
X62753Y22547D01*
X62756Y22562D01*
X62759Y22579D01*
X62764Y22598D01*
X62770Y22617D01*
X62777Y22637D01*
X62787Y22657D01*
X62798Y22678D01*
X62810Y22698D01*
X62825Y22718D01*
X62843Y22737D01*
X62863Y22754D01*
X62865Y22755D01*
X62866Y22756D01*
X62869Y22759D01*
X62873Y22761D01*
X62877Y22764D01*
X62883Y22767D01*
X62889Y22770D01*
X62895Y22774D01*
X62903Y22779D01*
X62912Y22783D01*
X62921Y22788D01*
X62932Y22792D01*
X62943Y22797D01*
X62955Y22803D01*
X62968Y22807D01*
X62982Y22812D01*
X62997Y22817D01*
X63013Y22822D01*
X63029Y22827D01*
X63047Y22832D01*
X63066Y22836D01*
X63085Y22840D01*
X63106Y22844D01*
X63128Y22847D01*
X63150Y22850D01*
X63173Y22854D01*
X63197Y22856D01*
X63222Y22858D01*
X63249Y22860D01*
X63277Y22861D01*
X63305D01*
X63306D01*
X63308D01*
X63313D01*
X63318D01*
X63325D01*
X63334Y22860D01*
D02*
G37*
G36*
X63840Y21285D02*
X63839D01*
X63835Y21286D01*
X63829Y21287D01*
X63821Y21289D01*
X63812Y21290D01*
X63800Y21292D01*
X63788Y21295D01*
X63773Y21299D01*
X63758Y21303D01*
X63741Y21308D01*
X63725Y21314D01*
X63707Y21320D01*
X63689Y21328D01*
X63670Y21336D01*
X63652Y21346D01*
X63633Y21356D01*
X63632Y21357D01*
X63628Y21359D01*
X63623Y21363D01*
X63615Y21368D01*
X63605Y21375D01*
X63594Y21384D01*
X63580Y21395D01*
X63564Y21408D01*
X63546Y21423D01*
X63526Y21439D01*
X63505Y21459D01*
X63481Y21480D01*
X63456Y21504D01*
X63430Y21530D01*
X63402Y21559D01*
X63372Y21591D01*
X63372Y21592D01*
X63371Y21592D01*
X63367Y21597D01*
X63360Y21604D01*
X63351Y21614D01*
X63340Y21624D01*
X63328Y21637D01*
X63315Y21650D01*
X63301Y21665D01*
X63271Y21694D01*
X63257Y21709D01*
X63242Y21723D01*
X63229Y21736D01*
X63216Y21747D01*
X63204Y21756D01*
X63195Y21763D01*
X63194Y21764D01*
X63192Y21765D01*
X63189Y21767D01*
X63184Y21770D01*
X63178Y21774D01*
X63171Y21777D01*
X63164Y21781D01*
X63155Y21785D01*
X63135Y21793D01*
X63114Y21800D01*
X63091Y21805D01*
X63079Y21806D01*
X63067Y21807D01*
X63066D01*
X63064D01*
X63061D01*
X63055Y21806D01*
X63050D01*
X63044Y21805D01*
X63028Y21802D01*
X63011Y21797D01*
X62993Y21791D01*
X62976Y21781D01*
X62967Y21775D01*
X62960Y21769D01*
X62960Y21768D01*
X62959Y21767D01*
X62957Y21765D01*
X62954Y21762D01*
X62952Y21758D01*
X62949Y21753D01*
X62945Y21748D01*
X62942Y21742D01*
X62934Y21727D01*
X62928Y21709D01*
X62924Y21689D01*
X62923Y21677D01*
X62923Y21665D01*
Y21659D01*
X62923Y21654D01*
Y21649D01*
X62925Y21643D01*
X62927Y21628D01*
X62932Y21611D01*
X62939Y21593D01*
X62944Y21585D01*
X62949Y21577D01*
X62955Y21569D01*
X62962Y21561D01*
X62963Y21560D01*
X62963Y21559D01*
X62966Y21557D01*
X62970Y21555D01*
X62974Y21552D01*
X62979Y21548D01*
X62985Y21545D01*
X62993Y21541D01*
X63001Y21537D01*
X63011Y21533D01*
X63022Y21530D01*
X63033Y21526D01*
X63047Y21523D01*
X63061Y21520D01*
X63076Y21519D01*
X63092Y21517D01*
X63072Y21310D01*
X63071D01*
X63069D01*
X63067Y21311D01*
X63064D01*
X63060Y21311D01*
X63055Y21312D01*
X63044Y21314D01*
X63029Y21317D01*
X63014Y21321D01*
X62996Y21325D01*
X62977Y21331D01*
X62956Y21338D01*
X62936Y21346D01*
X62916Y21355D01*
X62895Y21366D01*
X62876Y21378D01*
X62858Y21392D01*
X62840Y21408D01*
X62825Y21425D01*
X62825Y21426D01*
X62822Y21430D01*
X62818Y21435D01*
X62814Y21442D01*
X62808Y21453D01*
X62802Y21464D01*
X62795Y21478D01*
X62788Y21493D01*
X62781Y21509D01*
X62774Y21528D01*
X62767Y21548D01*
X62762Y21570D01*
X62757Y21593D01*
X62753Y21617D01*
X62751Y21643D01*
X62750Y21670D01*
Y21677D01*
X62751Y21686D01*
X62752Y21697D01*
X62752Y21710D01*
X62755Y21726D01*
X62757Y21743D01*
X62761Y21762D01*
X62766Y21781D01*
X62771Y21803D01*
X62778Y21824D01*
X62787Y21844D01*
X62797Y21865D01*
X62808Y21886D01*
X62821Y21905D01*
X62837Y21923D01*
X62838Y21924D01*
X62841Y21927D01*
X62846Y21931D01*
X62853Y21937D01*
X62861Y21944D01*
X62871Y21952D01*
X62883Y21960D01*
X62897Y21969D01*
X62912Y21978D01*
X62927Y21986D01*
X62945Y21994D01*
X62964Y22001D01*
X62985Y22007D01*
X63007Y22011D01*
X63029Y22015D01*
X63053Y22015D01*
X63054D01*
X63056D01*
X63060D01*
X63066D01*
X63072Y22015D01*
X63080Y22014D01*
X63088Y22013D01*
X63098Y22012D01*
X63119Y22009D01*
X63142Y22004D01*
X63168Y21997D01*
X63193Y21989D01*
X63193D01*
X63196Y21987D01*
X63199Y21986D01*
X63204Y21984D01*
X63210Y21981D01*
X63217Y21977D01*
X63226Y21973D01*
X63234Y21968D01*
X63244Y21963D01*
X63255Y21956D01*
X63279Y21942D01*
X63304Y21925D01*
X63331Y21905D01*
X63332Y21905D01*
X63333Y21904D01*
X63336Y21902D01*
X63339Y21898D01*
X63345Y21894D01*
X63351Y21888D01*
X63358Y21882D01*
X63366Y21874D01*
X63376Y21865D01*
X63386Y21855D01*
X63398Y21844D01*
X63410Y21832D01*
X63423Y21818D01*
X63438Y21803D01*
X63453Y21787D01*
X63470Y21769D01*
X63471Y21768D01*
X63474Y21765D01*
X63478Y21759D01*
X63485Y21753D01*
X63492Y21745D01*
X63500Y21736D01*
X63509Y21727D01*
X63518Y21716D01*
X63539Y21695D01*
X63558Y21674D01*
X63568Y21665D01*
X63576Y21657D01*
X63584Y21649D01*
X63590Y21643D01*
X63591Y21643D01*
X63595Y21639D01*
X63601Y21634D01*
X63608Y21628D01*
X63616Y21621D01*
X63627Y21614D01*
X63637Y21607D01*
X63647Y21601D01*
Y22015D01*
X63840D01*
Y21285D01*
D02*
G37*
G36*
Y20935D02*
X63632D01*
Y21143D01*
X63840D01*
Y20935D01*
D02*
G37*
G36*
Y20372D02*
X63056D01*
X63058Y20370D01*
X63061Y20366D01*
X63066Y20360D01*
X63073Y20351D01*
X63082Y20340D01*
X63092Y20327D01*
X63104Y20312D01*
X63116Y20295D01*
X63128Y20276D01*
X63142Y20256D01*
X63155Y20234D01*
X63168Y20210D01*
X63180Y20185D01*
X63193Y20158D01*
X63204Y20131D01*
X63214Y20103D01*
X63025D01*
Y20103D01*
X63023Y20107D01*
X63022Y20110D01*
X63019Y20117D01*
X63016Y20125D01*
X63013Y20133D01*
X63008Y20143D01*
X63003Y20155D01*
X62996Y20168D01*
X62989Y20181D01*
X62981Y20196D01*
X62971Y20211D01*
X62961Y20227D01*
X62950Y20244D01*
X62938Y20261D01*
X62924Y20279D01*
X62923Y20280D01*
X62921Y20283D01*
X62916Y20289D01*
X62911Y20295D01*
X62904Y20303D01*
X62895Y20311D01*
X62886Y20321D01*
X62875Y20332D01*
X62862Y20342D01*
X62849Y20353D01*
X62835Y20364D01*
X62819Y20375D01*
X62803Y20385D01*
X62786Y20395D01*
X62768Y20403D01*
X62750Y20410D01*
Y20580D01*
X63840D01*
Y20372D01*
D02*
G37*
G36*
Y19528D02*
X63056D01*
X63058Y19527D01*
X63061Y19523D01*
X63066Y19516D01*
X63073Y19508D01*
X63082Y19497D01*
X63092Y19483D01*
X63104Y19468D01*
X63116Y19451D01*
X63128Y19432D01*
X63142Y19412D01*
X63155Y19390D01*
X63168Y19366D01*
X63180Y19341D01*
X63193Y19315D01*
X63204Y19287D01*
X63214Y19259D01*
X63025D01*
Y19260D01*
X63023Y19263D01*
X63022Y19267D01*
X63019Y19273D01*
X63016Y19281D01*
X63013Y19290D01*
X63008Y19300D01*
X63003Y19312D01*
X62996Y19324D01*
X62989Y19337D01*
X62981Y19352D01*
X62971Y19367D01*
X62961Y19384D01*
X62950Y19400D01*
X62938Y19417D01*
X62924Y19436D01*
X62923Y19436D01*
X62921Y19439D01*
X62916Y19445D01*
X62911Y19451D01*
X62904Y19459D01*
X62895Y19468D01*
X62886Y19477D01*
X62875Y19488D01*
X62862Y19498D01*
X62849Y19509D01*
X62835Y19520D01*
X62819Y19531D01*
X62803Y19541D01*
X62786Y19551D01*
X62768Y19560D01*
X62750Y19567D01*
Y19736D01*
X63840D01*
Y19528D01*
D02*
G37*
G36*
Y18826D02*
X63632D01*
Y19034D01*
X63840D01*
Y18826D01*
D02*
G37*
G36*
X63489Y18670D02*
X63499Y18669D01*
X63511Y18669D01*
X63524Y18667D01*
X63540Y18665D01*
X63556Y18662D01*
X63574Y18657D01*
X63594Y18652D01*
X63613Y18646D01*
X63634Y18638D01*
X63654Y18629D01*
X63675Y18618D01*
X63695Y18607D01*
X63715Y18593D01*
X63717Y18591D01*
X63722Y18588D01*
X63729Y18582D01*
X63738Y18573D01*
X63748Y18563D01*
X63761Y18549D01*
X63773Y18534D01*
X63787Y18516D01*
X63801Y18497D01*
X63813Y18475D01*
X63826Y18451D01*
X63836Y18425D01*
X63846Y18396D01*
X63853Y18366D01*
X63857Y18334D01*
X63858Y18316D01*
X63859Y18299D01*
Y18293D01*
X63858Y18285D01*
X63857Y18274D01*
X63857Y18261D01*
X63855Y18246D01*
X63852Y18230D01*
X63849Y18212D01*
X63845Y18193D01*
X63839Y18173D01*
X63833Y18153D01*
X63825Y18133D01*
X63816Y18112D01*
X63806Y18092D01*
X63793Y18072D01*
X63779Y18054D01*
X63778Y18053D01*
X63775Y18050D01*
X63770Y18046D01*
X63764Y18039D01*
X63756Y18031D01*
X63746Y18024D01*
X63735Y18014D01*
X63722Y18005D01*
X63707Y17995D01*
X63690Y17985D01*
X63673Y17976D01*
X63653Y17966D01*
X63633Y17958D01*
X63610Y17951D01*
X63587Y17945D01*
X63562Y17941D01*
X63540Y18148D01*
X63541D01*
X63543Y18149D01*
X63547D01*
X63552Y18151D01*
X63558Y18151D01*
X63565Y18153D01*
X63580Y18158D01*
X63598Y18165D01*
X63617Y18174D01*
X63635Y18185D01*
X63644Y18192D01*
X63652Y18200D01*
X63653Y18201D01*
X63653Y18202D01*
X63656Y18205D01*
X63658Y18208D01*
X63661Y18212D01*
X63664Y18217D01*
X63672Y18229D01*
X63680Y18244D01*
X63686Y18261D01*
X63691Y18281D01*
X63692Y18291D01*
X63693Y18301D01*
Y18308D01*
X63692Y18312D01*
X63691Y18318D01*
X63689Y18324D01*
X63686Y18340D01*
X63680Y18357D01*
X63675Y18366D01*
X63671Y18375D01*
X63664Y18385D01*
X63657Y18394D01*
X63649Y18403D01*
X63640Y18411D01*
X63639Y18412D01*
X63638Y18414D01*
X63635Y18415D01*
X63630Y18418D01*
X63624Y18421D01*
X63617Y18425D01*
X63609Y18430D01*
X63600Y18434D01*
X63589Y18438D01*
X63577Y18443D01*
X63564Y18447D01*
X63550Y18450D01*
X63534Y18453D01*
X63517Y18455D01*
X63499Y18456D01*
X63479Y18457D01*
X63478D01*
X63474D01*
X63470D01*
X63463Y18456D01*
X63454Y18455D01*
X63445Y18454D01*
X63434Y18453D01*
X63423Y18451D01*
X63398Y18446D01*
X63386Y18442D01*
X63373Y18438D01*
X63361Y18432D01*
X63350Y18426D01*
X63339Y18419D01*
X63328Y18411D01*
X63328Y18410D01*
X63326Y18409D01*
X63324Y18407D01*
X63321Y18403D01*
X63317Y18399D01*
X63313Y18393D01*
X63308Y18387D01*
X63303Y18380D01*
X63299Y18372D01*
X63294Y18363D01*
X63286Y18344D01*
X63283Y18332D01*
X63281Y18321D01*
X63279Y18308D01*
X63278Y18295D01*
Y18291D01*
X63279Y18286D01*
X63280Y18280D01*
X63281Y18272D01*
X63282Y18263D01*
X63284Y18253D01*
X63288Y18242D01*
X63292Y18229D01*
X63298Y18217D01*
X63304Y18203D01*
X63312Y18189D01*
X63321Y18176D01*
X63332Y18162D01*
X63343Y18148D01*
X63357Y18134D01*
X63333Y17966D01*
X62768Y18073D01*
Y18623D01*
X62963D01*
Y18231D01*
X63148Y18197D01*
X63147Y18198D01*
X63146Y18200D01*
X63145Y18204D01*
X63142Y18209D01*
X63140Y18216D01*
X63137Y18223D01*
X63134Y18232D01*
X63130Y18241D01*
X63127Y18251D01*
X63124Y18263D01*
X63118Y18286D01*
X63114Y18313D01*
X63113Y18327D01*
Y18346D01*
X63113Y18353D01*
X63114Y18363D01*
X63116Y18375D01*
X63118Y18389D01*
X63121Y18404D01*
X63125Y18421D01*
X63131Y18439D01*
X63137Y18458D01*
X63146Y18477D01*
X63155Y18497D01*
X63167Y18517D01*
X63180Y18537D01*
X63196Y18556D01*
X63214Y18575D01*
X63215Y18575D01*
X63219Y18578D01*
X63224Y18583D01*
X63232Y18589D01*
X63242Y18597D01*
X63255Y18605D01*
X63269Y18614D01*
X63284Y18623D01*
X63303Y18632D01*
X63322Y18640D01*
X63344Y18649D01*
X63367Y18656D01*
X63392Y18662D01*
X63419Y18667D01*
X63446Y18670D01*
X63476Y18671D01*
X63478D01*
X63482D01*
X63489Y18670D01*
D02*
G37*
G36*
X63840Y17419D02*
X63056D01*
X63058Y17418D01*
X63061Y17414D01*
X63066Y17407D01*
X63073Y17399D01*
X63082Y17388D01*
X63092Y17374D01*
X63104Y17360D01*
X63116Y17342D01*
X63128Y17323D01*
X63142Y17303D01*
X63155Y17281D01*
X63168Y17258D01*
X63180Y17232D01*
X63193Y17206D01*
X63204Y17178D01*
X63214Y17150D01*
X63025D01*
Y17151D01*
X63023Y17154D01*
X63022Y17158D01*
X63019Y17164D01*
X63016Y17172D01*
X63013Y17181D01*
X63008Y17191D01*
X63003Y17203D01*
X62996Y17215D01*
X62989Y17228D01*
X62981Y17243D01*
X62971Y17258D01*
X62961Y17275D01*
X62950Y17291D01*
X62938Y17309D01*
X62924Y17327D01*
X62923Y17327D01*
X62921Y17331D01*
X62916Y17336D01*
X62911Y17342D01*
X62904Y17350D01*
X62895Y17359D01*
X62886Y17368D01*
X62875Y17379D01*
X62862Y17389D01*
X62849Y17400D01*
X62835Y17411D01*
X62819Y17422D01*
X62803Y17433D01*
X62786Y17442D01*
X62768Y17451D01*
X62750Y17458D01*
Y17627D01*
X63840D01*
Y17419D01*
D02*
G37*
G36*
X61894Y28658D02*
X61904D01*
X61915Y28657D01*
X61927Y28656D01*
X61940Y28655D01*
X61954Y28654D01*
X61969Y28653D01*
X62001Y28650D01*
X62036Y28645D01*
X62072Y28640D01*
X62109Y28632D01*
X62146Y28624D01*
X62182Y28614D01*
X62217Y28601D01*
X62250Y28587D01*
X62266Y28579D01*
X62281Y28570D01*
X62295Y28561D01*
X62308Y28552D01*
X62310Y28551D01*
X62313Y28548D01*
X62318Y28542D01*
X62325Y28535D01*
X62334Y28527D01*
X62343Y28516D01*
X62353Y28502D01*
X62363Y28487D01*
X62374Y28471D01*
X62383Y28453D01*
X62393Y28432D01*
X62401Y28410D01*
X62408Y28387D01*
X62414Y28361D01*
X62417Y28334D01*
X62419Y28305D01*
Y28298D01*
X62418Y28290D01*
X62417Y28279D01*
X62415Y28265D01*
X62412Y28250D01*
X62408Y28232D01*
X62404Y28214D01*
X62397Y28194D01*
X62389Y28173D01*
X62379Y28152D01*
X62368Y28130D01*
X62354Y28109D01*
X62337Y28089D01*
X62318Y28068D01*
X62297Y28049D01*
X62295Y28049D01*
X62292Y28045D01*
X62288Y28043D01*
X62284Y28041D01*
X62279Y28038D01*
X62273Y28034D01*
X62266Y28031D01*
X62259Y28027D01*
X62251Y28023D01*
X62242Y28019D01*
X62232Y28015D01*
X62222Y28010D01*
X62210Y28005D01*
X62197Y28001D01*
X62184Y27997D01*
X62169Y27992D01*
X62154Y27987D01*
X62138Y27983D01*
X62120Y27979D01*
X62102Y27976D01*
X62083Y27972D01*
X62062Y27968D01*
X62041Y27965D01*
X62019Y27961D01*
X61996Y27959D01*
X61971Y27957D01*
X61946Y27955D01*
X61919Y27954D01*
X61892Y27953D01*
X61863D01*
X61862D01*
X61860D01*
X61855D01*
X61850D01*
X61843Y27954D01*
X61834D01*
X61824D01*
X61813Y27954D01*
X61801Y27955D01*
X61788Y27956D01*
X61774Y27958D01*
X61759Y27958D01*
X61727Y27961D01*
X61693Y27966D01*
X61657Y27972D01*
X61620Y27979D01*
X61584Y27987D01*
X61547Y27998D01*
X61512Y28009D01*
X61479Y28023D01*
X61463Y28032D01*
X61449Y28040D01*
X61434Y28049D01*
X61421Y28059D01*
X61420Y28060D01*
X61416Y28063D01*
X61411Y28068D01*
X61404Y28075D01*
X61395Y28084D01*
X61386Y28095D01*
X61376Y28108D01*
X61365Y28123D01*
X61355Y28140D01*
X61345Y28158D01*
X61336Y28178D01*
X61327Y28200D01*
X61320Y28224D01*
X61314Y28249D01*
X61311Y28276D01*
X61310Y28305D01*
Y28312D01*
X61310Y28320D01*
X61311Y28331D01*
X61313Y28344D01*
X61316Y28360D01*
X61319Y28377D01*
X61324Y28395D01*
X61330Y28414D01*
X61337Y28435D01*
X61347Y28455D01*
X61358Y28476D01*
X61370Y28496D01*
X61385Y28516D01*
X61403Y28534D01*
X61423Y28552D01*
X61424Y28553D01*
X61426Y28554D01*
X61429Y28556D01*
X61433Y28559D01*
X61437Y28562D01*
X61442Y28565D01*
X61449Y28568D01*
X61455Y28572D01*
X61463Y28577D01*
X61471Y28581D01*
X61481Y28585D01*
X61492Y28590D01*
X61503Y28595D01*
X61514Y28600D01*
X61528Y28605D01*
X61542Y28610D01*
X61557Y28615D01*
X61573Y28620D01*
X61589Y28625D01*
X61607Y28629D01*
X61625Y28633D01*
X61645Y28638D01*
X61665Y28642D01*
X61687Y28645D01*
X61709Y28648D01*
X61733Y28651D01*
X61757Y28654D01*
X61782Y28656D01*
X61809Y28658D01*
X61836Y28658D01*
X61865D01*
X61865D01*
X61868D01*
X61872D01*
X61878D01*
X61885D01*
X61894Y28658D01*
D02*
G37*
G36*
Y27814D02*
X61904D01*
X61915Y27813D01*
X61927Y27812D01*
X61940Y27812D01*
X61954Y27811D01*
X61969Y27809D01*
X62001Y27806D01*
X62036Y27801D01*
X62072Y27796D01*
X62109Y27789D01*
X62146Y27780D01*
X62182Y27770D01*
X62217Y27757D01*
X62250Y27743D01*
X62266Y27735D01*
X62281Y27727D01*
X62295Y27717D01*
X62308Y27708D01*
X62310Y27707D01*
X62313Y27704D01*
X62318Y27699D01*
X62325Y27691D01*
X62334Y27683D01*
X62343Y27672D01*
X62353Y27658D01*
X62363Y27644D01*
X62374Y27627D01*
X62383Y27609D01*
X62393Y27589D01*
X62401Y27567D01*
X62408Y27543D01*
X62414Y27517D01*
X62417Y27491D01*
X62419Y27461D01*
Y27454D01*
X62418Y27447D01*
X62417Y27436D01*
X62415Y27421D01*
X62412Y27407D01*
X62408Y27389D01*
X62404Y27370D01*
X62397Y27350D01*
X62389Y27330D01*
X62379Y27308D01*
X62368Y27286D01*
X62354Y27265D01*
X62337Y27245D01*
X62318Y27224D01*
X62297Y27206D01*
X62295Y27205D01*
X62292Y27202D01*
X62288Y27199D01*
X62284Y27197D01*
X62279Y27194D01*
X62273Y27191D01*
X62266Y27187D01*
X62259Y27184D01*
X62251Y27179D01*
X62242Y27175D01*
X62232Y27171D01*
X62222Y27166D01*
X62210Y27162D01*
X62197Y27158D01*
X62184Y27153D01*
X62169Y27148D01*
X62154Y27144D01*
X62138Y27140D01*
X62120Y27136D01*
X62102Y27132D01*
X62083Y27128D01*
X62062Y27124D01*
X62041Y27121D01*
X62019Y27118D01*
X61996Y27115D01*
X61971Y27113D01*
X61946Y27111D01*
X61919Y27110D01*
X61892Y27109D01*
X61863D01*
X61862D01*
X61860D01*
X61855D01*
X61850D01*
X61843Y27110D01*
X61834D01*
X61824D01*
X61813Y27111D01*
X61801Y27111D01*
X61788Y27112D01*
X61774Y27114D01*
X61759Y27115D01*
X61727Y27118D01*
X61693Y27122D01*
X61657Y27128D01*
X61620Y27135D01*
X61584Y27144D01*
X61547Y27154D01*
X61512Y27166D01*
X61479Y27180D01*
X61463Y27188D01*
X61449Y27196D01*
X61434Y27206D01*
X61421Y27215D01*
X61420Y27216D01*
X61416Y27219D01*
X61411Y27224D01*
X61404Y27232D01*
X61395Y27240D01*
X61386Y27251D01*
X61376Y27264D01*
X61365Y27279D01*
X61355Y27296D01*
X61345Y27314D01*
X61336Y27334D01*
X61327Y27356D01*
X61320Y27380D01*
X61314Y27406D01*
X61311Y27432D01*
X61310Y27461D01*
Y27469D01*
X61310Y27476D01*
X61311Y27487D01*
X61313Y27501D01*
X61316Y27516D01*
X61319Y27533D01*
X61324Y27552D01*
X61330Y27571D01*
X61337Y27591D01*
X61347Y27611D01*
X61358Y27632D01*
X61370Y27652D01*
X61385Y27672D01*
X61403Y27691D01*
X61423Y27708D01*
X61424Y27710D01*
X61426Y27710D01*
X61429Y27713D01*
X61433Y27715D01*
X61437Y27718D01*
X61442Y27721D01*
X61449Y27724D01*
X61455Y27728D01*
X61463Y27733D01*
X61471Y27737D01*
X61481Y27742D01*
X61492Y27746D01*
X61503Y27751D01*
X61514Y27757D01*
X61528Y27761D01*
X61542Y27766D01*
X61557Y27772D01*
X61573Y27776D01*
X61589Y27781D01*
X61607Y27786D01*
X61625Y27790D01*
X61645Y27794D01*
X61665Y27798D01*
X61687Y27801D01*
X61709Y27804D01*
X61733Y27808D01*
X61757Y27810D01*
X61782Y27812D01*
X61809Y27814D01*
X61836Y27815D01*
X61865D01*
X61865D01*
X61868D01*
X61872D01*
X61878D01*
X61885D01*
X61894Y27814D01*
D02*
G37*
G36*
X62400Y26801D02*
X62153Y26706D01*
Y26272D01*
X62400Y26182D01*
Y25950D01*
X61314Y26371D01*
Y26604D01*
X62400Y27039D01*
Y26801D01*
D02*
G37*
G36*
X61817Y25061D02*
X61816Y25061D01*
X61815Y25059D01*
X61814Y25056D01*
X61811Y25053D01*
X61809Y25048D01*
X61806Y25043D01*
X61799Y25029D01*
X61793Y25014D01*
X61788Y24998D01*
X61784Y24981D01*
X61782Y24972D01*
Y24956D01*
X61784Y24948D01*
X61785Y24937D01*
X61788Y24926D01*
X61792Y24913D01*
X61799Y24900D01*
X61806Y24889D01*
X61807Y24887D01*
X61811Y24884D01*
X61817Y24879D01*
X61826Y24871D01*
X61839Y24864D01*
X61846Y24860D01*
X61854Y24857D01*
X61862Y24853D01*
X61872Y24849D01*
X61883Y24845D01*
X61894Y24842D01*
X61894D01*
X61897Y24841D01*
X61901Y24840D01*
X61906Y24839D01*
X61914Y24838D01*
X61924Y24836D01*
X61936Y24835D01*
X61950Y24833D01*
X61967Y24831D01*
X61985Y24830D01*
X62007Y24828D01*
X62031Y24827D01*
X62058Y24826D01*
X62088Y24825D01*
X62121Y24824D01*
X62138D01*
X62157D01*
X62400D01*
Y24616D01*
X61613D01*
Y24809D01*
X61725D01*
X61724Y24810D01*
X61722Y24812D01*
X61717Y24814D01*
X61712Y24818D01*
X61706Y24822D01*
X61698Y24827D01*
X61682Y24839D01*
X61664Y24853D01*
X61647Y24868D01*
X61639Y24875D01*
X61632Y24883D01*
X61626Y24891D01*
X61620Y24898D01*
Y24899D01*
X61620Y24900D01*
X61618Y24902D01*
X61617Y24905D01*
X61613Y24914D01*
X61608Y24925D01*
X61603Y24938D01*
X61599Y24953D01*
X61596Y24970D01*
X61595Y24988D01*
Y24995D01*
X61596Y25001D01*
X61597Y25007D01*
X61598Y25014D01*
X61598Y25023D01*
X61600Y25032D01*
X61605Y25054D01*
X61612Y25077D01*
X61617Y25089D01*
X61622Y25101D01*
X61628Y25114D01*
X61635Y25127D01*
X61817Y25061D01*
D02*
G37*
G36*
X62067Y23934D02*
X62068D01*
X62071D01*
X62076Y23935D01*
X62082D01*
X62090Y23936D01*
X62099Y23937D01*
X62109Y23939D01*
X62120Y23941D01*
X62143Y23947D01*
X62155Y23951D01*
X62167Y23956D01*
X62179Y23962D01*
X62190Y23968D01*
X62201Y23975D01*
X62211Y23984D01*
X62212Y23985D01*
X62214Y23986D01*
X62216Y23988D01*
X62219Y23992D01*
X62223Y23997D01*
X62228Y24003D01*
X62232Y24010D01*
X62237Y24018D01*
X62242Y24025D01*
X62246Y24035D01*
X62255Y24055D01*
X62258Y24067D01*
X62260Y24079D01*
X62262Y24091D01*
X62262Y24105D01*
Y24109D01*
X62262Y24113D01*
X62261Y24122D01*
X62259Y24134D01*
X62256Y24146D01*
X62251Y24160D01*
X62245Y24174D01*
X62237Y24187D01*
Y24188D01*
X62235Y24189D01*
X62231Y24193D01*
X62225Y24199D01*
X62215Y24206D01*
X62204Y24215D01*
X62189Y24223D01*
X62171Y24231D01*
X62150Y24238D01*
X62185Y24445D01*
X62186Y24444D01*
X62189Y24444D01*
X62196Y24441D01*
X62204Y24437D01*
X62213Y24434D01*
X62224Y24428D01*
X62237Y24422D01*
X62249Y24414D01*
X62263Y24406D01*
X62277Y24397D01*
X62292Y24386D01*
X62306Y24375D01*
X62321Y24362D01*
X62335Y24349D01*
X62347Y24334D01*
X62359Y24318D01*
X62360Y24317D01*
X62361Y24314D01*
X62365Y24309D01*
X62368Y24302D01*
X62372Y24294D01*
X62378Y24284D01*
X62383Y24272D01*
X62388Y24258D01*
X62394Y24244D01*
X62399Y24228D01*
X62405Y24210D01*
X62408Y24191D01*
X62412Y24171D01*
X62416Y24149D01*
X62417Y24126D01*
X62418Y24102D01*
Y24094D01*
X62417Y24088D01*
Y24083D01*
X62416Y24076D01*
X62416Y24069D01*
X62414Y24051D01*
X62411Y24032D01*
X62407Y24010D01*
X62401Y23987D01*
X62394Y23963D01*
X62385Y23937D01*
X62375Y23912D01*
X62361Y23887D01*
X62346Y23863D01*
X62328Y23840D01*
X62308Y23818D01*
X62284Y23799D01*
X62283Y23798D01*
X62280Y23795D01*
X62273Y23791D01*
X62265Y23787D01*
X62255Y23781D01*
X62242Y23774D01*
X62227Y23767D01*
X62210Y23760D01*
X62191Y23752D01*
X62171Y23745D01*
X62149Y23739D01*
X62124Y23733D01*
X62099Y23728D01*
X62072Y23724D01*
X62043Y23722D01*
X62013Y23721D01*
X62012D01*
X62011D01*
X62008D01*
X62004D01*
X62000Y23722D01*
X61994D01*
X61988D01*
X61981Y23722D01*
X61964Y23724D01*
X61945Y23726D01*
X61924Y23729D01*
X61901Y23733D01*
X61877Y23739D01*
X61852Y23746D01*
X61827Y23754D01*
X61801Y23764D01*
X61776Y23776D01*
X61752Y23789D01*
X61729Y23805D01*
X61707Y23823D01*
X61705Y23824D01*
X61702Y23828D01*
X61697Y23833D01*
X61690Y23841D01*
X61681Y23851D01*
X61671Y23864D01*
X61661Y23878D01*
X61651Y23894D01*
X61641Y23912D01*
X61631Y23931D01*
X61621Y23952D01*
X61613Y23975D01*
X61606Y23999D01*
X61600Y24025D01*
X61597Y24053D01*
X61595Y24082D01*
Y24090D01*
X61596Y24094D01*
Y24098D01*
X61597Y24111D01*
X61598Y24126D01*
X61602Y24142D01*
X61605Y24162D01*
X61609Y24182D01*
X61616Y24204D01*
X61624Y24226D01*
X61633Y24249D01*
X61644Y24273D01*
X61657Y24295D01*
X61673Y24317D01*
X61691Y24339D01*
X61711Y24358D01*
X61713Y24359D01*
X61717Y24363D01*
X61724Y24368D01*
X61733Y24374D01*
X61746Y24382D01*
X61761Y24390D01*
X61779Y24399D01*
X61799Y24408D01*
X61823Y24418D01*
X61850Y24427D01*
X61879Y24435D01*
X61911Y24443D01*
X61945Y24448D01*
X61983Y24453D01*
X62024Y24455D01*
X62067Y24456D01*
Y23934D01*
D02*
G37*
G36*
X62400Y23434D02*
X62046Y23235D01*
X62148Y23138D01*
X62400D01*
Y22931D01*
X61314D01*
Y23138D01*
X61890D01*
X61613Y23382D01*
Y23638D01*
X61901Y23369D01*
X62400Y23658D01*
Y23434D01*
D02*
G37*
G36*
X62139Y22789D02*
X62146Y22787D01*
X62157Y22785D01*
X62168Y22781D01*
X62182Y22776D01*
X62197Y22770D01*
X62212Y22763D01*
X62230Y22755D01*
X62247Y22747D01*
X62265Y22737D01*
X62283Y22726D01*
X62300Y22713D01*
X62317Y22700D01*
X62332Y22685D01*
X62346Y22668D01*
X62347Y22668D01*
X62350Y22664D01*
X62353Y22659D01*
X62357Y22652D01*
X62363Y22642D01*
X62369Y22631D01*
X62375Y22619D01*
X62382Y22604D01*
X62389Y22588D01*
X62395Y22569D01*
X62401Y22550D01*
X62407Y22528D01*
X62412Y22505D01*
X62415Y22480D01*
X62417Y22453D01*
X62418Y22426D01*
Y22418D01*
X62417Y22414D01*
Y22409D01*
X62416Y22398D01*
X62415Y22383D01*
X62412Y22366D01*
X62408Y22347D01*
X62405Y22327D01*
X62398Y22305D01*
X62391Y22283D01*
X62383Y22259D01*
X62372Y22237D01*
X62360Y22214D01*
X62346Y22192D01*
X62328Y22171D01*
X62310Y22150D01*
X62308Y22150D01*
X62305Y22146D01*
X62299Y22141D01*
X62289Y22135D01*
X62278Y22127D01*
X62265Y22118D01*
X62249Y22109D01*
X62231Y22099D01*
X62211Y22090D01*
X62188Y22080D01*
X62163Y22072D01*
X62136Y22064D01*
X62107Y22058D01*
X62076Y22053D01*
X62043Y22049D01*
X62007Y22048D01*
X62007D01*
X62005D01*
X62003D01*
X61999D01*
X61994Y22049D01*
X61989D01*
X61982D01*
X61975Y22050D01*
X61959Y22051D01*
X61940Y22054D01*
X61919Y22057D01*
X61897Y22061D01*
X61872Y22066D01*
X61848Y22073D01*
X61823Y22082D01*
X61797Y22091D01*
X61773Y22103D01*
X61748Y22117D01*
X61726Y22133D01*
X61704Y22151D01*
X61703Y22153D01*
X61700Y22156D01*
X61694Y22162D01*
X61687Y22170D01*
X61679Y22180D01*
X61670Y22193D01*
X61660Y22208D01*
X61650Y22225D01*
X61640Y22244D01*
X61630Y22264D01*
X61620Y22287D01*
X61613Y22312D01*
X61606Y22339D01*
X61600Y22367D01*
X61597Y22398D01*
X61595Y22430D01*
Y22444D01*
X61596Y22453D01*
X61597Y22466D01*
X61598Y22480D01*
X61601Y22496D01*
X61603Y22512D01*
X61606Y22530D01*
X61610Y22548D01*
X61616Y22568D01*
X61622Y22587D01*
X61629Y22606D01*
X61638Y22624D01*
X61647Y22642D01*
X61658Y22658D01*
X61659Y22659D01*
X61661Y22662D01*
X61664Y22666D01*
X61670Y22672D01*
X61676Y22679D01*
X61684Y22687D01*
X61694Y22696D01*
X61705Y22705D01*
X61717Y22715D01*
X61731Y22726D01*
X61747Y22736D01*
X61764Y22745D01*
X61782Y22755D01*
X61802Y22765D01*
X61824Y22773D01*
X61847Y22781D01*
X61883Y22576D01*
X61883D01*
X61881Y22575D01*
X61878Y22574D01*
X61873Y22573D01*
X61868Y22572D01*
X61862Y22570D01*
X61849Y22566D01*
X61834Y22559D01*
X61818Y22551D01*
X61804Y22540D01*
X61791Y22528D01*
Y22527D01*
X61789Y22526D01*
X61788Y22524D01*
X61786Y22522D01*
X61781Y22513D01*
X61775Y22502D01*
X61770Y22489D01*
X61764Y22472D01*
X61761Y22453D01*
X61759Y22433D01*
Y22425D01*
X61760Y22420D01*
X61761Y22413D01*
X61763Y22405D01*
X61764Y22397D01*
X61766Y22388D01*
X61769Y22378D01*
X61773Y22368D01*
X61777Y22358D01*
X61782Y22347D01*
X61788Y22337D01*
X61795Y22327D01*
X61804Y22318D01*
X61814Y22308D01*
X61814Y22307D01*
X61816Y22306D01*
X61819Y22304D01*
X61824Y22301D01*
X61830Y22297D01*
X61837Y22293D01*
X61846Y22289D01*
X61856Y22285D01*
X61868Y22281D01*
X61881Y22277D01*
X61896Y22273D01*
X61912Y22269D01*
X61930Y22266D01*
X61949Y22264D01*
X61971Y22263D01*
X61993Y22262D01*
X61995D01*
X62000D01*
X62007D01*
X62016Y22263D01*
X62028Y22263D01*
X62040Y22264D01*
X62055Y22266D01*
X62070Y22268D01*
X62103Y22274D01*
X62120Y22277D01*
X62135Y22281D01*
X62151Y22287D01*
X62166Y22293D01*
X62179Y22300D01*
X62191Y22309D01*
X62192Y22310D01*
X62193Y22311D01*
X62197Y22314D01*
X62200Y22318D01*
X62204Y22322D01*
X62209Y22328D01*
X62215Y22335D01*
X62219Y22343D01*
X62225Y22351D01*
X62230Y22361D01*
X62235Y22371D01*
X62240Y22382D01*
X62243Y22394D01*
X62246Y22407D01*
X62248Y22421D01*
X62248Y22435D01*
Y22441D01*
X62248Y22445D01*
Y22450D01*
X62247Y22456D01*
X62244Y22470D01*
X62240Y22485D01*
X62234Y22501D01*
X62226Y22517D01*
X62221Y22525D01*
X62215Y22532D01*
X62214Y22533D01*
X62213Y22533D01*
X62211Y22536D01*
X62208Y22538D01*
X62204Y22541D01*
X62200Y22545D01*
X62194Y22549D01*
X62187Y22553D01*
X62180Y22558D01*
X62171Y22562D01*
X62162Y22566D01*
X62151Y22571D01*
X62140Y22575D01*
X62127Y22579D01*
X62113Y22583D01*
X62098Y22586D01*
X62133Y22791D01*
X62135D01*
X62139Y22789D01*
D02*
G37*
G36*
X62400Y21729D02*
X62399D01*
X62396Y21727D01*
X62391Y21726D01*
X62384Y21723D01*
X62375Y21720D01*
X62365Y21716D01*
X62353Y21712D01*
X62339Y21708D01*
X62338D01*
X62335Y21708D01*
X62332Y21707D01*
X62328Y21705D01*
X62321Y21703D01*
X62317Y21702D01*
X62314Y21701D01*
X62315Y21701D01*
X62317Y21699D01*
X62319Y21696D01*
X62323Y21692D01*
X62327Y21687D01*
X62332Y21681D01*
X62338Y21675D01*
X62343Y21667D01*
X62356Y21650D01*
X62369Y21631D01*
X62381Y21610D01*
X62392Y21587D01*
Y21586D01*
X62393Y21584D01*
X62394Y21581D01*
X62396Y21577D01*
X62398Y21570D01*
X62400Y21564D01*
X62402Y21556D01*
X62405Y21548D01*
X62408Y21539D01*
X62410Y21529D01*
X62414Y21507D01*
X62417Y21482D01*
X62418Y21457D01*
Y21452D01*
X62417Y21446D01*
Y21437D01*
X62416Y21427D01*
X62415Y21415D01*
X62412Y21402D01*
X62409Y21387D01*
X62406Y21373D01*
X62401Y21357D01*
X62397Y21341D01*
X62390Y21325D01*
X62383Y21310D01*
X62374Y21294D01*
X62364Y21279D01*
X62352Y21266D01*
X62351Y21265D01*
X62349Y21263D01*
X62345Y21260D01*
X62340Y21255D01*
X62334Y21249D01*
X62326Y21244D01*
X62317Y21238D01*
X62306Y21231D01*
X62295Y21224D01*
X62282Y21218D01*
X62269Y21212D01*
X62254Y21207D01*
X62238Y21202D01*
X62222Y21199D01*
X62204Y21197D01*
X62186Y21196D01*
X62185D01*
X62182D01*
X62179D01*
X62175Y21197D01*
X62168D01*
X62162Y21198D01*
X62154Y21198D01*
X62146Y21200D01*
X62127Y21204D01*
X62107Y21209D01*
X62087Y21217D01*
X62067Y21227D01*
X62066Y21228D01*
X62065Y21229D01*
X62062Y21230D01*
X62058Y21234D01*
X62049Y21241D01*
X62037Y21251D01*
X62025Y21263D01*
X62011Y21278D01*
X61998Y21296D01*
X61987Y21317D01*
Y21318D01*
X61985Y21319D01*
X61984Y21323D01*
X61982Y21328D01*
X61980Y21333D01*
X61977Y21340D01*
X61974Y21349D01*
X61971Y21359D01*
X61967Y21370D01*
X61963Y21383D01*
X61959Y21396D01*
X61955Y21411D01*
X61950Y21427D01*
X61946Y21444D01*
X61942Y21463D01*
X61938Y21482D01*
Y21484D01*
X61937Y21489D01*
X61936Y21497D01*
X61934Y21506D01*
X61931Y21518D01*
X61928Y21532D01*
X61925Y21547D01*
X61922Y21562D01*
X61913Y21596D01*
X61905Y21629D01*
X61901Y21645D01*
X61896Y21660D01*
X61891Y21673D01*
X61887Y21685D01*
X61866D01*
X61865D01*
X61864D01*
X61861D01*
X61857Y21684D01*
X61851D01*
X61846Y21683D01*
X61833Y21681D01*
X61819Y21678D01*
X61805Y21672D01*
X61792Y21665D01*
X61786Y21661D01*
X61781Y21655D01*
X61780Y21654D01*
X61778Y21652D01*
X61777Y21649D01*
X61774Y21646D01*
X61773Y21641D01*
X61770Y21636D01*
X61767Y21630D01*
X61765Y21623D01*
X61763Y21614D01*
X61761Y21606D01*
X61759Y21595D01*
X61757Y21584D01*
X61755Y21571D01*
X61755Y21558D01*
Y21533D01*
X61755Y21529D01*
Y21523D01*
X61757Y21511D01*
X61760Y21497D01*
X61764Y21482D01*
X61770Y21468D01*
X61777Y21456D01*
X61777Y21454D01*
X61781Y21451D01*
X61787Y21445D01*
X61795Y21438D01*
X61805Y21431D01*
X61818Y21422D01*
X61835Y21414D01*
X61854Y21406D01*
X61820Y21217D01*
X61818Y21218D01*
X61815Y21219D01*
X61809Y21220D01*
X61801Y21223D01*
X61792Y21227D01*
X61781Y21231D01*
X61769Y21237D01*
X61756Y21242D01*
X61742Y21249D01*
X61729Y21258D01*
X61715Y21267D01*
X61701Y21277D01*
X61687Y21287D01*
X61674Y21300D01*
X61662Y21312D01*
X61651Y21326D01*
X61650Y21327D01*
X61649Y21330D01*
X61646Y21335D01*
X61642Y21341D01*
X61639Y21349D01*
X61634Y21359D01*
X61628Y21371D01*
X61623Y21385D01*
X61618Y21400D01*
X61613Y21417D01*
X61608Y21437D01*
X61604Y21457D01*
X61601Y21480D01*
X61598Y21504D01*
X61596Y21530D01*
X61595Y21559D01*
Y21572D01*
X61596Y21581D01*
Y21593D01*
X61597Y21606D01*
X61598Y21621D01*
X61599Y21637D01*
X61601Y21654D01*
X61603Y21671D01*
X61609Y21705D01*
X61613Y21722D01*
X61617Y21738D01*
X61623Y21753D01*
X61628Y21767D01*
Y21767D01*
X61630Y21770D01*
X61631Y21773D01*
X61635Y21778D01*
X61638Y21783D01*
X61642Y21789D01*
X61651Y21804D01*
X61664Y21820D01*
X61678Y21836D01*
X61694Y21851D01*
X61703Y21857D01*
X61712Y21862D01*
X61713D01*
X61715Y21864D01*
X61718Y21865D01*
X61722Y21867D01*
X61728Y21869D01*
X61736Y21871D01*
X61744Y21874D01*
X61755Y21876D01*
X61766Y21879D01*
X61781Y21882D01*
X61795Y21884D01*
X61813Y21886D01*
X61832Y21888D01*
X61852Y21889D01*
X61875Y21891D01*
X61899D01*
X62142Y21887D01*
X62142D01*
X62146D01*
X62152D01*
X62159D01*
X62168D01*
X62177Y21888D01*
X62188D01*
X62200Y21889D01*
X62225Y21890D01*
X62250Y21891D01*
X62262Y21892D01*
X62274Y21894D01*
X62284Y21895D01*
X62295Y21897D01*
X62295D01*
X62297Y21898D01*
X62299D01*
X62303Y21899D01*
X62308Y21900D01*
X62313Y21902D01*
X62326Y21905D01*
X62342Y21910D01*
X62360Y21917D01*
X62379Y21925D01*
X62400Y21935D01*
Y21729D01*
D02*
G37*
G36*
X61817Y21096D02*
X61816Y21095D01*
X61815Y21094D01*
X61814Y21091D01*
X61811Y21088D01*
X61809Y21083D01*
X61806Y21077D01*
X61799Y21064D01*
X61793Y21049D01*
X61788Y21033D01*
X61784Y21015D01*
X61782Y21007D01*
Y20991D01*
X61784Y20982D01*
X61785Y20972D01*
X61788Y20961D01*
X61792Y20948D01*
X61799Y20935D01*
X61806Y20924D01*
X61807Y20922D01*
X61811Y20919D01*
X61817Y20913D01*
X61826Y20906D01*
X61839Y20899D01*
X61846Y20895D01*
X61854Y20891D01*
X61862Y20888D01*
X61872Y20884D01*
X61883Y20880D01*
X61894Y20877D01*
X61894D01*
X61897Y20876D01*
X61901Y20875D01*
X61906Y20874D01*
X61914Y20873D01*
X61924Y20871D01*
X61936Y20869D01*
X61950Y20868D01*
X61967Y20866D01*
X61985Y20865D01*
X62007Y20863D01*
X62031Y20862D01*
X62058Y20861D01*
X62088Y20860D01*
X62121Y20859D01*
X62138D01*
X62157D01*
X62400D01*
Y20651D01*
X61613D01*
Y20844D01*
X61725D01*
X61724Y20845D01*
X61722Y20847D01*
X61717Y20849D01*
X61712Y20853D01*
X61706Y20857D01*
X61698Y20862D01*
X61682Y20874D01*
X61664Y20888D01*
X61647Y20902D01*
X61639Y20910D01*
X61632Y20918D01*
X61626Y20926D01*
X61620Y20933D01*
Y20934D01*
X61620Y20935D01*
X61618Y20937D01*
X61617Y20940D01*
X61613Y20949D01*
X61608Y20960D01*
X61603Y20973D01*
X61599Y20988D01*
X61596Y21005D01*
X61595Y21023D01*
Y21030D01*
X61596Y21036D01*
X61597Y21042D01*
X61598Y21049D01*
X61598Y21058D01*
X61600Y21067D01*
X61605Y21088D01*
X61612Y21112D01*
X61617Y21124D01*
X61622Y21136D01*
X61628Y21149D01*
X61635Y21161D01*
X61817Y21096D01*
D02*
G37*
G36*
X62387Y20531D02*
X62389Y20529D01*
X62390Y20525D01*
X62392Y20519D01*
X62394Y20512D01*
X62397Y20504D01*
X62400Y20494D01*
X62402Y20484D01*
X62405Y20472D01*
X62408Y20460D01*
X62411Y20446D01*
X62413Y20431D01*
X62416Y20401D01*
X62418Y20367D01*
Y20358D01*
X62417Y20353D01*
Y20348D01*
X62416Y20333D01*
X62413Y20318D01*
X62410Y20301D01*
X62405Y20283D01*
X62399Y20266D01*
Y20265D01*
X62398Y20264D01*
X62397Y20262D01*
X62396Y20259D01*
X62391Y20251D01*
X62386Y20241D01*
X62379Y20230D01*
X62371Y20220D01*
X62361Y20209D01*
X62350Y20200D01*
X62349Y20199D01*
X62345Y20197D01*
X62338Y20193D01*
X62329Y20188D01*
X62317Y20183D01*
X62303Y20179D01*
X62287Y20174D01*
X62269Y20171D01*
X62268D01*
X62267D01*
X62265Y20170D01*
X62262D01*
X62257Y20169D01*
X62251D01*
X62244Y20169D01*
X62237Y20168D01*
X62228Y20167D01*
X62217D01*
X62205Y20166D01*
X62192Y20165D01*
X62177D01*
X62160Y20165D01*
X62142D01*
X62122D01*
X61778D01*
Y20069D01*
X61613D01*
Y20165D01*
X61456D01*
X61334Y20373D01*
X61613D01*
Y20515D01*
X61778D01*
Y20373D01*
X62096D01*
X62097D01*
X62100D01*
X62105D01*
X62112D01*
X62119D01*
X62127D01*
X62146Y20373D01*
X62166D01*
X62175Y20374D01*
X62185D01*
X62193Y20375D01*
X62200D01*
X62205Y20376D01*
X62209Y20377D01*
X62210D01*
X62211Y20377D01*
X62215Y20379D01*
X62219Y20380D01*
X62222Y20383D01*
X62226Y20386D01*
X62231Y20390D01*
X62235Y20395D01*
X62236Y20395D01*
X62237Y20397D01*
X62238Y20400D01*
X62240Y20405D01*
X62242Y20410D01*
X62244Y20416D01*
X62244Y20423D01*
X62245Y20430D01*
Y20435D01*
X62244Y20442D01*
X62243Y20451D01*
X62241Y20463D01*
X62237Y20478D01*
X62232Y20494D01*
X62226Y20514D01*
X62387Y20532D01*
Y20531D01*
D02*
G37*
G36*
X61817Y20001D02*
X61816Y20000D01*
X61815Y19998D01*
X61814Y19995D01*
X61811Y19992D01*
X61809Y19987D01*
X61806Y19982D01*
X61799Y19968D01*
X61793Y19954D01*
X61788Y19937D01*
X61784Y19920D01*
X61782Y19911D01*
Y19895D01*
X61784Y19887D01*
X61785Y19877D01*
X61788Y19865D01*
X61792Y19852D01*
X61799Y19840D01*
X61806Y19828D01*
X61807Y19826D01*
X61811Y19823D01*
X61817Y19818D01*
X61826Y19811D01*
X61839Y19804D01*
X61846Y19800D01*
X61854Y19796D01*
X61862Y19792D01*
X61872Y19788D01*
X61883Y19784D01*
X61894Y19781D01*
X61894D01*
X61897Y19780D01*
X61901Y19779D01*
X61906Y19778D01*
X61914Y19777D01*
X61924Y19775D01*
X61936Y19774D01*
X61950Y19772D01*
X61967Y19771D01*
X61985Y19769D01*
X62007Y19768D01*
X62031Y19766D01*
X62058Y19765D01*
X62088Y19764D01*
X62121Y19764D01*
X62138D01*
X62157D01*
X62400D01*
Y19556D01*
X61613D01*
Y19749D01*
X61725D01*
X61724Y19749D01*
X61722Y19751D01*
X61717Y19753D01*
X61712Y19757D01*
X61706Y19761D01*
X61698Y19767D01*
X61682Y19778D01*
X61664Y19792D01*
X61647Y19807D01*
X61639Y19815D01*
X61632Y19822D01*
X61626Y19830D01*
X61620Y19837D01*
Y19838D01*
X61620Y19839D01*
X61618Y19841D01*
X61617Y19844D01*
X61613Y19853D01*
X61608Y19864D01*
X61603Y19877D01*
X61599Y19892D01*
X61596Y19910D01*
X61595Y19928D01*
Y19935D01*
X61596Y19940D01*
X61597Y19946D01*
X61598Y19954D01*
X61598Y19962D01*
X61600Y19972D01*
X61605Y19993D01*
X61612Y20016D01*
X61617Y20028D01*
X61622Y20041D01*
X61628Y20053D01*
X61635Y20066D01*
X61817Y20001D01*
D02*
G37*
G36*
X62400Y19199D02*
X62399D01*
X62396Y19198D01*
X62391Y19196D01*
X62384Y19194D01*
X62375Y19191D01*
X62365Y19187D01*
X62353Y19183D01*
X62339Y19179D01*
X62338D01*
X62335Y19178D01*
X62332Y19177D01*
X62328Y19176D01*
X62321Y19173D01*
X62317Y19173D01*
X62314Y19172D01*
X62315Y19171D01*
X62317Y19169D01*
X62319Y19166D01*
X62323Y19162D01*
X62327Y19158D01*
X62332Y19151D01*
X62338Y19145D01*
X62343Y19137D01*
X62356Y19121D01*
X62369Y19101D01*
X62381Y19080D01*
X62392Y19057D01*
Y19056D01*
X62393Y19055D01*
X62394Y19051D01*
X62396Y19047D01*
X62398Y19041D01*
X62400Y19034D01*
X62402Y19027D01*
X62405Y19019D01*
X62408Y19009D01*
X62410Y18999D01*
X62414Y18977D01*
X62417Y18953D01*
X62418Y18928D01*
Y18922D01*
X62417Y18916D01*
Y18907D01*
X62416Y18897D01*
X62415Y18885D01*
X62412Y18873D01*
X62409Y18858D01*
X62406Y18843D01*
X62401Y18827D01*
X62397Y18812D01*
X62390Y18796D01*
X62383Y18780D01*
X62374Y18764D01*
X62364Y18750D01*
X62352Y18736D01*
X62351Y18735D01*
X62349Y18733D01*
X62345Y18730D01*
X62340Y18725D01*
X62334Y18720D01*
X62326Y18714D01*
X62317Y18708D01*
X62306Y18702D01*
X62295Y18695D01*
X62282Y18688D01*
X62269Y18683D01*
X62254Y18677D01*
X62238Y18673D01*
X62222Y18669D01*
X62204Y18667D01*
X62186Y18666D01*
X62185D01*
X62182D01*
X62179D01*
X62175Y18667D01*
X62168D01*
X62162Y18668D01*
X62154Y18669D01*
X62146Y18670D01*
X62127Y18674D01*
X62107Y18680D01*
X62087Y18688D01*
X62067Y18698D01*
X62066Y18699D01*
X62065Y18699D01*
X62062Y18701D01*
X62058Y18704D01*
X62049Y18711D01*
X62037Y18721D01*
X62025Y18734D01*
X62011Y18749D01*
X61998Y18767D01*
X61987Y18787D01*
Y18788D01*
X61985Y18790D01*
X61984Y18794D01*
X61982Y18798D01*
X61980Y18804D01*
X61977Y18811D01*
X61974Y18819D01*
X61971Y18830D01*
X61967Y18841D01*
X61963Y18853D01*
X61959Y18866D01*
X61955Y18881D01*
X61950Y18897D01*
X61946Y18914D01*
X61942Y18933D01*
X61938Y18953D01*
Y18954D01*
X61937Y18959D01*
X61936Y18967D01*
X61934Y18976D01*
X61931Y18988D01*
X61928Y19002D01*
X61925Y19017D01*
X61922Y19033D01*
X61913Y19067D01*
X61905Y19100D01*
X61901Y19115D01*
X61896Y19130D01*
X61891Y19144D01*
X61887Y19155D01*
X61866D01*
X61865D01*
X61864D01*
X61861D01*
X61857Y19155D01*
X61851D01*
X61846Y19154D01*
X61833Y19151D01*
X61819Y19148D01*
X61805Y19143D01*
X61792Y19136D01*
X61786Y19131D01*
X61781Y19125D01*
X61780Y19124D01*
X61778Y19122D01*
X61777Y19119D01*
X61774Y19116D01*
X61773Y19111D01*
X61770Y19107D01*
X61767Y19100D01*
X61765Y19093D01*
X61763Y19085D01*
X61761Y19076D01*
X61759Y19066D01*
X61757Y19054D01*
X61755Y19042D01*
X61755Y19028D01*
Y19004D01*
X61755Y18999D01*
Y18994D01*
X61757Y18982D01*
X61760Y18968D01*
X61764Y18953D01*
X61770Y18939D01*
X61777Y18926D01*
X61777Y18925D01*
X61781Y18921D01*
X61787Y18915D01*
X61795Y18909D01*
X61805Y18901D01*
X61818Y18892D01*
X61835Y18885D01*
X61854Y18877D01*
X61820Y18688D01*
X61818Y18688D01*
X61815Y18689D01*
X61809Y18691D01*
X61801Y18694D01*
X61792Y18697D01*
X61781Y18702D01*
X61769Y18707D01*
X61756Y18713D01*
X61742Y18720D01*
X61729Y18728D01*
X61715Y18737D01*
X61701Y18747D01*
X61687Y18757D01*
X61674Y18770D01*
X61662Y18783D01*
X61651Y18797D01*
X61650Y18797D01*
X61649Y18801D01*
X61646Y18805D01*
X61642Y18812D01*
X61639Y18819D01*
X61634Y18830D01*
X61628Y18841D01*
X61623Y18855D01*
X61618Y18870D01*
X61613Y18888D01*
X61608Y18907D01*
X61604Y18928D01*
X61601Y18950D01*
X61598Y18975D01*
X61596Y19001D01*
X61595Y19029D01*
Y19042D01*
X61596Y19052D01*
Y19063D01*
X61597Y19077D01*
X61598Y19092D01*
X61599Y19107D01*
X61601Y19124D01*
X61603Y19141D01*
X61609Y19176D01*
X61613Y19192D01*
X61617Y19209D01*
X61623Y19224D01*
X61628Y19237D01*
Y19238D01*
X61630Y19240D01*
X61631Y19243D01*
X61635Y19248D01*
X61638Y19253D01*
X61642Y19260D01*
X61651Y19275D01*
X61664Y19290D01*
X61678Y19306D01*
X61694Y19321D01*
X61703Y19327D01*
X61712Y19333D01*
X61713D01*
X61715Y19334D01*
X61718Y19335D01*
X61722Y19337D01*
X61728Y19339D01*
X61736Y19341D01*
X61744Y19344D01*
X61755Y19347D01*
X61766Y19349D01*
X61781Y19352D01*
X61795Y19355D01*
X61813Y19356D01*
X61832Y19359D01*
X61852Y19359D01*
X61875Y19361D01*
X61899D01*
X62142Y19358D01*
X62142D01*
X62146D01*
X62152D01*
X62159D01*
X62168D01*
X62177Y19359D01*
X62188D01*
X62200Y19359D01*
X62225Y19360D01*
X62250Y19362D01*
X62262Y19363D01*
X62274Y19364D01*
X62284Y19366D01*
X62295Y19367D01*
X62295D01*
X62297Y19368D01*
X62299D01*
X62303Y19370D01*
X62308Y19370D01*
X62313Y19372D01*
X62326Y19376D01*
X62342Y19381D01*
X62360Y19388D01*
X62379Y19395D01*
X62400Y19405D01*
Y19199D01*
D02*
G37*
G36*
X62387Y18592D02*
X62389Y18589D01*
X62390Y18586D01*
X62392Y18580D01*
X62394Y18573D01*
X62397Y18564D01*
X62400Y18555D01*
X62402Y18545D01*
X62405Y18533D01*
X62408Y18520D01*
X62411Y18507D01*
X62413Y18492D01*
X62416Y18462D01*
X62418Y18428D01*
Y18418D01*
X62417Y18414D01*
Y18408D01*
X62416Y18394D01*
X62413Y18378D01*
X62410Y18362D01*
X62405Y18344D01*
X62399Y18327D01*
Y18326D01*
X62398Y18325D01*
X62397Y18323D01*
X62396Y18319D01*
X62391Y18312D01*
X62386Y18301D01*
X62379Y18290D01*
X62371Y18280D01*
X62361Y18269D01*
X62350Y18261D01*
X62349Y18260D01*
X62345Y18257D01*
X62338Y18254D01*
X62329Y18249D01*
X62317Y18244D01*
X62303Y18239D01*
X62287Y18235D01*
X62269Y18232D01*
X62268D01*
X62267D01*
X62265Y18231D01*
X62262D01*
X62257Y18230D01*
X62251D01*
X62244Y18229D01*
X62237Y18228D01*
X62228Y18228D01*
X62217D01*
X62205Y18227D01*
X62192Y18226D01*
X62177D01*
X62160Y18225D01*
X62142D01*
X62122D01*
X61778D01*
Y18130D01*
X61613D01*
Y18225D01*
X61456D01*
X61334Y18433D01*
X61613D01*
Y18575D01*
X61778D01*
Y18433D01*
X62096D01*
X62097D01*
X62100D01*
X62105D01*
X62112D01*
X62119D01*
X62127D01*
X62146Y18434D01*
X62166D01*
X62175Y18435D01*
X62185D01*
X62193Y18436D01*
X62200D01*
X62205Y18436D01*
X62209Y18437D01*
X62210D01*
X62211Y18438D01*
X62215Y18440D01*
X62219Y18441D01*
X62222Y18443D01*
X62226Y18447D01*
X62231Y18451D01*
X62235Y18455D01*
X62236Y18456D01*
X62237Y18458D01*
X62238Y18461D01*
X62240Y18465D01*
X62242Y18470D01*
X62244Y18476D01*
X62244Y18483D01*
X62245Y18491D01*
Y18496D01*
X62244Y18502D01*
X62243Y18512D01*
X62241Y18524D01*
X62237Y18538D01*
X62232Y18555D01*
X62226Y18575D01*
X62387Y18593D01*
Y18592D01*
D02*
G37*
G36*
X62100Y18032D02*
X62109Y18031D01*
X62118Y18030D01*
X62129Y18028D01*
X62141Y18027D01*
X62154Y18024D01*
X62168Y18020D01*
X62182Y18016D01*
X62197Y18011D01*
X62213Y18005D01*
X62229Y17998D01*
X62244Y17990D01*
X62259Y17980D01*
X62260Y17980D01*
X62262Y17978D01*
X62267Y17975D01*
X62273Y17971D01*
X62279Y17965D01*
X62287Y17959D01*
X62295Y17951D01*
X62305Y17943D01*
X62314Y17933D01*
X62324Y17922D01*
X62335Y17910D01*
X62344Y17896D01*
X62354Y17882D01*
X62364Y17867D01*
X62372Y17851D01*
X62380Y17834D01*
X62381Y17833D01*
X62382Y17830D01*
X62384Y17824D01*
X62386Y17816D01*
X62390Y17808D01*
X62393Y17797D01*
X62396Y17783D01*
X62400Y17769D01*
X62404Y17753D01*
X62407Y17735D01*
X62410Y17715D01*
X62413Y17695D01*
X62416Y17673D01*
X62418Y17649D01*
X62419Y17624D01*
X62419Y17598D01*
Y17584D01*
X62419Y17579D01*
Y17571D01*
X62418Y17564D01*
X62416Y17547D01*
X62415Y17527D01*
X62412Y17505D01*
X62408Y17481D01*
X62402Y17456D01*
X62396Y17430D01*
X62389Y17404D01*
X62379Y17378D01*
X62368Y17352D01*
X62356Y17327D01*
X62341Y17303D01*
X62324Y17281D01*
X62324Y17279D01*
X62320Y17276D01*
X62314Y17271D01*
X62306Y17264D01*
X62297Y17255D01*
X62284Y17245D01*
X62270Y17235D01*
X62254Y17224D01*
X62236Y17212D01*
X62215Y17201D01*
X62192Y17190D01*
X62168Y17180D01*
X62140Y17170D01*
X62111Y17162D01*
X62080Y17155D01*
X62047Y17150D01*
X62026Y17363D01*
X62028D01*
X62031Y17364D01*
X62036Y17366D01*
X62043Y17367D01*
X62053Y17370D01*
X62063Y17373D01*
X62074Y17376D01*
X62086Y17380D01*
X62112Y17391D01*
X62125Y17397D01*
X62138Y17404D01*
X62151Y17412D01*
X62163Y17421D01*
X62174Y17431D01*
X62184Y17441D01*
X62185Y17442D01*
X62186Y17444D01*
X62189Y17447D01*
X62192Y17452D01*
X62196Y17458D01*
X62200Y17466D01*
X62204Y17473D01*
X62209Y17484D01*
X62214Y17494D01*
X62219Y17506D01*
X62222Y17519D01*
X62226Y17533D01*
X62230Y17549D01*
X62232Y17565D01*
X62233Y17582D01*
X62234Y17601D01*
Y17611D01*
X62233Y17618D01*
X62233Y17626D01*
X62232Y17637D01*
X62230Y17648D01*
X62229Y17660D01*
X62223Y17686D01*
X62219Y17699D01*
X62215Y17713D01*
X62210Y17725D01*
X62204Y17738D01*
X62197Y17750D01*
X62189Y17760D01*
X62189Y17761D01*
X62187Y17762D01*
X62185Y17765D01*
X62182Y17768D01*
X62177Y17772D01*
X62172Y17777D01*
X62166Y17782D01*
X62160Y17787D01*
X62144Y17797D01*
X62127Y17805D01*
X62116Y17809D01*
X62107Y17812D01*
X62096Y17813D01*
X62085Y17814D01*
X62084D01*
X62084D01*
X62079D01*
X62072Y17813D01*
X62062Y17811D01*
X62052Y17809D01*
X62041Y17805D01*
X62030Y17799D01*
X62020Y17791D01*
X62018Y17790D01*
X62015Y17787D01*
X62011Y17781D01*
X62003Y17773D01*
X61996Y17762D01*
X61988Y17748D01*
X61980Y17732D01*
X61976Y17722D01*
X61972Y17712D01*
Y17711D01*
X61971Y17710D01*
X61971Y17707D01*
X61970Y17704D01*
X61968Y17699D01*
X61966Y17692D01*
X61963Y17684D01*
X61961Y17676D01*
X61958Y17665D01*
X61955Y17652D01*
X61951Y17638D01*
X61946Y17622D01*
X61941Y17604D01*
X61937Y17583D01*
X61931Y17560D01*
X61925Y17536D01*
Y17535D01*
X61924Y17534D01*
Y17531D01*
X61923Y17528D01*
X61922Y17524D01*
X61920Y17520D01*
X61917Y17508D01*
X61913Y17493D01*
X61908Y17476D01*
X61901Y17458D01*
X61895Y17440D01*
X61887Y17419D01*
X61879Y17399D01*
X61871Y17378D01*
X61861Y17358D01*
X61851Y17338D01*
X61840Y17320D01*
X61829Y17304D01*
X61817Y17289D01*
X61817Y17288D01*
X61814Y17285D01*
X61808Y17279D01*
X61802Y17273D01*
X61793Y17266D01*
X61782Y17258D01*
X61770Y17248D01*
X61756Y17239D01*
X61741Y17230D01*
X61725Y17221D01*
X61707Y17212D01*
X61688Y17205D01*
X61668Y17199D01*
X61646Y17193D01*
X61623Y17190D01*
X61599Y17189D01*
X61598D01*
X61595D01*
X61591D01*
X61585Y17190D01*
X61578Y17191D01*
X61569Y17192D01*
X61559Y17193D01*
X61548Y17195D01*
X61537Y17198D01*
X61525Y17200D01*
X61512Y17204D01*
X61499Y17209D01*
X61485Y17214D01*
X61471Y17221D01*
X61457Y17228D01*
X61444Y17236D01*
X61443Y17236D01*
X61441Y17238D01*
X61437Y17240D01*
X61432Y17244D01*
X61426Y17249D01*
X61419Y17255D01*
X61412Y17262D01*
X61403Y17270D01*
X61394Y17279D01*
X61385Y17290D01*
X61376Y17301D01*
X61367Y17312D01*
X61358Y17326D01*
X61350Y17340D01*
X61341Y17355D01*
X61334Y17371D01*
X61333Y17372D01*
X61332Y17375D01*
X61330Y17381D01*
X61328Y17387D01*
X61325Y17396D01*
X61321Y17406D01*
X61318Y17418D01*
X61314Y17431D01*
X61311Y17446D01*
X61307Y17462D01*
X61304Y17480D01*
X61302Y17498D01*
X61299Y17519D01*
X61297Y17540D01*
X61296Y17562D01*
X61296Y17585D01*
Y17599D01*
X61296Y17604D01*
Y17611D01*
X61297Y17619D01*
X61298Y17636D01*
X61300Y17655D01*
X61303Y17677D01*
X61307Y17700D01*
X61311Y17725D01*
X61318Y17750D01*
X61325Y17776D01*
X61333Y17801D01*
X61344Y17826D01*
X61356Y17850D01*
X61370Y17872D01*
X61386Y17892D01*
X61387Y17894D01*
X61390Y17897D01*
X61395Y17902D01*
X61402Y17909D01*
X61411Y17917D01*
X61422Y17925D01*
X61434Y17935D01*
X61449Y17945D01*
X61465Y17955D01*
X61483Y17965D01*
X61503Y17974D01*
X61524Y17982D01*
X61547Y17990D01*
X61571Y17995D01*
X61597Y17999D01*
X61624Y18002D01*
X61634Y17783D01*
X61633D01*
X61630Y17782D01*
X61626Y17781D01*
X61620Y17779D01*
X61613Y17778D01*
X61606Y17776D01*
X61597Y17773D01*
X61588Y17770D01*
X61568Y17761D01*
X61548Y17751D01*
X61529Y17738D01*
X61521Y17731D01*
X61514Y17722D01*
X61513Y17721D01*
X61512Y17720D01*
X61511Y17717D01*
X61508Y17714D01*
X61505Y17709D01*
X61502Y17703D01*
X61499Y17695D01*
X61495Y17688D01*
X61492Y17678D01*
X61489Y17668D01*
X61485Y17656D01*
X61482Y17644D01*
X61480Y17630D01*
X61478Y17616D01*
X61477Y17600D01*
Y17574D01*
X61478Y17568D01*
X61478Y17560D01*
X61479Y17550D01*
X61480Y17540D01*
X61482Y17528D01*
X61486Y17505D01*
X61493Y17480D01*
X61498Y17467D01*
X61504Y17455D01*
X61510Y17444D01*
X61517Y17433D01*
X61518Y17432D01*
X61522Y17428D01*
X61527Y17422D01*
X61535Y17416D01*
X61544Y17410D01*
X61555Y17404D01*
X61569Y17400D01*
X61576Y17400D01*
X61584Y17399D01*
X61584D01*
X61585D01*
X61590Y17400D01*
X61597Y17400D01*
X61606Y17403D01*
X61617Y17407D01*
X61628Y17412D01*
X61639Y17420D01*
X61650Y17431D01*
Y17432D01*
X61651Y17433D01*
X61653Y17436D01*
X61656Y17440D01*
X61659Y17446D01*
X61663Y17453D01*
X61667Y17462D01*
X61671Y17472D01*
X61677Y17484D01*
X61682Y17498D01*
X61689Y17515D01*
X61695Y17534D01*
X61702Y17555D01*
X61708Y17578D01*
X61715Y17604D01*
X61722Y17633D01*
Y17633D01*
X61723Y17634D01*
Y17637D01*
X61724Y17640D01*
X61726Y17648D01*
X61729Y17659D01*
X61733Y17672D01*
X61737Y17688D01*
X61741Y17704D01*
X61746Y17722D01*
X61752Y17741D01*
X61758Y17761D01*
X61771Y17800D01*
X61778Y17819D01*
X61786Y17837D01*
X61793Y17854D01*
X61801Y17869D01*
X61802Y17870D01*
X61803Y17872D01*
X61805Y17876D01*
X61808Y17881D01*
X61813Y17888D01*
X61817Y17896D01*
X61823Y17903D01*
X61830Y17913D01*
X61837Y17922D01*
X61846Y17932D01*
X61854Y17942D01*
X61865Y17952D01*
X61887Y17972D01*
X61899Y17980D01*
X61912Y17989D01*
X61912Y17990D01*
X61915Y17991D01*
X61919Y17993D01*
X61924Y17996D01*
X61931Y17999D01*
X61939Y18003D01*
X61949Y18007D01*
X61960Y18011D01*
X61971Y18015D01*
X61985Y18019D01*
X61999Y18023D01*
X62014Y18026D01*
X62030Y18029D01*
X62047Y18031D01*
X62065Y18032D01*
X62084Y18033D01*
X62085D01*
X62088D01*
X62094D01*
X62100Y18032D01*
D02*
G37*
%LPC*%
G36*
X63339Y22643D02*
X63305D01*
X63304D01*
X63303D01*
X63300D01*
X63296D01*
X63292D01*
X63287D01*
X63274D01*
X63259Y22642D01*
X63241D01*
X63222Y22642D01*
X63201Y22641D01*
X63179Y22640D01*
X63157Y22639D01*
X63135Y22637D01*
X63114Y22635D01*
X63094Y22633D01*
X63074Y22630D01*
X63058Y22627D01*
X63043Y22624D01*
X63042D01*
X63040Y22623D01*
X63036Y22621D01*
X63031Y22620D01*
X63025Y22618D01*
X63019Y22616D01*
X63004Y22610D01*
X62988Y22603D01*
X62972Y22595D01*
X62958Y22585D01*
X62952Y22580D01*
X62947Y22574D01*
X62946Y22573D01*
X62943Y22569D01*
X62939Y22563D01*
X62934Y22555D01*
X62931Y22545D01*
X62927Y22534D01*
X62923Y22521D01*
X62923Y22507D01*
Y22501D01*
X62924Y22494D01*
X62926Y22485D01*
X62929Y22474D01*
X62933Y22463D01*
X62939Y22452D01*
X62947Y22440D01*
X62948Y22438D01*
X62952Y22435D01*
X62958Y22430D01*
X62967Y22423D01*
X62978Y22416D01*
X62985Y22412D01*
X62993Y22408D01*
X63002Y22404D01*
X63012Y22401D01*
X63022Y22397D01*
X63033Y22394D01*
X63034D01*
X63037Y22393D01*
X63042Y22392D01*
X63049Y22391D01*
X63058Y22389D01*
X63069Y22387D01*
X63082Y22385D01*
X63098Y22383D01*
X63115Y22381D01*
X63135Y22380D01*
X63157Y22377D01*
X63182Y22376D01*
X63209Y22375D01*
X63238Y22373D01*
X63270Y22372D01*
X63305D01*
X63306D01*
X63307D01*
X63310D01*
X63314D01*
X63317D01*
X63323D01*
X63336D01*
X63351Y22373D01*
X63369D01*
X63389Y22374D01*
X63409Y22375D01*
X63431Y22376D01*
X63453Y22377D01*
X63475Y22379D01*
X63496Y22380D01*
X63517Y22383D01*
X63536Y22385D01*
X63553Y22388D01*
X63568Y22391D01*
X63569D01*
X63571Y22392D01*
X63575Y22394D01*
X63580Y22395D01*
X63585Y22397D01*
X63591Y22399D01*
X63606Y22405D01*
X63622Y22412D01*
X63638Y22420D01*
X63652Y22430D01*
X63658Y22434D01*
X63663Y22440D01*
X63664Y22442D01*
X63667Y22445D01*
X63670Y22452D01*
X63675Y22460D01*
X63678Y22470D01*
X63682Y22481D01*
X63686Y22494D01*
X63686Y22507D01*
Y22509D01*
X63686Y22514D01*
X63685Y22521D01*
X63683Y22530D01*
X63681Y22540D01*
X63676Y22552D01*
X63671Y22563D01*
X63663Y22575D01*
X63661Y22577D01*
X63658Y22580D01*
X63652Y22585D01*
X63643Y22592D01*
X63631Y22599D01*
X63624Y22603D01*
X63616Y22607D01*
X63607Y22611D01*
X63598Y22614D01*
X63587Y22618D01*
X63576Y22621D01*
X63576D01*
X63573Y22622D01*
X63568Y22624D01*
X63561Y22624D01*
X63552Y22627D01*
X63541Y22628D01*
X63528Y22630D01*
X63512Y22632D01*
X63495Y22635D01*
X63475Y22636D01*
X63452Y22639D01*
X63428Y22640D01*
X63401Y22641D01*
X63372Y22642D01*
X63339Y22643D01*
D02*
G37*
G36*
X61899Y28441D02*
X61865D01*
X61864D01*
X61862D01*
X61860D01*
X61856D01*
X61852D01*
X61847D01*
X61834D01*
X61818Y28440D01*
X61800D01*
X61781Y28439D01*
X61760Y28439D01*
X61739Y28438D01*
X61717Y28436D01*
X61695Y28435D01*
X61674Y28432D01*
X61653Y28431D01*
X61634Y28428D01*
X61617Y28425D01*
X61602Y28421D01*
X61602D01*
X61599Y28421D01*
X61595Y28419D01*
X61591Y28418D01*
X61585Y28416D01*
X61579Y28414D01*
X61564Y28408D01*
X61547Y28401D01*
X61532Y28392D01*
X61518Y28383D01*
X61511Y28377D01*
X61507Y28372D01*
X61506Y28370D01*
X61503Y28367D01*
X61499Y28361D01*
X61494Y28353D01*
X61490Y28343D01*
X61486Y28332D01*
X61483Y28319D01*
X61482Y28305D01*
Y28299D01*
X61484Y28292D01*
X61485Y28282D01*
X61489Y28272D01*
X61493Y28261D01*
X61499Y28249D01*
X61507Y28238D01*
X61507Y28236D01*
X61511Y28233D01*
X61518Y28228D01*
X61526Y28220D01*
X61538Y28213D01*
X61545Y28209D01*
X61553Y28206D01*
X61562Y28202D01*
X61572Y28198D01*
X61582Y28195D01*
X61593Y28191D01*
X61594D01*
X61597Y28191D01*
X61602Y28190D01*
X61609Y28188D01*
X61617Y28187D01*
X61628Y28184D01*
X61642Y28183D01*
X61657Y28181D01*
X61675Y28179D01*
X61695Y28177D01*
X61717Y28175D01*
X61741Y28173D01*
X61769Y28173D01*
X61798Y28171D01*
X61830Y28170D01*
X61865D01*
X61865D01*
X61867D01*
X61869D01*
X61873D01*
X61877D01*
X61883D01*
X61896D01*
X61911Y28171D01*
X61929D01*
X61949Y28172D01*
X61969Y28173D01*
X61991Y28173D01*
X62013Y28175D01*
X62035Y28177D01*
X62056Y28178D01*
X62076Y28180D01*
X62095Y28183D01*
X62113Y28186D01*
X62127Y28189D01*
X62128D01*
X62131Y28190D01*
X62135Y28191D01*
X62139Y28193D01*
X62145Y28195D01*
X62151Y28197D01*
X62166Y28202D01*
X62182Y28209D01*
X62197Y28218D01*
X62211Y28228D01*
X62218Y28232D01*
X62222Y28238D01*
X62223Y28239D01*
X62226Y28243D01*
X62230Y28249D01*
X62234Y28257D01*
X62238Y28268D01*
X62242Y28279D01*
X62245Y28292D01*
X62246Y28305D01*
Y28307D01*
X62245Y28312D01*
X62244Y28319D01*
X62243Y28328D01*
X62241Y28338D01*
X62236Y28350D01*
X62230Y28361D01*
X62222Y28373D01*
X62221Y28374D01*
X62218Y28377D01*
X62211Y28383D01*
X62203Y28390D01*
X62190Y28397D01*
X62183Y28401D01*
X62175Y28405D01*
X62167Y28409D01*
X62157Y28412D01*
X62147Y28416D01*
X62136Y28419D01*
X62135D01*
X62132Y28420D01*
X62127Y28421D01*
X62120Y28422D01*
X62112Y28425D01*
X62101Y28426D01*
X62087Y28428D01*
X62072Y28430D01*
X62054Y28432D01*
X62035Y28434D01*
X62012Y28436D01*
X61988Y28438D01*
X61961Y28439D01*
X61931Y28440D01*
X61899Y28441D01*
D02*
G37*
G36*
Y27597D02*
X61865D01*
X61864D01*
X61862D01*
X61860D01*
X61856D01*
X61852D01*
X61847D01*
X61834D01*
X61818Y27596D01*
X61800D01*
X61781Y27596D01*
X61760Y27595D01*
X61739Y27594D01*
X61717Y27593D01*
X61695Y27591D01*
X61674Y27589D01*
X61653Y27587D01*
X61634Y27584D01*
X61617Y27581D01*
X61602Y27578D01*
X61602D01*
X61599Y27577D01*
X61595Y27575D01*
X61591Y27575D01*
X61585Y27572D01*
X61579Y27570D01*
X61564Y27564D01*
X61547Y27557D01*
X61532Y27549D01*
X61518Y27539D01*
X61511Y27534D01*
X61507Y27528D01*
X61506Y27527D01*
X61503Y27524D01*
X61499Y27517D01*
X61494Y27509D01*
X61490Y27499D01*
X61486Y27488D01*
X61483Y27475D01*
X61482Y27461D01*
Y27455D01*
X61484Y27448D01*
X61485Y27439D01*
X61489Y27429D01*
X61493Y27418D01*
X61499Y27406D01*
X61507Y27394D01*
X61507Y27392D01*
X61511Y27389D01*
X61518Y27384D01*
X61526Y27377D01*
X61538Y27370D01*
X61545Y27366D01*
X61553Y27362D01*
X61562Y27358D01*
X61572Y27355D01*
X61582Y27351D01*
X61593Y27348D01*
X61594D01*
X61597Y27347D01*
X61602Y27346D01*
X61609Y27345D01*
X61617Y27343D01*
X61628Y27341D01*
X61642Y27339D01*
X61657Y27337D01*
X61675Y27335D01*
X61695Y27334D01*
X61717Y27331D01*
X61741Y27330D01*
X61769Y27329D01*
X61798Y27327D01*
X61830Y27326D01*
X61865D01*
X61865D01*
X61867D01*
X61869D01*
X61873D01*
X61877D01*
X61883D01*
X61896D01*
X61911Y27327D01*
X61929D01*
X61949Y27328D01*
X61969Y27329D01*
X61991Y27330D01*
X62013Y27331D01*
X62035Y27333D01*
X62056Y27334D01*
X62076Y27337D01*
X62095Y27339D01*
X62113Y27342D01*
X62127Y27345D01*
X62128D01*
X62131Y27346D01*
X62135Y27348D01*
X62139Y27349D01*
X62145Y27351D01*
X62151Y27353D01*
X62166Y27359D01*
X62182Y27366D01*
X62197Y27374D01*
X62211Y27384D01*
X62218Y27389D01*
X62222Y27394D01*
X62223Y27396D01*
X62226Y27399D01*
X62230Y27406D01*
X62234Y27414D01*
X62238Y27424D01*
X62242Y27435D01*
X62245Y27448D01*
X62246Y27461D01*
Y27463D01*
X62245Y27468D01*
X62244Y27475D01*
X62243Y27484D01*
X62241Y27494D01*
X62236Y27506D01*
X62230Y27517D01*
X62222Y27529D01*
X62221Y27531D01*
X62218Y27534D01*
X62211Y27539D01*
X62203Y27546D01*
X62190Y27553D01*
X62183Y27557D01*
X62175Y27561D01*
X62167Y27565D01*
X62157Y27568D01*
X62147Y27572D01*
X62136Y27575D01*
X62135D01*
X62132Y27576D01*
X62127Y27578D01*
X62120Y27578D01*
X62112Y27581D01*
X62101Y27582D01*
X62087Y27584D01*
X62072Y27586D01*
X62054Y27589D01*
X62035Y27590D01*
X62012Y27593D01*
X61988Y27594D01*
X61961Y27595D01*
X61931Y27596D01*
X61899Y27597D01*
D02*
G37*
G36*
X61970Y26636D02*
X61567Y26485D01*
X61970Y26338D01*
Y26636D01*
D02*
G37*
G36*
X61940Y24250D02*
X61939D01*
X61936D01*
X61931Y24249D01*
X61925D01*
X61917Y24248D01*
X61909Y24247D01*
X61899Y24245D01*
X61889Y24243D01*
X61867Y24237D01*
X61844Y24229D01*
X61832Y24224D01*
X61822Y24218D01*
X61812Y24211D01*
X61803Y24203D01*
X61802Y24202D01*
X61800Y24200D01*
X61798Y24198D01*
X61795Y24195D01*
X61792Y24190D01*
X61788Y24185D01*
X61783Y24179D01*
X61778Y24172D01*
X61770Y24156D01*
X61762Y24138D01*
X61759Y24128D01*
X61757Y24117D01*
X61755Y24106D01*
X61755Y24094D01*
Y24088D01*
X61755Y24083D01*
X61756Y24077D01*
X61757Y24070D01*
X61759Y24063D01*
X61761Y24054D01*
X61767Y24037D01*
X61771Y24028D01*
X61776Y24018D01*
X61781Y24008D01*
X61788Y23999D01*
X61796Y23990D01*
X61805Y23981D01*
X61806Y23981D01*
X61807Y23980D01*
X61810Y23978D01*
X61814Y23974D01*
X61819Y23971D01*
X61825Y23967D01*
X61832Y23963D01*
X61840Y23959D01*
X61850Y23955D01*
X61860Y23951D01*
X61871Y23948D01*
X61883Y23944D01*
X61896Y23941D01*
X61909Y23939D01*
X61924Y23937D01*
X61940D01*
Y24250D01*
D02*
G37*
G36*
X62090Y21685D02*
X62077D01*
X62064D01*
X62022D01*
Y21684D01*
X62023Y21683D01*
X62024Y21681D01*
X62025Y21677D01*
X62026Y21673D01*
X62028Y21668D01*
X62029Y21661D01*
X62031Y21654D01*
X62033Y21645D01*
X62036Y21635D01*
X62039Y21625D01*
X62041Y21614D01*
X62044Y21601D01*
X62047Y21588D01*
X62051Y21573D01*
X62054Y21557D01*
Y21556D01*
X62055Y21553D01*
X62056Y21549D01*
X62058Y21543D01*
X62059Y21536D01*
X62062Y21528D01*
X62066Y21511D01*
X62072Y21492D01*
X62077Y21473D01*
X62081Y21464D01*
X62084Y21457D01*
X62087Y21449D01*
X62091Y21444D01*
Y21443D01*
X62092Y21442D01*
X62096Y21438D01*
X62102Y21431D01*
X62111Y21424D01*
X62121Y21417D01*
X62134Y21410D01*
X62149Y21406D01*
X62157Y21405D01*
X62164Y21404D01*
X62165D01*
X62166D01*
X62168D01*
X62171Y21405D01*
X62180Y21406D01*
X62190Y21408D01*
X62202Y21412D01*
X62215Y21417D01*
X62227Y21425D01*
X62240Y21436D01*
X62241Y21438D01*
X62244Y21442D01*
X62250Y21449D01*
X62255Y21459D01*
X62261Y21471D01*
X62266Y21485D01*
X62270Y21501D01*
X62271Y21519D01*
Y21525D01*
X62270Y21529D01*
Y21534D01*
X62269Y21540D01*
X62266Y21554D01*
X62262Y21570D01*
X62255Y21588D01*
X62246Y21607D01*
X62241Y21617D01*
X62234Y21627D01*
Y21628D01*
X62233Y21628D01*
X62230Y21633D01*
X62223Y21639D01*
X62215Y21647D01*
X62205Y21656D01*
X62193Y21664D01*
X62180Y21671D01*
X62166Y21676D01*
X62164Y21677D01*
X62160Y21678D01*
X62157Y21679D01*
X62153Y21679D01*
X62149Y21680D01*
X62143Y21681D01*
X62137Y21682D01*
X62129Y21683D01*
X62121D01*
X62112Y21683D01*
X62102Y21684D01*
X62090Y21685D01*
D02*
G37*
G36*
Y19155D02*
X62077D01*
X62064D01*
X62022D01*
Y19155D01*
X62023Y19154D01*
X62024Y19151D01*
X62025Y19147D01*
X62026Y19144D01*
X62028Y19138D01*
X62029Y19132D01*
X62031Y19124D01*
X62033Y19115D01*
X62036Y19106D01*
X62039Y19096D01*
X62041Y19084D01*
X62044Y19071D01*
X62047Y19058D01*
X62051Y19043D01*
X62054Y19027D01*
Y19027D01*
X62055Y19023D01*
X62056Y19020D01*
X62058Y19013D01*
X62059Y19006D01*
X62062Y18998D01*
X62066Y18981D01*
X62072Y18962D01*
X62077Y18943D01*
X62081Y18935D01*
X62084Y18927D01*
X62087Y18920D01*
X62091Y18914D01*
Y18914D01*
X62092Y18913D01*
X62096Y18908D01*
X62102Y18902D01*
X62111Y18895D01*
X62121Y18887D01*
X62134Y18881D01*
X62149Y18876D01*
X62157Y18875D01*
X62164Y18874D01*
X62165D01*
X62166D01*
X62168D01*
X62171Y18875D01*
X62180Y18876D01*
X62190Y18878D01*
X62202Y18882D01*
X62215Y18888D01*
X62227Y18896D01*
X62240Y18907D01*
X62241Y18908D01*
X62244Y18913D01*
X62250Y18920D01*
X62255Y18929D01*
X62261Y18941D01*
X62266Y18955D01*
X62270Y18972D01*
X62271Y18990D01*
Y18995D01*
X62270Y18999D01*
Y19005D01*
X62269Y19010D01*
X62266Y19024D01*
X62262Y19041D01*
X62255Y19059D01*
X62246Y19078D01*
X62241Y19088D01*
X62234Y19097D01*
Y19098D01*
X62233Y19099D01*
X62230Y19104D01*
X62223Y19110D01*
X62215Y19118D01*
X62205Y19126D01*
X62193Y19134D01*
X62180Y19141D01*
X62166Y19147D01*
X62164Y19147D01*
X62160Y19148D01*
X62157Y19149D01*
X62153Y19150D01*
X62149Y19151D01*
X62143Y19151D01*
X62137Y19152D01*
X62129Y19153D01*
X62121D01*
X62112Y19154D01*
X62102Y19155D01*
X62090Y19155D01*
D02*
G37*
%LPD*%
D40*
X47200Y15000D02*
D03*
X45800D02*
D03*
X19300Y28000D02*
D03*
X20700D02*
D03*
X9450Y21250D02*
D03*
X8050D02*
D03*
X10700Y15000D02*
D03*
X9300D02*
D03*
X63200Y11250D02*
D03*
X61800D02*
D03*
X59950Y11250D02*
D03*
X58550D02*
D03*
Y12500D02*
D03*
X59950D02*
D03*
X45200Y11250D02*
D03*
X43800D02*
D03*
Y12500D02*
D03*
X45200D02*
D03*
X30450Y11250D02*
D03*
X29050D02*
D03*
Y12500D02*
D03*
X30450D02*
D03*
X15050Y12250D02*
D03*
X16450Y12250D02*
D03*
X14550Y6750D02*
D03*
X15950D02*
D03*
X15050Y15000D02*
D03*
X16450D02*
D03*
Y13750D02*
D03*
X15050D02*
D03*
X56700Y13000D02*
D03*
X55300D02*
D03*
X41950D02*
D03*
X40550D02*
D03*
X27200D02*
D03*
X25800D02*
D03*
D41*
X9250Y19000D02*
D03*
Y18600D02*
D03*
Y18200D02*
D03*
Y17800D02*
D03*
Y17400D02*
D03*
Y17000D02*
D03*
X12250D02*
D03*
Y17400D02*
D03*
Y17800D02*
D03*
Y18200D02*
D03*
Y18600D02*
D03*
Y19000D02*
D03*
D42*
X11750Y19500D02*
D03*
X11350D02*
D03*
X10950D02*
D03*
X10550D02*
D03*
X10150D02*
D03*
X9750D02*
D03*
X11750Y16500D02*
D03*
X11350D02*
D03*
X10950D02*
D03*
X10550D02*
D03*
X10150D02*
D03*
X9750D02*
D03*
D43*
X15815Y28000D02*
D03*
X17185D02*
D03*
X13685D02*
D03*
X12315D02*
D03*
X37185Y16000D02*
D03*
X35815D02*
D03*
X24935Y21500D02*
D03*
X23565D02*
D03*
X48815Y14500D02*
D03*
X50185D02*
D03*
X37185D02*
D03*
X35815D02*
D03*
X3815Y26250D02*
D03*
X5185D02*
D03*
X16315Y18000D02*
D03*
X17685D02*
D03*
X63185Y12500D02*
D03*
X61815D02*
D03*
X16315Y16750D02*
D03*
X17685D02*
D03*
X49435Y25750D02*
D03*
X48065Y25750D02*
D03*
X17685Y19500D02*
D03*
X16315D02*
D03*
X48065Y27000D02*
D03*
X49435D02*
D03*
X58815Y28500D02*
D03*
X60185Y28500D02*
D03*
X56315Y28500D02*
D03*
X57685Y28500D02*
D03*
X5935Y21250D02*
D03*
X4565Y21250D02*
D03*
X24935Y22750D02*
D03*
X23565D02*
D03*
X30315Y20500D02*
D03*
X31685Y20500D02*
D03*
X23565Y20250D02*
D03*
X24935D02*
D03*
X39185Y20500D02*
D03*
X37815D02*
D03*
X33315D02*
D03*
X34685D02*
D03*
D44*
X43000Y6750D02*
D03*
X57750D02*
D03*
X28250D02*
D03*
D45*
X40675Y5250D02*
D03*
Y5750D02*
D03*
Y6250D02*
D03*
Y6750D02*
D03*
Y7250D02*
D03*
Y7750D02*
D03*
Y8250D02*
D03*
X45325D02*
D03*
Y7750D02*
D03*
Y7250D02*
D03*
Y6750D02*
D03*
Y6250D02*
D03*
Y5750D02*
D03*
Y5250D02*
D03*
X55425D02*
D03*
Y5750D02*
D03*
Y6250D02*
D03*
Y6750D02*
D03*
Y7250D02*
D03*
Y7750D02*
D03*
Y8250D02*
D03*
X60075D02*
D03*
Y7750D02*
D03*
Y7250D02*
D03*
Y6750D02*
D03*
Y6250D02*
D03*
Y5750D02*
D03*
Y5250D02*
D03*
X25925D02*
D03*
Y5750D02*
D03*
Y6250D02*
D03*
Y6750D02*
D03*
Y7250D02*
D03*
Y7750D02*
D03*
Y8250D02*
D03*
X30575D02*
D03*
Y7750D02*
D03*
Y7250D02*
D03*
Y6750D02*
D03*
Y6250D02*
D03*
Y5750D02*
D03*
Y5250D02*
D03*
D46*
X41500Y9075D02*
D03*
X42000D02*
D03*
X42500D02*
D03*
X43000D02*
D03*
X43500D02*
D03*
X44000D02*
D03*
X44500D02*
D03*
Y4425D02*
D03*
X44000D02*
D03*
X43500D02*
D03*
X43000D02*
D03*
X42500D02*
D03*
X42000D02*
D03*
X41500D02*
D03*
X56250Y9075D02*
D03*
X56750D02*
D03*
X57250D02*
D03*
X57750D02*
D03*
X58250D02*
D03*
X58750D02*
D03*
X59250D02*
D03*
Y4425D02*
D03*
X58750D02*
D03*
X58250D02*
D03*
X57750D02*
D03*
X57250D02*
D03*
X56750D02*
D03*
X56250D02*
D03*
X26750Y9075D02*
D03*
X27250D02*
D03*
X27750D02*
D03*
X28250D02*
D03*
X28750D02*
D03*
X29250D02*
D03*
X29750D02*
D03*
Y4425D02*
D03*
X29250D02*
D03*
X28750D02*
D03*
X28250D02*
D03*
X27750D02*
D03*
X27250D02*
D03*
X26750D02*
D03*
D47*
X4750Y14800D02*
D03*
Y16200D02*
D03*
X7250Y14800D02*
D03*
Y16200D02*
D03*
X7750Y18700D02*
D03*
Y17300D02*
D03*
X17250Y6950D02*
D03*
X17250Y5550D02*
D03*
X16000Y4200D02*
D03*
Y2800D02*
D03*
X4250Y5550D02*
D03*
X4250Y6950D02*
D03*
X6000Y14800D02*
D03*
Y16200D02*
D03*
X3000Y6950D02*
D03*
X3000Y5550D02*
D03*
X14750Y2800D02*
D03*
X14750Y4200D02*
D03*
X13500Y2800D02*
D03*
Y4200D02*
D03*
X60250Y2950D02*
D03*
Y1550D02*
D03*
X59000Y2950D02*
D03*
Y1550D02*
D03*
X61500Y3300D02*
D03*
Y4700D02*
D03*
X45500Y2950D02*
D03*
Y1550D02*
D03*
X44250Y2950D02*
D03*
Y1550D02*
D03*
X46750Y3300D02*
D03*
Y4700D02*
D03*
X30750Y2950D02*
D03*
Y1550D02*
D03*
X29500Y2950D02*
D03*
Y1550D02*
D03*
X32000Y3300D02*
D03*
Y4700D02*
D03*
X42750Y28200D02*
D03*
X42750Y26800D02*
D03*
X53750Y22550D02*
D03*
X53750Y23950D02*
D03*
X22250Y22700D02*
D03*
Y21300D02*
D03*
X51000Y22300D02*
D03*
Y23700D02*
D03*
D48*
X38675Y16750D02*
D03*
X41825D02*
D03*
X38675Y14750D02*
D03*
X41825D02*
D03*
D49*
X63500Y1500D02*
D03*
X2000Y1750D02*
D03*
X51500Y28500D02*
D03*
D50*
X7500Y27315D02*
D03*
Y28685D02*
D03*
Y24815D02*
D03*
Y26185D02*
D03*
X11000Y2815D02*
D03*
Y4185D02*
D03*
X42000Y20435D02*
D03*
Y19065D02*
D03*
X62500Y15435D02*
D03*
Y14065D02*
D03*
X9000Y24935D02*
D03*
X9000Y23565D02*
D03*
X17250Y4185D02*
D03*
Y2815D02*
D03*
X9750D02*
D03*
X9750Y4185D02*
D03*
X2500Y23065D02*
D03*
Y24435D02*
D03*
X60250Y27185D02*
D03*
X60250Y25815D02*
D03*
X14750Y19685D02*
D03*
Y18315D02*
D03*
X11000Y23565D02*
D03*
Y24935D02*
D03*
D51*
X12250Y4250D02*
D03*
Y2750D02*
D03*
D52*
X1750Y19330D02*
D03*
Y16790D02*
D03*
Y14250D02*
D03*
Y11710D02*
D03*
D53*
Y9170D02*
D03*
D54*
X49725Y24060D02*
D03*
X49075Y24060D02*
D03*
X48425Y24060D02*
D03*
X47775Y24060D02*
D03*
Y21440D02*
D03*
X48425Y21440D02*
D03*
X49075Y21440D02*
D03*
X49725Y21440D02*
D03*
D55*
X39250Y22290D02*
D03*
X38750D02*
D03*
X38250D02*
D03*
X37750D02*
D03*
X37250D02*
D03*
X36750Y22290D02*
D03*
X35750D02*
D03*
X35250Y22290D02*
D03*
X34750D02*
D03*
X34250D02*
D03*
X33750D02*
D03*
X33250D02*
D03*
X34000Y23640D02*
D03*
X34500D02*
D03*
X35000D02*
D03*
X35500D02*
D03*
X36000D02*
D03*
X36500D02*
D03*
X37000D02*
D03*
X37500D02*
D03*
X38000D02*
D03*
X38500D02*
D03*
D56*
X33150D02*
D03*
X39350D02*
D03*
D57*
X6200Y19940D02*
D03*
X4300D02*
D03*
X5250Y17560D02*
D03*
X9050Y26310D02*
D03*
X10950D02*
D03*
X10000Y28690D02*
D03*
X19750Y23190D02*
D03*
X20700Y20810D02*
D03*
X18800D02*
D03*
D58*
X9250Y9500D02*
D03*
D59*
X12000Y6125D02*
D03*
X11500Y6125D02*
D03*
X11000D02*
D03*
X10500D02*
D03*
X10000Y6125D02*
D03*
X9500Y6125D02*
D03*
X9000D02*
D03*
X8500Y6125D02*
D03*
X8000D02*
D03*
X7500D02*
D03*
X7000D02*
D03*
X6500Y6125D02*
D03*
Y12875D02*
D03*
X7000D02*
D03*
X7500D02*
D03*
X8000D02*
D03*
X8500D02*
D03*
X9000D02*
D03*
X9500D02*
D03*
X10000D02*
D03*
X10500D02*
D03*
X11000D02*
D03*
X11500D02*
D03*
X12000D02*
D03*
D60*
X5875Y6750D02*
D03*
Y7250D02*
D03*
X5875Y7750D02*
D03*
Y8250D02*
D03*
Y8750D02*
D03*
Y9250D02*
D03*
Y9750D02*
D03*
Y10250D02*
D03*
Y10750D02*
D03*
Y11250D02*
D03*
Y11750D02*
D03*
Y12250D02*
D03*
X12625D02*
D03*
Y11750D02*
D03*
Y11250D02*
D03*
Y10750D02*
D03*
Y10250D02*
D03*
Y9750D02*
D03*
Y9250D02*
D03*
Y8750D02*
D03*
Y8250D02*
D03*
Y7750D02*
D03*
Y7250D02*
D03*
Y6750D02*
D03*
D61*
X17200Y10600D02*
D03*
Y8400D02*
D03*
X15300Y8400D02*
D03*
X15300Y10600D02*
D03*
D62*
X57360Y2500D02*
D03*
X54640D02*
D03*
X57360Y11250D02*
D03*
X54640D02*
D03*
X42610Y2500D02*
D03*
X39890D02*
D03*
X42610Y11250D02*
D03*
X39890D02*
D03*
X27860Y2500D02*
D03*
X25140D02*
D03*
X27860Y11250D02*
D03*
X25140D02*
D03*
D63*
X44060Y28450D02*
D03*
Y26550D02*
D03*
X46440Y27500D02*
D03*
X58690Y25300D02*
D03*
X58690Y26250D02*
D03*
X58690Y27200D02*
D03*
X56310D02*
D03*
Y25300D02*
D03*
X28940Y20550D02*
D03*
X28940Y21500D02*
D03*
X28940Y22450D02*
D03*
X26560D02*
D03*
X26560Y21500D02*
D03*
X26560Y20550D02*
D03*
D64*
X55750Y18360D02*
D03*
Y15640D02*
D03*
X54500Y28110D02*
D03*
Y25390D02*
D03*
X44500Y20610D02*
D03*
Y17890D02*
D03*
X43750Y24860D02*
D03*
Y22140D02*
D03*
X46000Y24860D02*
D03*
Y22140D02*
D03*
D65*
X15000Y20850D02*
D03*
X14050Y23150D02*
D03*
X15950D02*
D03*
D66*
X6150Y23750D02*
D03*
X3850Y22800D02*
D03*
X3850Y24700D02*
D03*
D67*
X50750Y18000D02*
D03*
X46750Y18000D02*
D03*
D68*
X58250Y22500D02*
D03*
X55250D02*
D03*
D69*
X58750Y15100D02*
D03*
X58750Y18900D02*
D03*
D70*
X21310Y25900D02*
D03*
X18770D02*
D03*
X16230D02*
D03*
X13690D02*
D03*
D71*
X26000Y17250D02*
D03*
X23500D02*
D03*
X28500D02*
D03*
X25369Y25750D02*
D03*
X21750Y3250D02*
D03*
Y8250D02*
D03*
Y5750D02*
D03*
X36500D02*
D03*
Y8250D02*
D03*
Y3250D02*
D03*
X51250Y5750D02*
D03*
Y8250D02*
D03*
Y3250D02*
D03*
D72*
X21000Y17250D02*
D03*
X27869Y25750D02*
D03*
D73*
X21750Y10750D02*
D03*
X36500D02*
D03*
X51250D02*
D03*
D74*
X31930Y22750D02*
D03*
X40570D02*
D03*
D75*
X31930Y28110D02*
D03*
X40570D02*
D03*
D76*
X44100Y7850D02*
D03*
X44100Y6750D02*
D03*
X44100Y5650D02*
D03*
X43000Y7850D02*
D03*
Y6750D02*
D03*
Y5650D02*
D03*
X41900Y7850D02*
D03*
X41900Y6750D02*
D03*
X41900Y5650D02*
D03*
X11250Y7500D02*
D03*
X7250D02*
D03*
Y11500D02*
D03*
X11250D02*
D03*
X9250Y9500D02*
D03*
X58850Y7850D02*
D03*
Y6750D02*
D03*
Y5650D02*
D03*
X57750Y7850D02*
D03*
Y6750D02*
D03*
Y5650D02*
D03*
X56650Y7850D02*
D03*
Y6750D02*
D03*
Y5650D02*
D03*
X29350Y7850D02*
D03*
Y6750D02*
D03*
Y5650D02*
D03*
X28250Y7850D02*
D03*
Y6750D02*
D03*
Y5650D02*
D03*
X27150Y7850D02*
D03*
Y6750D02*
D03*
Y5650D02*
D03*
M02*
