M48
;Layer_Color=9474304
;FILE_FORMAT=4:3
METRIC,LZ
;TYPE=PLATED
T1F00S00C0.200
T3F00S00C1.000
T4F00S00C1.200
%
T01
X0003Y000475
X000425
X0005185Y000625
X000448Y0008202
Y0008829
X0004657Y00095
X000518Y0009114
X0003953Y0009728
X0004462Y0010493
X0004457Y0011519
X000385Y00135
X000475Y0013985
X0006
X000752Y0013998
X00085Y00136
X0008925Y0014083
X0010193Y0014078
X0011071Y0013534
X0011623Y001425
X0013Y001325
X001325Y001225
X001325Y001075
X0014Y00105
Y000775
X0013449Y0008265
X001325Y000675
X00135Y0005
X00145Y000575
X001595Y000555
X0016Y0002
X001475Y0002
X00135
X001225Y000195
X000975Y0002015
X000875Y000275
X0009Y00035
X00075Y0004
X00065Y000375
X0008Y000525
X00095
X00105Y0005
X0011Y00055
X0012Y00055
X001125Y00075
X000725
X000925Y00095
X000725Y00115
X001125
X001425Y001375
X001725
Y001225
X001975Y0012
X0018661Y0014204
X00235Y001175
X002425
Y001075
X0024875Y000825
Y000525
X002425Y0003
Y0002
X001925Y00035
X001875Y0004
X001725Y0002015
X00034Y00078
X000175Y00075
X002715Y000785
X002825
X002935
Y000675
Y000565
X002825
Y000675
X002715
Y000565
X00265Y00035
X002675Y00015
X002775Y0001
X003175Y00015
X0032Y00025
X0039Y0002
Y0003
X004125Y00035
X00415Y00015
X00425Y0001
X00465Y00015
X004675Y00025
X00441Y000565
X00441Y000675
X0043
Y000785
X00441Y000785
X0045325Y000875
X0044Y0009976
X004175Y001075
Y001175
X004275Y0013
Y001425
X004375Y00135
X0046Y00125
X004625Y001125
X0048065Y001425
X0049067Y0013469
X005375Y001175
Y001075
X005575Y001
X00565Y001075
Y001175
X00575Y0013
X00585Y00135
X006075Y00125
X0061Y001125
X005995Y001
X0058846Y0009863
X005885Y000785
Y000675
Y000565
X005775
Y000675
Y000785
X005665
Y000675
Y000565
X0054375Y000525
X005375Y0003
Y0002
X005625Y00015
X005725Y0001
X0056Y00035
X0054375Y000825
X0060075Y000875
X006275Y001
X006375
X00615Y00025
X006125Y00015
X004825Y000735
X00419Y000785
X00419Y000675
X00419Y000565
X0043Y000565
X0039625Y000525
Y000825
X004075Y0009728
X0039Y001075
Y001175
X0038773Y001285
X0032463Y0012463
X0032906Y001202
X003125Y00125
X003125Y001125
X003075Y00095
X0029346Y0009863
X0027Y00105
X002625Y001
X0027Y0012
X0028Y0013
X002975Y001325
X0031805Y0014457
X0035015Y00145
X0035Y001525
X0035015Y0016
X003475Y00215
X003575
X003675
X003625Y00245
X00355
X003575Y002525
X003675
X0038
X003875Y00245
X003975
X004225Y0025
X004325Y0024
X004425
X004425Y0023
X004325Y0023
X00455Y0024
X00465
X004525Y00265
X004525Y00285
X0047265Y0027
X0051Y00245
X0051Y00215
X005375Y002175
X0055Y00195
X00565
X0053075Y001835
X004825
X0048065Y001575
X0044873Y0015
X004275Y001715
X0042Y0018265
X0041Y001975
X0044
X0045
X0047Y002075
X0050985Y00145
X0055
X0056
X0057
X00625Y00165
X00575Y002625
Y002725
X0056315Y00265
X0055Y002625
X0054
Y002725
X0055
X003475Y002525
X003375Y00245
X003275
X00325Y00205
X0030315Y002175
X002775Y00215
X002725Y001975
X0027Y002325
X0026
X002425Y00195
X002275Y002025
X0019615Y002081
X0017985Y002081
X00185Y00195
X0018595Y0014854
X001725Y0015
X001425
X0012914Y0015434
X00125Y0015935
X0012914Y001701
X00115Y0015
X00085
X0008211Y0016532
X000675Y001756
X0006Y001725
X000425
X000525Y00185
X0005Y0019746
Y00205
X0007235Y002125
X000775Y00195
X0009653Y0020332
X001095Y00205
X0011623Y0020332
X001425Y00205
X001525Y0022
X0014865Y002315
X001325Y00235
X00125
X0011Y002275
X00075Y0024
X000385Y0023615
X00025Y002225
X000175Y0021
X001475Y0028
X0018235
T03
X002175Y000325
Y000575
Y000825
Y001075
X00365
Y000825
Y000575
Y000325
X005125
Y000575
Y000825
Y001075
X00285Y001725
X0026
X0027869Y002575
X0025369
X00235Y001725
X0021
T04
X001369Y00259
X001623
X001877
X002131
M30
