G04*
G04 #@! TF.GenerationSoftware,Altium Limited,Altium Designer,23.3.1 (30)*
G04*
G04 Layer_Physical_Order=2*
G04 Layer_Color=36540*
%FSLAX43Y43*%
%MOMM*%
G71*
G04*
G04 #@! TF.SameCoordinates,A4EA7D40-A082-4D09-80F0-C7F5A4317295*
G04*
G04*
G04 #@! TF.FilePolarity,Positive*
G04*
G01*
G75*
%ADD90C,1.800*%
%ADD91C,1.500*%
%ADD94O,1.100X2.100*%
%ADD95O,1.100X2.600*%
%ADD96C,0.500*%
G36*
X31213Y29490D02*
X31284Y29340D01*
X31258Y29309D01*
X31184Y29169D01*
X31138Y29018D01*
X31122Y28860D01*
Y28237D01*
X31930D01*
X32738D01*
Y28860D01*
X32722Y29018D01*
X32676Y29169D01*
X32602Y29309D01*
X32576Y29340D01*
X32647Y29490D01*
X39853D01*
X39924Y29340D01*
X39898Y29309D01*
X39824Y29169D01*
X39778Y29018D01*
X39762Y28860D01*
Y28237D01*
X40570D01*
X41378D01*
Y28860D01*
X41362Y29018D01*
X41316Y29169D01*
X41242Y29309D01*
X41216Y29340D01*
X41287Y29490D01*
X64490D01*
X64490Y510D01*
X510Y510D01*
Y29490D01*
X31213D01*
D02*
G37*
%LPC*%
G36*
X18285Y28377D02*
X18185D01*
X18089Y28351D01*
X18004Y28302D01*
X17933Y28231D01*
X17884Y28146D01*
X17858Y28050D01*
Y27950D01*
X17884Y27854D01*
X17933Y27769D01*
X18004Y27698D01*
X18089Y27649D01*
X18185Y27623D01*
X18285D01*
X18381Y27649D01*
X18466Y27698D01*
X18537Y27769D01*
X18586Y27854D01*
X18612Y27950D01*
Y28050D01*
X18586Y28146D01*
X18537Y28231D01*
X18466Y28302D01*
X18381Y28351D01*
X18285Y28377D01*
D02*
G37*
G36*
X14800D02*
X14700D01*
X14604Y28351D01*
X14519Y28302D01*
X14448Y28231D01*
X14399Y28146D01*
X14373Y28050D01*
Y27950D01*
X14399Y27854D01*
X14448Y27769D01*
X14519Y27698D01*
X14604Y27649D01*
X14700Y27623D01*
X14800D01*
X14896Y27649D01*
X14981Y27698D01*
X15052Y27769D01*
X15101Y27854D01*
X15127Y27950D01*
Y28050D01*
X15101Y28146D01*
X15052Y28231D01*
X14981Y28302D01*
X14896Y28351D01*
X14800Y28377D01*
D02*
G37*
G36*
X41378Y27983D02*
X40697D01*
Y26565D01*
X40728Y26568D01*
X40879Y26614D01*
X41019Y26688D01*
X41141Y26789D01*
X41242Y26911D01*
X41316Y27051D01*
X41362Y27202D01*
X41378Y27360D01*
Y27983D01*
D02*
G37*
G36*
X32738Y27983D02*
X32057D01*
Y26565D01*
X32088Y26568D01*
X32239Y26614D01*
X32379Y26688D01*
X32501Y26789D01*
X32602Y26911D01*
X32676Y27051D01*
X32722Y27202D01*
X32738Y27360D01*
Y27983D01*
D02*
G37*
G36*
X31803D02*
X31122D01*
Y27360D01*
X31138Y27202D01*
X31184Y27051D01*
X31258Y26911D01*
X31359Y26789D01*
X31481Y26688D01*
X31621Y26614D01*
X31772Y26568D01*
X31803Y26565D01*
Y27983D01*
D02*
G37*
G36*
X40443Y27983D02*
X39762D01*
Y27360D01*
X39778Y27202D01*
X39824Y27051D01*
X39898Y26911D01*
X39999Y26789D01*
X40121Y26688D01*
X40261Y26614D01*
X40412Y26568D01*
X40443Y26565D01*
Y27983D01*
D02*
G37*
G36*
X56365Y26877D02*
X56265D01*
X56169Y26851D01*
X56084Y26802D01*
X56013Y26731D01*
X55964Y26646D01*
X55938Y26550D01*
Y26450D01*
X55964Y26354D01*
X56013Y26269D01*
X56084Y26198D01*
X56169Y26149D01*
X56265Y26123D01*
X56365D01*
X56461Y26149D01*
X56546Y26198D01*
X56617Y26269D01*
X56666Y26354D01*
X56692Y26450D01*
Y26550D01*
X56666Y26646D01*
X56617Y26731D01*
X56546Y26802D01*
X56461Y26851D01*
X56365Y26877D01*
D02*
G37*
G36*
X45300D02*
X45200D01*
X45104Y26851D01*
X45019Y26802D01*
X44948Y26731D01*
X44899Y26646D01*
X44873Y26550D01*
Y26450D01*
X44899Y26354D01*
X44948Y26269D01*
X45019Y26198D01*
X45104Y26149D01*
X45200Y26123D01*
X45300D01*
X45396Y26149D01*
X45481Y26198D01*
X45552Y26269D01*
X45601Y26354D01*
X45627Y26450D01*
Y26550D01*
X45601Y26646D01*
X45552Y26731D01*
X45481Y26802D01*
X45396Y26851D01*
X45300Y26877D01*
D02*
G37*
G36*
X21437Y27048D02*
Y26027D01*
X22458D01*
X22436Y26170D01*
X22379Y26343D01*
X22297Y26505D01*
X22190Y26652D01*
X22062Y26780D01*
X21915Y26887D01*
X21753Y26969D01*
X21580Y27026D01*
X21437Y27048D01*
D02*
G37*
G36*
X21183D02*
X21040Y27026D01*
X20867Y26969D01*
X20705Y26887D01*
X20558Y26780D01*
X20430Y26652D01*
X20323Y26505D01*
X20241Y26343D01*
X20184Y26170D01*
X20162Y26027D01*
X21183D01*
Y27048D01*
D02*
G37*
G36*
X55050Y26627D02*
X54950D01*
X54854Y26601D01*
X54769Y26552D01*
X54698Y26481D01*
X54649Y26396D01*
X54623Y26300D01*
Y26200D01*
X54649Y26104D01*
X54698Y26019D01*
X54769Y25948D01*
X54854Y25899D01*
X54950Y25873D01*
X55050D01*
X55146Y25899D01*
X55231Y25948D01*
X55302Y26019D01*
X55351Y26104D01*
X55377Y26200D01*
Y26300D01*
X55351Y26396D01*
X55302Y26481D01*
X55231Y26552D01*
X55146Y26601D01*
X55050Y26627D01*
D02*
G37*
G36*
X54050D02*
X53950D01*
X53854Y26601D01*
X53769Y26552D01*
X53698Y26481D01*
X53649Y26396D01*
X53623Y26300D01*
Y26200D01*
X53649Y26104D01*
X53698Y26019D01*
X53769Y25948D01*
X53854Y25899D01*
X53950Y25873D01*
X54050D01*
X54146Y25899D01*
X54231Y25948D01*
X54302Y26019D01*
X54351Y26104D01*
X54377Y26200D01*
Y26300D01*
X54351Y26396D01*
X54302Y26481D01*
X54231Y26552D01*
X54146Y26601D01*
X54050Y26627D01*
D02*
G37*
G36*
X18871Y26927D02*
X18669D01*
X18470Y26888D01*
X18284Y26810D01*
X18115Y26698D01*
X17972Y26555D01*
X17860Y26386D01*
X17782Y26200D01*
X17743Y26001D01*
Y25799D01*
X17782Y25600D01*
X17860Y25414D01*
X17972Y25245D01*
X18115Y25102D01*
X18284Y24990D01*
X18470Y24912D01*
X18669Y24873D01*
X18871D01*
X19070Y24912D01*
X19256Y24990D01*
X19425Y25102D01*
X19568Y25245D01*
X19680Y25414D01*
X19758Y25600D01*
X19797Y25799D01*
Y26001D01*
X19758Y26200D01*
X19680Y26386D01*
X19568Y26555D01*
X19425Y26698D01*
X19256Y26810D01*
X19070Y26888D01*
X18871Y26927D01*
D02*
G37*
G36*
X16331D02*
X16129D01*
X15930Y26888D01*
X15744Y26810D01*
X15575Y26698D01*
X15432Y26555D01*
X15320Y26386D01*
X15242Y26200D01*
X15203Y26001D01*
Y25799D01*
X15242Y25600D01*
X15320Y25414D01*
X15432Y25245D01*
X15575Y25102D01*
X15744Y24990D01*
X15930Y24912D01*
X16129Y24873D01*
X16331D01*
X16530Y24912D01*
X16716Y24990D01*
X16885Y25102D01*
X17028Y25245D01*
X17140Y25414D01*
X17218Y25600D01*
X17257Y25799D01*
Y26001D01*
X17218Y26200D01*
X17140Y26386D01*
X17028Y26555D01*
X16885Y26698D01*
X16716Y26810D01*
X16530Y26888D01*
X16331Y26927D01*
D02*
G37*
G36*
X13791D02*
X13589D01*
X13390Y26888D01*
X13204Y26810D01*
X13035Y26698D01*
X12892Y26555D01*
X12780Y26386D01*
X12702Y26200D01*
X12663Y26001D01*
Y25799D01*
X12702Y25600D01*
X12780Y25414D01*
X12892Y25245D01*
X13035Y25102D01*
X13204Y24990D01*
X13390Y24912D01*
X13589Y24873D01*
X13791D01*
X13990Y24912D01*
X14176Y24990D01*
X14345Y25102D01*
X14488Y25245D01*
X14600Y25414D01*
X14678Y25600D01*
X14717Y25799D01*
Y26001D01*
X14678Y26200D01*
X14600Y26386D01*
X14488Y26555D01*
X14345Y26698D01*
X14176Y26810D01*
X13990Y26888D01*
X13791Y26927D01*
D02*
G37*
G36*
X38050Y25627D02*
X37950D01*
X37854Y25601D01*
X37769Y25552D01*
X37698Y25481D01*
X37649Y25396D01*
X37623Y25300D01*
Y25200D01*
X37649Y25104D01*
X37698Y25019D01*
X37769Y24948D01*
X37854Y24899D01*
X37950Y24873D01*
X38050D01*
X38146Y24899D01*
X38231Y24948D01*
X38302Y25019D01*
X38351Y25104D01*
X38377Y25200D01*
Y25300D01*
X38351Y25396D01*
X38302Y25481D01*
X38231Y25552D01*
X38146Y25601D01*
X38050Y25627D01*
D02*
G37*
G36*
X34800D02*
X34700D01*
X34604Y25601D01*
X34519Y25552D01*
X34448Y25481D01*
X34399Y25396D01*
X34373Y25300D01*
Y25200D01*
X34399Y25104D01*
X34448Y25019D01*
X34519Y24948D01*
X34604Y24899D01*
X34700Y24873D01*
X34800D01*
X34896Y24899D01*
X34981Y24948D01*
X35052Y25019D01*
X35101Y25104D01*
X35127Y25200D01*
Y25300D01*
X35101Y25396D01*
X35052Y25481D01*
X34981Y25552D01*
X34896Y25601D01*
X34800Y25627D01*
D02*
G37*
G36*
X25455Y26627D02*
X25283D01*
X25113Y26593D01*
X24954Y26527D01*
X24810Y26431D01*
X24688Y26309D01*
X24592Y26165D01*
X24526Y26006D01*
X24492Y25836D01*
Y25664D01*
X24526Y25494D01*
X24592Y25335D01*
X24688Y25191D01*
X24810Y25069D01*
X24954Y24973D01*
X25113Y24907D01*
X25283Y24873D01*
X25455D01*
X25625Y24907D01*
X25784Y24973D01*
X25928Y25069D01*
X26050Y25191D01*
X26146Y25335D01*
X26212Y25494D01*
X26246Y25664D01*
Y25836D01*
X26212Y26006D01*
X26146Y26165D01*
X26050Y26309D01*
X25928Y26431D01*
X25784Y26527D01*
X25625Y26593D01*
X25455Y26627D01*
D02*
G37*
G36*
X28469Y26629D02*
X27269D01*
X27197Y26620D01*
X27129Y26592D01*
X27071Y26548D01*
X27027Y26490D01*
X26999Y26422D01*
X26990Y26350D01*
Y25150D01*
X26999Y25078D01*
X27027Y25010D01*
X27071Y24952D01*
X27129Y24908D01*
X27197Y24880D01*
X27269Y24871D01*
X28469D01*
X28541Y24880D01*
X28609Y24908D01*
X28667Y24952D01*
X28711Y25010D01*
X28739Y25078D01*
X28748Y25150D01*
Y26350D01*
X28739Y26422D01*
X28711Y26490D01*
X28667Y26548D01*
X28609Y26592D01*
X28541Y26620D01*
X28469Y26629D01*
D02*
G37*
G36*
X36800Y25627D02*
X36700D01*
X36604Y25601D01*
X36519Y25552D01*
X36448Y25481D01*
X36399Y25396D01*
X36373Y25300D01*
Y25200D01*
X36399Y25104D01*
X36448Y25019D01*
X36462Y25004D01*
X36402Y24853D01*
X36398Y24852D01*
X36396Y24851D01*
X36353Y24863D01*
X36300Y24877D01*
X36200D01*
X36104Y24851D01*
X36098Y24853D01*
X36038Y25004D01*
X36052Y25019D01*
X36101Y25104D01*
X36127Y25200D01*
Y25300D01*
X36101Y25396D01*
X36052Y25481D01*
X35981Y25552D01*
X35896Y25601D01*
X35800Y25627D01*
X35700D01*
X35604Y25601D01*
X35519Y25552D01*
X35448Y25481D01*
X35399Y25396D01*
X35373Y25300D01*
Y25200D01*
X35399Y25104D01*
X35448Y25019D01*
X35448Y25012D01*
X35393Y24862D01*
X35354Y24851D01*
X35269Y24802D01*
X35198Y24731D01*
X35149Y24646D01*
X35123Y24550D01*
Y24450D01*
X35149Y24354D01*
X35198Y24269D01*
X35269Y24198D01*
X35354Y24149D01*
X35450Y24123D01*
X35550D01*
X35646Y24149D01*
X35731Y24198D01*
X35785Y24252D01*
X35875Y24261D01*
X35965Y24252D01*
X36019Y24198D01*
X36104Y24149D01*
X36200Y24123D01*
X36300D01*
X36396Y24149D01*
X36481Y24198D01*
X36552Y24269D01*
X36601Y24354D01*
X36627Y24450D01*
Y24550D01*
X36601Y24646D01*
X36552Y24731D01*
X36538Y24746D01*
X36598Y24897D01*
X36602Y24898D01*
X36604Y24899D01*
X36647Y24887D01*
X36700Y24873D01*
X36800D01*
X36896Y24899D01*
X36981Y24948D01*
X37052Y25019D01*
X37101Y25104D01*
X37127Y25200D01*
Y25300D01*
X37101Y25396D01*
X37052Y25481D01*
X36981Y25552D01*
X36896Y25601D01*
X36800Y25627D01*
D02*
G37*
G36*
X21183Y25773D02*
X20162D01*
X20184Y25630D01*
X20241Y25457D01*
X20323Y25295D01*
X20430Y25148D01*
X20558Y25020D01*
X20705Y24913D01*
X20867Y24831D01*
X21040Y24774D01*
X21183Y24752D01*
Y25773D01*
D02*
G37*
G36*
X22458D02*
X21437D01*
Y24752D01*
X21580Y24774D01*
X21753Y24831D01*
X21915Y24913D01*
X22062Y25020D01*
X22190Y25148D01*
X22297Y25295D01*
X22379Y25457D01*
X22436Y25630D01*
X22458Y25773D01*
D02*
G37*
G36*
X42300Y25377D02*
X42200D01*
X42104Y25351D01*
X42019Y25302D01*
X41948Y25231D01*
X41899Y25146D01*
X41873Y25050D01*
Y24950D01*
X41899Y24854D01*
X41948Y24769D01*
X42019Y24698D01*
X42104Y24649D01*
X42200Y24623D01*
X42300D01*
X42396Y24649D01*
X42481Y24698D01*
X42552Y24769D01*
X42601Y24854D01*
X42627Y24950D01*
Y25050D01*
X42601Y25146D01*
X42552Y25231D01*
X42481Y25302D01*
X42396Y25351D01*
X42300Y25377D01*
D02*
G37*
G36*
X51050Y24877D02*
X50950D01*
X50854Y24851D01*
X50769Y24802D01*
X50698Y24731D01*
X50649Y24646D01*
X50623Y24550D01*
Y24450D01*
X50649Y24354D01*
X50698Y24269D01*
X50769Y24198D01*
X50854Y24149D01*
X50950Y24123D01*
X51050D01*
X51146Y24149D01*
X51231Y24198D01*
X51302Y24269D01*
X51351Y24354D01*
X51377Y24450D01*
Y24550D01*
X51351Y24646D01*
X51302Y24731D01*
X51231Y24802D01*
X51146Y24851D01*
X51050Y24877D01*
D02*
G37*
G36*
X13300Y23877D02*
X13200D01*
X13104Y23851D01*
X13019Y23802D01*
X12965Y23748D01*
X12875Y23739D01*
X12785Y23748D01*
X12731Y23802D01*
X12646Y23851D01*
X12550Y23877D01*
X12450D01*
X12354Y23851D01*
X12269Y23802D01*
X12198Y23731D01*
X12149Y23646D01*
X12123Y23550D01*
Y23450D01*
X12149Y23354D01*
X12198Y23269D01*
X12269Y23198D01*
X12354Y23149D01*
X12450Y23123D01*
X12550D01*
X12646Y23149D01*
X12731Y23198D01*
X12785Y23252D01*
X12875Y23261D01*
X12965Y23252D01*
X13019Y23198D01*
X13104Y23149D01*
X13200Y23123D01*
X13300D01*
X13396Y23149D01*
X13481Y23198D01*
X13552Y23269D01*
X13601Y23354D01*
X13627Y23450D01*
Y23550D01*
X13601Y23646D01*
X13552Y23731D01*
X13481Y23802D01*
X13396Y23851D01*
X13300Y23877D01*
D02*
G37*
G36*
X40697Y24045D02*
Y22877D01*
X41378D01*
Y23250D01*
X41362Y23408D01*
X41316Y23559D01*
X41242Y23699D01*
X41141Y23821D01*
X41019Y23922D01*
X40879Y23996D01*
X40728Y24042D01*
X40697Y24045D01*
D02*
G37*
G36*
X40443D02*
X40412Y24042D01*
X40261Y23996D01*
X40121Y23922D01*
X39999Y23821D01*
X39898Y23699D01*
X39824Y23559D01*
X39778Y23408D01*
X39762Y23250D01*
Y22877D01*
X40443D01*
Y24045D01*
D02*
G37*
G36*
X32057D02*
Y22877D01*
X32738D01*
Y23250D01*
X32722Y23408D01*
X32676Y23559D01*
X32602Y23699D01*
X32501Y23821D01*
X32379Y23922D01*
X32239Y23996D01*
X32088Y24042D01*
X32057Y24045D01*
D02*
G37*
G36*
X31803D02*
X31772Y24042D01*
X31621Y23996D01*
X31481Y23922D01*
X31359Y23821D01*
X31258Y23699D01*
X31184Y23559D01*
X31138Y23408D01*
X31122Y23250D01*
Y22877D01*
X31803D01*
Y24045D01*
D02*
G37*
G36*
X27050Y23627D02*
X26950D01*
X26854Y23601D01*
X26769Y23552D01*
X26698Y23481D01*
X26649Y23396D01*
X26623Y23300D01*
Y23200D01*
X26649Y23104D01*
X26698Y23019D01*
X26769Y22948D01*
X26854Y22899D01*
X26950Y22873D01*
X27050D01*
X27146Y22899D01*
X27231Y22948D01*
X27302Y23019D01*
X27351Y23104D01*
X27377Y23200D01*
Y23300D01*
X27351Y23396D01*
X27302Y23481D01*
X27231Y23552D01*
X27146Y23601D01*
X27050Y23627D01*
D02*
G37*
G36*
X26050D02*
X25950D01*
X25854Y23601D01*
X25769Y23552D01*
X25698Y23481D01*
X25649Y23396D01*
X25623Y23300D01*
Y23200D01*
X25649Y23104D01*
X25698Y23019D01*
X25769Y22948D01*
X25854Y22899D01*
X25950Y22873D01*
X26050D01*
X26146Y22899D01*
X26231Y22948D01*
X26302Y23019D01*
X26351Y23104D01*
X26377Y23200D01*
Y23300D01*
X26351Y23396D01*
X26302Y23481D01*
X26231Y23552D01*
X26146Y23601D01*
X26050Y23627D01*
D02*
G37*
G36*
X43300Y23377D02*
X43200D01*
X43104Y23351D01*
X43019Y23302D01*
X42948Y23231D01*
X42899Y23146D01*
X42873Y23050D01*
Y22950D01*
X42899Y22854D01*
X42948Y22769D01*
X43019Y22698D01*
X43104Y22649D01*
X43200Y22623D01*
X43300D01*
X43396Y22649D01*
X43481Y22698D01*
X43552Y22769D01*
X43601Y22854D01*
X43627Y22950D01*
Y23050D01*
X43601Y23146D01*
X43552Y23231D01*
X43481Y23302D01*
X43396Y23351D01*
X43300Y23377D01*
D02*
G37*
G36*
X44300Y23377D02*
X44200D01*
X44104Y23351D01*
X44019Y23302D01*
X43948Y23231D01*
X43899Y23146D01*
X43873Y23050D01*
Y22950D01*
X43899Y22854D01*
X43948Y22769D01*
X44019Y22698D01*
X44104Y22649D01*
X44200Y22623D01*
X44300D01*
X44396Y22649D01*
X44481Y22698D01*
X44552Y22769D01*
X44601Y22854D01*
X44627Y22950D01*
Y23050D01*
X44601Y23146D01*
X44552Y23231D01*
X44481Y23302D01*
X44396Y23351D01*
X44300Y23377D01*
D02*
G37*
G36*
X11050Y23127D02*
X10950D01*
X10854Y23101D01*
X10769Y23052D01*
X10698Y22981D01*
X10649Y22896D01*
X10623Y22800D01*
Y22700D01*
X10649Y22604D01*
X10698Y22519D01*
X10769Y22448D01*
X10854Y22399D01*
X10950Y22373D01*
X11050D01*
X11146Y22399D01*
X11231Y22448D01*
X11302Y22519D01*
X11351Y22604D01*
X11377Y22700D01*
Y22800D01*
X11351Y22896D01*
X11302Y22981D01*
X11231Y23052D01*
X11146Y23101D01*
X11050Y23127D01*
D02*
G37*
G36*
X15300Y22377D02*
X15200D01*
X15104Y22351D01*
X15019Y22302D01*
X14948Y22231D01*
X14899Y22146D01*
X14873Y22050D01*
Y21950D01*
X14899Y21854D01*
X14948Y21769D01*
X15019Y21698D01*
X15104Y21649D01*
X15200Y21623D01*
X15300D01*
X15396Y21649D01*
X15481Y21698D01*
X15552Y21769D01*
X15601Y21854D01*
X15627Y21950D01*
Y22050D01*
X15601Y22146D01*
X15552Y22231D01*
X15481Y22302D01*
X15396Y22351D01*
X15300Y22377D01*
D02*
G37*
G36*
X41378Y22623D02*
X40697D01*
Y21455D01*
X40728Y21458D01*
X40879Y21504D01*
X41019Y21578D01*
X41141Y21679D01*
X41242Y21801D01*
X41316Y21941D01*
X41362Y22092D01*
X41378Y22250D01*
Y22623D01*
D02*
G37*
G36*
X31803Y22623D02*
X31122D01*
Y22250D01*
X31138Y22092D01*
X31184Y21941D01*
X31258Y21801D01*
X31359Y21679D01*
X31481Y21578D01*
X31621Y21504D01*
X31772Y21458D01*
X31803Y21455D01*
Y22623D01*
D02*
G37*
G36*
X32738D02*
X32057D01*
Y21455D01*
X32088Y21458D01*
X32239Y21504D01*
X32379Y21578D01*
X32501Y21679D01*
X32602Y21801D01*
X32676Y21941D01*
X32722Y22092D01*
X32738Y22250D01*
Y22623D01*
D02*
G37*
G36*
X40443Y22623D02*
X39762D01*
Y22250D01*
X39778Y22092D01*
X39824Y21941D01*
X39898Y21801D01*
X39999Y21679D01*
X40121Y21578D01*
X40261Y21504D01*
X40412Y21458D01*
X40443Y21455D01*
Y22623D01*
D02*
G37*
G36*
X30365Y22127D02*
X30265D01*
X30169Y22101D01*
X30084Y22052D01*
X30013Y21981D01*
X29964Y21896D01*
X29938Y21800D01*
Y21700D01*
X29964Y21604D01*
X30013Y21519D01*
X30084Y21448D01*
X30169Y21399D01*
X30265Y21373D01*
X30365D01*
X30461Y21399D01*
X30546Y21448D01*
X30617Y21519D01*
X30666Y21604D01*
X30692Y21700D01*
Y21800D01*
X30666Y21896D01*
X30617Y21981D01*
X30546Y22052D01*
X30461Y22101D01*
X30365Y22127D01*
D02*
G37*
G36*
X36800Y21877D02*
X36700D01*
X36604Y21851D01*
X36519Y21802D01*
X36448Y21731D01*
X36399Y21646D01*
X36373Y21550D01*
Y21450D01*
X36399Y21354D01*
X36448Y21269D01*
X36519Y21198D01*
X36604Y21149D01*
X36700Y21123D01*
X36800D01*
X36896Y21149D01*
X36981Y21198D01*
X37052Y21269D01*
X37101Y21354D01*
X37127Y21450D01*
Y21550D01*
X37101Y21646D01*
X37052Y21731D01*
X36981Y21802D01*
X36896Y21851D01*
X36800Y21877D01*
D02*
G37*
G36*
X35800D02*
X35700D01*
X35604Y21851D01*
X35519Y21802D01*
X35448Y21731D01*
X35399Y21646D01*
X35373Y21550D01*
Y21450D01*
X35399Y21354D01*
X35448Y21269D01*
X35519Y21198D01*
X35604Y21149D01*
X35700Y21123D01*
X35800D01*
X35896Y21149D01*
X35981Y21198D01*
X36052Y21269D01*
X36101Y21354D01*
X36127Y21450D01*
Y21550D01*
X36101Y21646D01*
X36052Y21731D01*
X35981Y21802D01*
X35896Y21851D01*
X35800Y21877D01*
D02*
G37*
G36*
X34800D02*
X34700D01*
X34604Y21851D01*
X34519Y21802D01*
X34448Y21731D01*
X34399Y21646D01*
X34373Y21550D01*
Y21450D01*
X34399Y21354D01*
X34448Y21269D01*
X34519Y21198D01*
X34604Y21149D01*
X34700Y21123D01*
X34800D01*
X34896Y21149D01*
X34981Y21198D01*
X35052Y21269D01*
X35101Y21354D01*
X35127Y21450D01*
Y21550D01*
X35101Y21646D01*
X35052Y21731D01*
X34981Y21802D01*
X34896Y21851D01*
X34800Y21877D01*
D02*
G37*
G36*
X32550Y20877D02*
X32450D01*
X32354Y20851D01*
X32269Y20802D01*
X32198Y20731D01*
X32149Y20646D01*
X32123Y20550D01*
Y20450D01*
X32149Y20354D01*
X32198Y20269D01*
X32269Y20198D01*
X32354Y20149D01*
X32450Y20123D01*
X32550D01*
X32646Y20149D01*
X32731Y20198D01*
X32802Y20269D01*
X32851Y20354D01*
X32877Y20450D01*
Y20550D01*
X32851Y20646D01*
X32802Y20731D01*
X32731Y20802D01*
X32646Y20851D01*
X32550Y20877D01*
D02*
G37*
G36*
X14300D02*
X14200D01*
X14104Y20851D01*
X14019Y20802D01*
X13948Y20731D01*
X13899Y20646D01*
X13873Y20550D01*
Y20450D01*
X13899Y20354D01*
X13948Y20269D01*
X14019Y20198D01*
X14104Y20149D01*
X14200Y20123D01*
X14300D01*
X14396Y20149D01*
X14481Y20198D01*
X14552Y20269D01*
X14601Y20354D01*
X14627Y20450D01*
Y20550D01*
X14601Y20646D01*
X14552Y20731D01*
X14481Y20802D01*
X14396Y20851D01*
X14300Y20877D01*
D02*
G37*
G36*
X11673Y20709D02*
X11573D01*
X11477Y20684D01*
X11391Y20634D01*
X11321Y20564D01*
X11272Y20478D01*
X11246Y20382D01*
Y20283D01*
X11272Y20187D01*
X11321Y20101D01*
X11391Y20031D01*
X11477Y19981D01*
X11573Y19955D01*
X11673D01*
X11768Y19981D01*
X11854Y20031D01*
X11925Y20101D01*
X11974Y20187D01*
X12000Y20283D01*
Y20382D01*
X11974Y20478D01*
X11925Y20564D01*
X11854Y20634D01*
X11768Y20684D01*
X11673Y20709D01*
D02*
G37*
G36*
X22800Y20627D02*
X22700D01*
X22604Y20601D01*
X22519Y20552D01*
X22448Y20481D01*
X22399Y20396D01*
X22373Y20300D01*
Y20200D01*
X22399Y20104D01*
X22448Y20019D01*
X22519Y19948D01*
X22604Y19899D01*
X22700Y19873D01*
X22800D01*
X22896Y19899D01*
X22981Y19948D01*
X23052Y20019D01*
X23101Y20104D01*
X23127Y20200D01*
Y20300D01*
X23101Y20396D01*
X23052Y20481D01*
X22981Y20552D01*
X22896Y20601D01*
X22800Y20627D01*
D02*
G37*
G36*
X41050Y20127D02*
X40950D01*
X40854Y20101D01*
X40769Y20052D01*
X40698Y19981D01*
X40649Y19896D01*
X40623Y19800D01*
Y19700D01*
X40649Y19604D01*
X40698Y19519D01*
X40769Y19448D01*
X40854Y19399D01*
X40950Y19373D01*
X41050D01*
X41146Y19399D01*
X41231Y19448D01*
X41302Y19519D01*
X41351Y19604D01*
X41377Y19700D01*
Y19800D01*
X41351Y19896D01*
X41302Y19981D01*
X41231Y20052D01*
X41146Y20101D01*
X41050Y20127D01*
D02*
G37*
G36*
X27300D02*
X27200D01*
X27104Y20101D01*
X27019Y20052D01*
X26948Y19981D01*
X26899Y19896D01*
X26873Y19800D01*
Y19700D01*
X26899Y19604D01*
X26948Y19519D01*
X27019Y19448D01*
X27104Y19399D01*
X27200Y19373D01*
X27300D01*
X27396Y19399D01*
X27481Y19448D01*
X27552Y19519D01*
X27601Y19604D01*
X27627Y19700D01*
Y19800D01*
X27601Y19896D01*
X27552Y19981D01*
X27481Y20052D01*
X27396Y20101D01*
X27300Y20127D01*
D02*
G37*
G36*
X5050Y20877D02*
X4950D01*
X4854Y20851D01*
X4769Y20802D01*
X4698Y20731D01*
X4649Y20646D01*
X4623Y20550D01*
Y20450D01*
X4649Y20354D01*
X4698Y20269D01*
X4754Y20213D01*
X4764Y20123D01*
X4754Y20033D01*
X4698Y19977D01*
X4649Y19892D01*
X4623Y19796D01*
Y19696D01*
X4649Y19600D01*
X4698Y19515D01*
X4769Y19444D01*
X4854Y19395D01*
X4950Y19369D01*
X5050D01*
X5146Y19395D01*
X5231Y19444D01*
X5302Y19515D01*
X5351Y19600D01*
X5377Y19696D01*
Y19796D01*
X5351Y19892D01*
X5302Y19977D01*
X5246Y20033D01*
X5236Y20123D01*
X5246Y20213D01*
X5302Y20269D01*
X5351Y20354D01*
X5377Y20450D01*
Y20550D01*
X5351Y20646D01*
X5302Y20731D01*
X5231Y20802D01*
X5146Y20851D01*
X5050Y20877D01*
D02*
G37*
G36*
X7800Y19877D02*
X7700D01*
X7604Y19851D01*
X7519Y19802D01*
X7448Y19731D01*
X7399Y19646D01*
X7373Y19550D01*
Y19450D01*
X7399Y19354D01*
X7448Y19269D01*
X7519Y19198D01*
X7604Y19149D01*
X7700Y19123D01*
X7800D01*
X7896Y19149D01*
X7981Y19198D01*
X8052Y19269D01*
X8101Y19354D01*
X8127Y19450D01*
Y19550D01*
X8101Y19646D01*
X8052Y19731D01*
X7981Y19802D01*
X7896Y19851D01*
X7800Y19877D01*
D02*
G37*
G36*
X5300Y18877D02*
X5200D01*
X5104Y18851D01*
X5019Y18802D01*
X4948Y18731D01*
X4899Y18646D01*
X4873Y18550D01*
Y18450D01*
X4899Y18354D01*
X4948Y18269D01*
X5019Y18198D01*
X5104Y18149D01*
X5200Y18123D01*
X5300D01*
X5396Y18149D01*
X5481Y18198D01*
X5552Y18269D01*
X5601Y18354D01*
X5627Y18450D01*
Y18550D01*
X5601Y18646D01*
X5552Y18731D01*
X5481Y18802D01*
X5396Y18851D01*
X5300Y18877D01*
D02*
G37*
G36*
X42050Y18642D02*
X41950D01*
X41854Y18616D01*
X41769Y18567D01*
X41698Y18496D01*
X41649Y18411D01*
X41623Y18315D01*
Y18215D01*
X41649Y18119D01*
X41698Y18034D01*
X41769Y17963D01*
X41854Y17914D01*
X41950Y17888D01*
X42050D01*
X42146Y17914D01*
X42231Y17963D01*
X42302Y18034D01*
X42351Y18119D01*
X42377Y18215D01*
Y18315D01*
X42351Y18411D01*
X42302Y18496D01*
X42231Y18567D01*
X42146Y18616D01*
X42050Y18642D01*
D02*
G37*
G36*
X28627Y18248D02*
Y17377D01*
X29498D01*
X29465Y17543D01*
X29390Y17726D01*
X29280Y17890D01*
X29140Y18030D01*
X28976Y18140D01*
X28793Y18215D01*
X28627Y18248D01*
D02*
G37*
G36*
X28373D02*
X28207Y18215D01*
X28024Y18140D01*
X27860Y18030D01*
X27720Y17890D01*
X27610Y17726D01*
X27535Y17543D01*
X27502Y17377D01*
X28373D01*
Y18248D01*
D02*
G37*
G36*
X11750Y19129D02*
X9750D01*
X9700Y19120D01*
X9658Y19092D01*
X9630Y19050D01*
X9621Y19000D01*
Y17000D01*
X9630Y16950D01*
X9658Y16908D01*
X9700Y16880D01*
X9750Y16871D01*
X11750D01*
X11800Y16880D01*
X11842Y16908D01*
X11870Y16950D01*
X11879Y17000D01*
Y19000D01*
X11870Y19050D01*
X11842Y19092D01*
X11800Y19120D01*
X11750Y19129D01*
D02*
G37*
G36*
X12963Y17387D02*
X12864D01*
X12768Y17362D01*
X12682Y17312D01*
X12612Y17242D01*
X12562Y17156D01*
X12537Y17060D01*
Y16961D01*
X12562Y16865D01*
X12612Y16779D01*
X12682Y16709D01*
X12768Y16659D01*
X12864Y16633D01*
X12963D01*
X13059Y16659D01*
X13145Y16709D01*
X13215Y16779D01*
X13265Y16865D01*
X13291Y16961D01*
Y17060D01*
X13265Y17156D01*
X13215Y17242D01*
X13145Y17312D01*
X13059Y17362D01*
X12963Y17387D01*
D02*
G37*
G36*
X26086Y18127D02*
X25914D01*
X25744Y18093D01*
X25585Y18027D01*
X25441Y17931D01*
X25319Y17809D01*
X25223Y17665D01*
X25157Y17506D01*
X25123Y17336D01*
Y17164D01*
X25157Y16994D01*
X25223Y16835D01*
X25319Y16691D01*
X25441Y16569D01*
X25585Y16473D01*
X25744Y16407D01*
X25914Y16373D01*
X26086D01*
X26256Y16407D01*
X26415Y16473D01*
X26559Y16569D01*
X26681Y16691D01*
X26777Y16835D01*
X26843Y16994D01*
X26877Y17164D01*
Y17336D01*
X26843Y17506D01*
X26777Y17665D01*
X26681Y17809D01*
X26559Y17931D01*
X26415Y18027D01*
X26256Y18093D01*
X26086Y18127D01*
D02*
G37*
G36*
X23586D02*
X23414D01*
X23244Y18093D01*
X23085Y18027D01*
X22941Y17931D01*
X22819Y17809D01*
X22723Y17665D01*
X22657Y17506D01*
X22623Y17336D01*
Y17164D01*
X22657Y16994D01*
X22723Y16835D01*
X22819Y16691D01*
X22941Y16569D01*
X23085Y16473D01*
X23244Y16407D01*
X23414Y16373D01*
X23586D01*
X23756Y16407D01*
X23915Y16473D01*
X24059Y16569D01*
X24181Y16691D01*
X24277Y16835D01*
X24343Y16994D01*
X24377Y17164D01*
Y17336D01*
X24343Y17506D01*
X24277Y17665D01*
X24181Y17809D01*
X24059Y17931D01*
X23915Y18027D01*
X23756Y18093D01*
X23586Y18127D01*
D02*
G37*
G36*
X21600Y18129D02*
X20400D01*
X20328Y18120D01*
X20260Y18092D01*
X20202Y18048D01*
X20158Y17990D01*
X20130Y17922D01*
X20121Y17850D01*
Y16650D01*
X20130Y16578D01*
X20158Y16510D01*
X20202Y16452D01*
X20260Y16408D01*
X20328Y16380D01*
X20400Y16371D01*
X21600D01*
X21672Y16380D01*
X21740Y16408D01*
X21798Y16452D01*
X21842Y16510D01*
X21870Y16578D01*
X21879Y16650D01*
Y17850D01*
X21870Y17922D01*
X21842Y17990D01*
X21798Y18048D01*
X21740Y18092D01*
X21672Y18120D01*
X21600Y18129D01*
D02*
G37*
G36*
X29498Y17123D02*
X28627D01*
Y16252D01*
X28793Y16285D01*
X28976Y16360D01*
X29140Y16470D01*
X29280Y16610D01*
X29390Y16774D01*
X29465Y16957D01*
X29498Y17123D01*
D02*
G37*
G36*
X28373D02*
X27502D01*
X27535Y16957D01*
X27610Y16774D01*
X27720Y16610D01*
X27860Y16470D01*
X28024Y16360D01*
X28207Y16285D01*
X28373Y16252D01*
Y17123D01*
D02*
G37*
G36*
X62550Y16877D02*
X62450D01*
X62354Y16851D01*
X62269Y16802D01*
X62198Y16731D01*
X62149Y16646D01*
X62123Y16550D01*
Y16450D01*
X62149Y16354D01*
X62198Y16269D01*
X62269Y16198D01*
X62354Y16149D01*
X62450Y16123D01*
X62550D01*
X62646Y16149D01*
X62731Y16198D01*
X62802Y16269D01*
X62851Y16354D01*
X62877Y16450D01*
Y16550D01*
X62851Y16646D01*
X62802Y16731D01*
X62731Y16802D01*
X62646Y16851D01*
X62550Y16877D01*
D02*
G37*
G36*
X12550Y16312D02*
X12450D01*
X12354Y16286D01*
X12269Y16237D01*
X12198Y16166D01*
X12149Y16081D01*
X12123Y15985D01*
Y15885D01*
X12149Y15789D01*
X12198Y15704D01*
X12269Y15633D01*
X12354Y15584D01*
X12404Y15570D01*
X12537Y15484D01*
X12537Y15385D01*
X12562Y15289D01*
X12612Y15203D01*
X12682Y15133D01*
X12768Y15083D01*
X12864Y15057D01*
X12963D01*
X13059Y15083D01*
X13145Y15133D01*
X13215Y15203D01*
X13265Y15289D01*
X13291Y15385D01*
Y15484D01*
X13265Y15580D01*
X13215Y15666D01*
X13145Y15736D01*
X13059Y15786D01*
X13009Y15799D01*
X12877Y15885D01*
X12877Y15985D01*
X12851Y16081D01*
X12802Y16166D01*
X12731Y16237D01*
X12646Y16286D01*
X12550Y16312D01*
D02*
G37*
G36*
X14300Y15377D02*
X14200D01*
X14104Y15351D01*
X14019Y15302D01*
X13948Y15231D01*
X13899Y15146D01*
X13873Y15050D01*
Y14950D01*
X13899Y14854D01*
X13948Y14769D01*
X14019Y14698D01*
X14104Y14649D01*
X14200Y14623D01*
X14300D01*
X14396Y14649D01*
X14481Y14698D01*
X14552Y14769D01*
X14601Y14854D01*
X14627Y14950D01*
Y15050D01*
X14601Y15146D01*
X14552Y15231D01*
X14481Y15302D01*
X14396Y15351D01*
X14300Y15377D01*
D02*
G37*
G36*
X57050Y14877D02*
X56950D01*
X56854Y14851D01*
X56769Y14802D01*
X56698Y14731D01*
X56649Y14646D01*
X56623Y14550D01*
Y14450D01*
X56649Y14354D01*
X56698Y14269D01*
X56769Y14198D01*
X56854Y14149D01*
X56950Y14123D01*
X57050D01*
X57146Y14149D01*
X57231Y14198D01*
X57302Y14269D01*
X57351Y14354D01*
X57377Y14450D01*
Y14550D01*
X57351Y14646D01*
X57302Y14731D01*
X57231Y14802D01*
X57146Y14851D01*
X57050Y14877D01*
D02*
G37*
G36*
X56050D02*
X55950D01*
X55854Y14851D01*
X55769Y14802D01*
X55698Y14731D01*
X55649Y14646D01*
X55623Y14550D01*
Y14450D01*
X55649Y14354D01*
X55698Y14269D01*
X55769Y14198D01*
X55854Y14149D01*
X55950Y14123D01*
X56050D01*
X56146Y14149D01*
X56231Y14198D01*
X56302Y14269D01*
X56351Y14354D01*
X56377Y14450D01*
Y14550D01*
X56351Y14646D01*
X56302Y14731D01*
X56231Y14802D01*
X56146Y14851D01*
X56050Y14877D01*
D02*
G37*
G36*
X55050D02*
X54950D01*
X54854Y14851D01*
X54769Y14802D01*
X54698Y14731D01*
X54649Y14646D01*
X54623Y14550D01*
Y14450D01*
X54649Y14354D01*
X54698Y14269D01*
X54769Y14198D01*
X54854Y14149D01*
X54950Y14123D01*
X55050D01*
X55146Y14149D01*
X55231Y14198D01*
X55302Y14269D01*
X55351Y14354D01*
X55377Y14450D01*
Y14550D01*
X55351Y14646D01*
X55302Y14731D01*
X55231Y14802D01*
X55146Y14851D01*
X55050Y14877D01*
D02*
G37*
G36*
X51035D02*
X50935D01*
X50839Y14851D01*
X50754Y14802D01*
X50683Y14731D01*
X50634Y14646D01*
X50608Y14550D01*
Y14450D01*
X50634Y14354D01*
X50683Y14269D01*
X50754Y14198D01*
X50839Y14149D01*
X50935Y14123D01*
X51035D01*
X51131Y14149D01*
X51216Y14198D01*
X51287Y14269D01*
X51336Y14354D01*
X51362Y14450D01*
Y14550D01*
X51336Y14646D01*
X51287Y14731D01*
X51216Y14802D01*
X51131Y14851D01*
X51035Y14877D01*
D02*
G37*
G36*
X35065Y16377D02*
X34965D01*
X34869Y16351D01*
X34784Y16302D01*
X34713Y16231D01*
X34664Y16146D01*
X34638Y16050D01*
Y15950D01*
X34664Y15854D01*
X34713Y15769D01*
X34761Y15721D01*
X34770Y15582D01*
X34757Y15540D01*
X34698Y15481D01*
X34649Y15396D01*
X34623Y15300D01*
Y15200D01*
X34649Y15104D01*
X34698Y15019D01*
X34757Y14960D01*
X34770Y14918D01*
X34761Y14779D01*
X34713Y14731D01*
X34664Y14646D01*
X34638Y14550D01*
Y14450D01*
X34664Y14354D01*
X34713Y14269D01*
X34784Y14198D01*
X34869Y14149D01*
X34965Y14123D01*
X35065D01*
X35161Y14149D01*
X35246Y14198D01*
X35317Y14269D01*
X35366Y14354D01*
X35392Y14450D01*
Y14550D01*
X35366Y14646D01*
X35317Y14731D01*
X35258Y14790D01*
X35245Y14832D01*
X35254Y14971D01*
X35302Y15019D01*
X35351Y15104D01*
X35377Y15200D01*
Y15300D01*
X35351Y15396D01*
X35302Y15481D01*
X35254Y15529D01*
X35245Y15668D01*
X35258Y15710D01*
X35317Y15769D01*
X35366Y15854D01*
X35392Y15950D01*
Y16050D01*
X35366Y16146D01*
X35317Y16231D01*
X35246Y16302D01*
X35161Y16351D01*
X35065Y16377D01*
D02*
G37*
G36*
X31855Y14834D02*
X31756D01*
X31660Y14809D01*
X31574Y14759D01*
X31504Y14689D01*
X31454Y14603D01*
X31428Y14507D01*
Y14408D01*
X31454Y14312D01*
X31504Y14226D01*
X31574Y14156D01*
X31660Y14106D01*
X31756Y14080D01*
X31855D01*
X31951Y14106D01*
X32037Y14156D01*
X32107Y14226D01*
X32157Y14312D01*
X32182Y14408D01*
Y14507D01*
X32157Y14603D01*
X32107Y14689D01*
X32037Y14759D01*
X31951Y14809D01*
X31855Y14834D01*
D02*
G37*
G36*
X11550Y15377D02*
X11450D01*
X11354Y15351D01*
X11269Y15302D01*
X11198Y15231D01*
X11149Y15146D01*
X11123Y15050D01*
Y14950D01*
X11149Y14854D01*
X11198Y14769D01*
X11269Y14698D01*
X11311Y14674D01*
X11318Y14663D01*
X11343Y14543D01*
X11338Y14498D01*
X11321Y14481D01*
X11272Y14396D01*
X11246Y14300D01*
Y14200D01*
X11272Y14104D01*
X11318Y14025D01*
X11321Y14019D01*
X11320Y14017D01*
X11217Y13885D01*
X11217Y13885D01*
X11211Y13886D01*
X11201Y13889D01*
X11121Y13911D01*
X11022D01*
X10926Y13885D01*
X10840Y13835D01*
X10770Y13765D01*
X10720Y13679D01*
X10694Y13583D01*
Y13484D01*
X10720Y13388D01*
X10770Y13302D01*
X10840Y13232D01*
X10926Y13182D01*
X11022Y13157D01*
X11121D01*
X11217Y13182D01*
X11303Y13232D01*
X11373Y13302D01*
X11423Y13388D01*
X11448Y13484D01*
Y13583D01*
X11423Y13679D01*
X11377Y13759D01*
X11373Y13764D01*
X11374Y13766D01*
X11477Y13899D01*
X11477Y13899D01*
X11483Y13897D01*
X11494Y13894D01*
X11573Y13873D01*
X11673D01*
X11768Y13899D01*
X11854Y13948D01*
X11925Y14019D01*
X11974Y14104D01*
X12000Y14200D01*
Y14300D01*
X11974Y14396D01*
X11925Y14481D01*
X11854Y14552D01*
X11812Y14576D01*
X11805Y14587D01*
X11780Y14707D01*
X11785Y14752D01*
X11802Y14769D01*
X11851Y14854D01*
X11877Y14950D01*
Y15050D01*
X11851Y15146D01*
X11802Y15231D01*
X11731Y15302D01*
X11646Y15351D01*
X11550Y15377D01*
D02*
G37*
G36*
X48115Y14627D02*
X48015D01*
X47919Y14601D01*
X47834Y14552D01*
X47763Y14481D01*
X47714Y14396D01*
X47688Y14300D01*
Y14200D01*
X47714Y14104D01*
X47763Y14019D01*
X47834Y13948D01*
X47919Y13899D01*
X48015Y13873D01*
X48115D01*
X48211Y13899D01*
X48296Y13948D01*
X48367Y14019D01*
X48416Y14104D01*
X48442Y14200D01*
Y14300D01*
X48416Y14396D01*
X48367Y14481D01*
X48296Y14552D01*
X48211Y14601D01*
X48115Y14627D01*
D02*
G37*
G36*
X42800D02*
X42700D01*
X42604Y14601D01*
X42519Y14552D01*
X42448Y14481D01*
X42399Y14396D01*
X42373Y14300D01*
Y14200D01*
X42399Y14104D01*
X42448Y14019D01*
X42519Y13948D01*
X42604Y13899D01*
X42700Y13873D01*
X42800D01*
X42896Y13899D01*
X42981Y13948D01*
X43052Y14019D01*
X43101Y14104D01*
X43127Y14200D01*
Y14300D01*
X43101Y14396D01*
X43052Y14481D01*
X42981Y14552D01*
X42896Y14601D01*
X42800Y14627D01*
D02*
G37*
G36*
X18645Y15231D02*
X18546D01*
X18450Y15205D01*
X18364Y15155D01*
X18294Y15085D01*
X18244Y14999D01*
X18218Y14903D01*
Y14804D01*
X18244Y14708D01*
X18294Y14622D01*
X18364Y14552D01*
X18359Y14435D01*
X18310Y14349D01*
X18284Y14253D01*
Y14154D01*
X18310Y14058D01*
X18359Y13972D01*
X18429Y13902D01*
X18515Y13852D01*
X18611Y13827D01*
X18710D01*
X18806Y13852D01*
X18892Y13902D01*
X18963Y13972D01*
X19012Y14058D01*
X19038Y14154D01*
Y14253D01*
X19012Y14349D01*
X18963Y14435D01*
X18892Y14505D01*
X18897Y14622D01*
X18947Y14708D01*
X18972Y14804D01*
Y14903D01*
X18947Y14999D01*
X18897Y15085D01*
X18827Y15155D01*
X18741Y15205D01*
X18645Y15231D01*
D02*
G37*
G36*
X10242Y14455D02*
X10143D01*
X10047Y14429D01*
X9961Y14380D01*
X9891Y14309D01*
X9842Y14223D01*
X9816Y14128D01*
Y14028D01*
X9842Y13932D01*
X9891Y13846D01*
X9961Y13776D01*
X10047Y13727D01*
X10143Y13701D01*
X10242D01*
X10338Y13727D01*
X10424Y13776D01*
X10495Y13846D01*
X10544Y13932D01*
X10570Y14028D01*
Y14128D01*
X10544Y14223D01*
X10495Y14309D01*
X10424Y14380D01*
X10338Y14429D01*
X10242Y14455D01*
D02*
G37*
G36*
X7570Y14375D02*
X7470D01*
X7374Y14349D01*
X7288Y14299D01*
X7218Y14229D01*
X7169Y14143D01*
X7143Y14047D01*
Y13948D01*
X7169Y13852D01*
X7218Y13766D01*
X7288Y13696D01*
X7374Y13646D01*
X7470Y13621D01*
X7570D01*
X7665Y13646D01*
X7751Y13696D01*
X7822Y13766D01*
X7871Y13852D01*
X7897Y13948D01*
Y14047D01*
X7871Y14143D01*
X7822Y14229D01*
X7751Y14299D01*
X7665Y14349D01*
X7570Y14375D01*
D02*
G37*
G36*
X6050Y14362D02*
X5950D01*
X5854Y14336D01*
X5769Y14287D01*
X5698Y14216D01*
X5649Y14131D01*
X5623Y14035D01*
Y13935D01*
X5649Y13839D01*
X5698Y13754D01*
X5769Y13683D01*
X5854Y13634D01*
X5950Y13608D01*
X6050D01*
X6146Y13634D01*
X6231Y13683D01*
X6302Y13754D01*
X6351Y13839D01*
X6377Y13935D01*
Y14035D01*
X6351Y14131D01*
X6302Y14216D01*
X6231Y14287D01*
X6146Y14336D01*
X6050Y14362D01*
D02*
G37*
G36*
X4800D02*
X4700D01*
X4604Y14336D01*
X4519Y14287D01*
X4448Y14216D01*
X4399Y14131D01*
X4373Y14035D01*
Y13935D01*
X4399Y13839D01*
X4448Y13754D01*
X4519Y13683D01*
X4604Y13634D01*
X4700Y13608D01*
X4800D01*
X4896Y13634D01*
X4981Y13683D01*
X5052Y13754D01*
X5101Y13839D01*
X5127Y13935D01*
Y14035D01*
X5101Y14131D01*
X5052Y14216D01*
X4981Y14287D01*
X4896Y14336D01*
X4800Y14362D01*
D02*
G37*
G36*
X14300Y14127D02*
X14200D01*
X14104Y14101D01*
X14019Y14052D01*
X13948Y13981D01*
X13899Y13896D01*
X13873Y13800D01*
Y13700D01*
X13899Y13604D01*
X13948Y13519D01*
X14019Y13448D01*
X14104Y13399D01*
X14200Y13373D01*
X14300D01*
X14396Y13399D01*
X14481Y13448D01*
X14552Y13519D01*
X14601Y13604D01*
X14627Y13700D01*
Y13800D01*
X14601Y13896D01*
X14552Y13981D01*
X14481Y14052D01*
X14396Y14101D01*
X14300Y14127D01*
D02*
G37*
G36*
X8975Y14460D02*
X8875D01*
X8779Y14434D01*
X8693Y14384D01*
X8623Y14314D01*
X8574Y14228D01*
X8548Y14132D01*
Y14033D01*
X8411Y13966D01*
X8354Y13951D01*
X8269Y13902D01*
X8198Y13831D01*
X8149Y13745D01*
X8123Y13650D01*
Y13550D01*
X8149Y13454D01*
X8198Y13368D01*
X8269Y13298D01*
X8354Y13249D01*
X8450Y13223D01*
X8550D01*
X8646Y13249D01*
X8731Y13298D01*
X8802Y13368D01*
X8851Y13454D01*
X8877Y13550D01*
Y13650D01*
X9014Y13716D01*
X9070Y13731D01*
X9156Y13781D01*
X9227Y13851D01*
X9276Y13937D01*
X9302Y14033D01*
Y14132D01*
X9276Y14228D01*
X9227Y14314D01*
X9156Y14384D01*
X9070Y14434D01*
X8975Y14460D01*
D02*
G37*
G36*
X58550Y13877D02*
X58450D01*
X58354Y13851D01*
X58269Y13802D01*
X58198Y13731D01*
X58149Y13646D01*
X58123Y13550D01*
Y13450D01*
X58149Y13354D01*
X58198Y13269D01*
X58269Y13198D01*
X58354Y13149D01*
X58450Y13123D01*
X58550D01*
X58646Y13149D01*
X58731Y13198D01*
X58802Y13269D01*
X58851Y13354D01*
X58877Y13450D01*
Y13550D01*
X58851Y13646D01*
X58802Y13731D01*
X58731Y13802D01*
X58646Y13851D01*
X58550Y13877D01*
D02*
G37*
G36*
X43800D02*
X43700D01*
X43604Y13851D01*
X43519Y13802D01*
X43448Y13731D01*
X43399Y13646D01*
X43373Y13550D01*
Y13450D01*
X43399Y13354D01*
X43448Y13269D01*
X43519Y13198D01*
X43604Y13149D01*
X43700Y13123D01*
X43800D01*
X43896Y13149D01*
X43981Y13198D01*
X44052Y13269D01*
X44101Y13354D01*
X44127Y13450D01*
Y13550D01*
X44101Y13646D01*
X44052Y13731D01*
X43981Y13802D01*
X43896Y13851D01*
X43800Y13877D01*
D02*
G37*
G36*
X3900D02*
X3800D01*
X3704Y13851D01*
X3619Y13802D01*
X3548Y13731D01*
X3499Y13646D01*
X3473Y13550D01*
Y13450D01*
X3499Y13354D01*
X3548Y13269D01*
X3619Y13198D01*
X3704Y13149D01*
X3800Y13123D01*
X3900D01*
X3996Y13149D01*
X4081Y13198D01*
X4152Y13269D01*
X4201Y13354D01*
X4227Y13450D01*
Y13550D01*
X4201Y13646D01*
X4152Y13731D01*
X4081Y13802D01*
X3996Y13851D01*
X3900Y13877D01*
D02*
G37*
G36*
X49117Y13846D02*
X49017D01*
X48921Y13821D01*
X48836Y13771D01*
X48765Y13701D01*
X48716Y13615D01*
X48690Y13519D01*
Y13420D01*
X48716Y13324D01*
X48765Y13238D01*
X48836Y13168D01*
X48921Y13118D01*
X49017Y13092D01*
X49117D01*
X49213Y13118D01*
X49298Y13168D01*
X49369Y13238D01*
X49418Y13324D01*
X49444Y13420D01*
Y13519D01*
X49418Y13615D01*
X49369Y13701D01*
X49298Y13771D01*
X49213Y13821D01*
X49117Y13846D01*
D02*
G37*
G36*
X29800Y13627D02*
X29700D01*
X29604Y13601D01*
X29519Y13552D01*
X29448Y13481D01*
X29399Y13396D01*
X29373Y13300D01*
Y13200D01*
X29399Y13104D01*
X29448Y13019D01*
X29519Y12948D01*
X29604Y12899D01*
X29700Y12873D01*
X29800D01*
X29896Y12899D01*
X29981Y12948D01*
X30052Y13019D01*
X30101Y13104D01*
X30127Y13200D01*
Y13300D01*
X30101Y13396D01*
X30052Y13481D01*
X29981Y13552D01*
X29896Y13601D01*
X29800Y13627D01*
D02*
G37*
G36*
X13050D02*
X12950D01*
X12854Y13601D01*
X12769Y13552D01*
X12698Y13481D01*
X12649Y13396D01*
X12623Y13300D01*
Y13200D01*
X12649Y13104D01*
X12698Y13019D01*
X12769Y12948D01*
X12854Y12899D01*
X12950Y12873D01*
X13050D01*
X13146Y12899D01*
X13231Y12948D01*
X13302Y13019D01*
X13351Y13104D01*
X13377Y13200D01*
Y13300D01*
X13351Y13396D01*
X13302Y13481D01*
X13231Y13552D01*
X13146Y13601D01*
X13050Y13627D01*
D02*
G37*
G36*
X38823Y13227D02*
X38724D01*
X38628Y13201D01*
X38542Y13152D01*
X38472Y13081D01*
X38422Y12996D01*
X38396Y12900D01*
Y12800D01*
X38422Y12704D01*
X38472Y12619D01*
X38542Y12548D01*
X38628Y12499D01*
X38724Y12473D01*
X38823D01*
X38919Y12499D01*
X39005Y12548D01*
X39075Y12619D01*
X39125Y12704D01*
X39150Y12800D01*
Y12900D01*
X39125Y12996D01*
X39075Y13081D01*
X39005Y13152D01*
X38919Y13201D01*
X38823Y13227D01*
D02*
G37*
G36*
X24300Y12127D02*
X24200D01*
X24104Y12101D01*
X24019Y12052D01*
X23965Y11998D01*
X23875Y11989D01*
X23785Y11998D01*
X23731Y12052D01*
X23646Y12101D01*
X23550Y12127D01*
X23450D01*
X23354Y12101D01*
X23269Y12052D01*
X23198Y11981D01*
X23149Y11896D01*
X23123Y11800D01*
Y11700D01*
X23149Y11604D01*
X23198Y11519D01*
X23269Y11448D01*
X23354Y11399D01*
X23450Y11373D01*
X23550D01*
X23646Y11399D01*
X23731Y11448D01*
X23785Y11502D01*
X23875Y11511D01*
X23965Y11502D01*
X24019Y11448D01*
X24104Y11399D01*
X24200Y11373D01*
X24300D01*
X24396Y11399D01*
X24481Y11448D01*
X24552Y11519D01*
X24601Y11604D01*
X24627Y11700D01*
Y11800D01*
X24601Y11896D01*
X24552Y11981D01*
X24481Y12052D01*
X24396Y12101D01*
X24300Y12127D01*
D02*
G37*
G36*
X13300Y12627D02*
X13200D01*
X13104Y12601D01*
X13019Y12552D01*
X12948Y12481D01*
X12899Y12396D01*
X12873Y12300D01*
Y12200D01*
X12899Y12104D01*
X12948Y12019D01*
X13019Y11948D01*
X13104Y11899D01*
X13200Y11873D01*
X13300D01*
X13396Y11899D01*
X13481Y11948D01*
X13552Y12019D01*
X13601Y12104D01*
X13627Y12200D01*
Y12300D01*
X13601Y12396D01*
X13552Y12481D01*
X13481Y12552D01*
X13396Y12601D01*
X13300Y12627D01*
D02*
G37*
G36*
X32513Y12840D02*
X32413D01*
X32317Y12814D01*
X32231Y12765D01*
X32161Y12694D01*
X32112Y12609D01*
X32086Y12513D01*
Y12413D01*
X32112Y12318D01*
X32161Y12232D01*
X32231Y12161D01*
X32317Y12112D01*
X32413Y12086D01*
X32515Y12071D01*
X32529Y11970D01*
X32555Y11874D01*
X32605Y11788D01*
X32675Y11718D01*
X32761Y11668D01*
X32857Y11643D01*
X32956D01*
X33052Y11668D01*
X33138Y11718D01*
X33208Y11788D01*
X33258Y11874D01*
X33283Y11970D01*
Y12069D01*
X33258Y12165D01*
X33208Y12251D01*
X33138Y12321D01*
X33052Y12371D01*
X32956Y12397D01*
X32855Y12411D01*
X32840Y12513D01*
X32814Y12609D01*
X32765Y12694D01*
X32694Y12765D01*
X32608Y12814D01*
X32513Y12840D01*
D02*
G37*
G36*
X11377Y11988D02*
Y11627D01*
X11738D01*
X11720Y11695D01*
X11653Y11809D01*
X11559Y11903D01*
X11445Y11970D01*
X11377Y11988D01*
D02*
G37*
G36*
X11123D02*
X11055Y11970D01*
X10941Y11903D01*
X10847Y11809D01*
X10780Y11695D01*
X10762Y11627D01*
X11123D01*
Y11988D01*
D02*
G37*
G36*
X7377D02*
Y11627D01*
X7738D01*
X7720Y11695D01*
X7653Y11809D01*
X7559Y11903D01*
X7445Y11970D01*
X7377Y11988D01*
D02*
G37*
G36*
X7123D02*
X7055Y11970D01*
X6941Y11903D01*
X6847Y11809D01*
X6780Y11695D01*
X6762Y11627D01*
X7123D01*
Y11988D01*
D02*
G37*
G36*
X19800Y12377D02*
X19700D01*
X19604Y12351D01*
X19519Y12302D01*
X19448Y12231D01*
X19399Y12146D01*
X19373Y12050D01*
Y11950D01*
X19399Y11854D01*
X19448Y11769D01*
X19519Y11698D01*
X19604Y11649D01*
X19700Y11623D01*
X19800D01*
X19896Y11649D01*
X19981Y11698D01*
X20052Y11769D01*
X20101Y11854D01*
X20127Y11950D01*
Y12050D01*
X20101Y12146D01*
X20052Y12231D01*
X19981Y12302D01*
X19896Y12351D01*
X19800Y12377D01*
D02*
G37*
G36*
X53800Y12127D02*
X53700D01*
X53604Y12101D01*
X53519Y12052D01*
X53448Y11981D01*
X53399Y11896D01*
X53373Y11800D01*
Y11700D01*
X53399Y11604D01*
X53448Y11519D01*
X53519Y11448D01*
X53604Y11399D01*
X53700Y11373D01*
X53800D01*
X53896Y11399D01*
X53981Y11448D01*
X54052Y11519D01*
X54101Y11604D01*
X54127Y11700D01*
Y11800D01*
X54101Y11896D01*
X54052Y11981D01*
X53981Y12052D01*
X53896Y12101D01*
X53800Y12127D01*
D02*
G37*
G36*
X39050D02*
X38950D01*
X38854Y12101D01*
X38769Y12052D01*
X38698Y11981D01*
X38649Y11896D01*
X38623Y11800D01*
Y11700D01*
X38649Y11604D01*
X38698Y11519D01*
X38769Y11448D01*
X38854Y11399D01*
X38950Y11373D01*
X39050D01*
X39146Y11399D01*
X39231Y11448D01*
X39302Y11519D01*
X39351Y11604D01*
X39377Y11700D01*
Y11800D01*
X39351Y11896D01*
X39302Y11981D01*
X39231Y12052D01*
X39146Y12101D01*
X39050Y12127D01*
D02*
G37*
G36*
X4507Y11896D02*
X4408D01*
X4312Y11870D01*
X4226Y11821D01*
X4156Y11750D01*
X4106Y11664D01*
X4080Y11569D01*
Y11469D01*
X4106Y11373D01*
X4156Y11287D01*
X4226Y11217D01*
X4312Y11168D01*
X4408Y11142D01*
X4507D01*
X4603Y11168D01*
X4689Y11217D01*
X4759Y11287D01*
X4809Y11373D01*
X4834Y11469D01*
Y11569D01*
X4809Y11664D01*
X4759Y11750D01*
X4689Y11821D01*
X4603Y11870D01*
X4507Y11896D01*
D02*
G37*
G36*
X11738Y11373D02*
X11377D01*
Y11012D01*
X11445Y11030D01*
X11559Y11097D01*
X11653Y11191D01*
X11720Y11305D01*
X11738Y11373D01*
D02*
G37*
G36*
X11123D02*
X10762D01*
X10780Y11305D01*
X10847Y11191D01*
X10941Y11097D01*
X11055Y11030D01*
X11123Y11012D01*
Y11373D01*
D02*
G37*
G36*
X7738D02*
X7377D01*
Y11012D01*
X7445Y11030D01*
X7559Y11097D01*
X7653Y11191D01*
X7720Y11305D01*
X7738Y11373D01*
D02*
G37*
G36*
X7123D02*
X6762D01*
X6780Y11305D01*
X6847Y11191D01*
X6941Y11097D01*
X7055Y11030D01*
X7123Y11012D01*
Y11373D01*
D02*
G37*
G36*
X31300Y11627D02*
X31200D01*
X31104Y11601D01*
X31019Y11552D01*
X30948Y11481D01*
X30899Y11396D01*
X30873Y11300D01*
Y11200D01*
X30899Y11104D01*
X30948Y11019D01*
X31019Y10948D01*
X31104Y10899D01*
X31200Y10873D01*
X31300D01*
X31396Y10899D01*
X31481Y10948D01*
X31552Y11019D01*
X31601Y11104D01*
X31627Y11200D01*
Y11300D01*
X31601Y11396D01*
X31552Y11481D01*
X31481Y11552D01*
X31396Y11601D01*
X31300Y11627D01*
D02*
G37*
G36*
X46300Y11627D02*
X46200D01*
X46104Y11601D01*
X46019Y11552D01*
X45948Y11481D01*
X45899Y11396D01*
X45873Y11300D01*
Y11200D01*
X45899Y11104D01*
X45948Y11019D01*
X46019Y10948D01*
X46104Y10899D01*
X46200Y10873D01*
X46300D01*
X46396Y10899D01*
X46481Y10948D01*
X46552Y11019D01*
X46601Y11104D01*
X46627Y11200D01*
Y11300D01*
X46601Y11396D01*
X46552Y11481D01*
X46481Y11552D01*
X46396Y11601D01*
X46300Y11627D01*
D02*
G37*
G36*
X53800Y11127D02*
X53700D01*
X53604Y11101D01*
X53519Y11052D01*
X53448Y10981D01*
X53399Y10896D01*
X53373Y10800D01*
Y10700D01*
X53399Y10604D01*
X53448Y10519D01*
X53519Y10448D01*
X53604Y10399D01*
X53700Y10373D01*
X53800D01*
X53896Y10399D01*
X53981Y10448D01*
X54052Y10519D01*
X54101Y10604D01*
X54127Y10700D01*
Y10800D01*
X54101Y10896D01*
X54052Y10981D01*
X53981Y11052D01*
X53896Y11101D01*
X53800Y11127D01*
D02*
G37*
G36*
X39050D02*
X38950D01*
X38854Y11101D01*
X38769Y11052D01*
X38698Y10981D01*
X38649Y10896D01*
X38623Y10800D01*
Y10700D01*
X38649Y10604D01*
X38698Y10519D01*
X38769Y10448D01*
X38854Y10399D01*
X38950Y10373D01*
X39050D01*
X39146Y10399D01*
X39231Y10448D01*
X39302Y10519D01*
X39351Y10604D01*
X39377Y10700D01*
Y10800D01*
X39351Y10896D01*
X39302Y10981D01*
X39231Y11052D01*
X39146Y11101D01*
X39050Y11127D01*
D02*
G37*
G36*
X24300D02*
X24200D01*
X24104Y11101D01*
X24019Y11052D01*
X23948Y10981D01*
X23899Y10896D01*
X23873Y10800D01*
Y10700D01*
X23899Y10604D01*
X23948Y10519D01*
X24019Y10448D01*
X24104Y10399D01*
X24200Y10373D01*
X24300D01*
X24396Y10399D01*
X24481Y10448D01*
X24552Y10519D01*
X24601Y10604D01*
X24627Y10700D01*
Y10800D01*
X24601Y10896D01*
X24552Y10981D01*
X24481Y11052D01*
X24396Y11101D01*
X24300Y11127D01*
D02*
G37*
G36*
X13300D02*
X13200D01*
X13104Y11101D01*
X13019Y11052D01*
X12948Y10981D01*
X12899Y10896D01*
X12873Y10800D01*
Y10700D01*
X12899Y10604D01*
X12948Y10519D01*
X13019Y10448D01*
X13104Y10399D01*
X13200Y10373D01*
X13300D01*
X13396Y10399D01*
X13481Y10448D01*
X13488Y10448D01*
X13638Y10393D01*
X13649Y10354D01*
X13698Y10269D01*
X13769Y10198D01*
X13854Y10149D01*
X13950Y10123D01*
X14050D01*
X14146Y10149D01*
X14231Y10198D01*
X14302Y10269D01*
X14351Y10354D01*
X14377Y10450D01*
Y10550D01*
X14351Y10646D01*
X14302Y10731D01*
X14231Y10802D01*
X14146Y10851D01*
X14050Y10877D01*
X13950D01*
X13854Y10851D01*
X13769Y10802D01*
X13762Y10802D01*
X13612Y10857D01*
X13601Y10896D01*
X13552Y10981D01*
X13481Y11052D01*
X13396Y11101D01*
X13300Y11127D01*
D02*
G37*
G36*
X4512Y10870D02*
X4413D01*
X4317Y10845D01*
X4231Y10795D01*
X4161Y10725D01*
X4111Y10639D01*
X4085Y10543D01*
Y10444D01*
X4111Y10348D01*
X4161Y10262D01*
X4231Y10192D01*
X4317Y10142D01*
X4413Y10116D01*
X4512D01*
X4608Y10142D01*
X4694Y10192D01*
X4764Y10262D01*
X4814Y10348D01*
X4839Y10444D01*
Y10543D01*
X4814Y10639D01*
X4764Y10725D01*
X4694Y10795D01*
X4608Y10845D01*
X4512Y10870D01*
D02*
G37*
G36*
X51850Y11629D02*
X50650D01*
X50578Y11620D01*
X50510Y11592D01*
X50452Y11548D01*
X50408Y11490D01*
X50380Y11422D01*
X50371Y11350D01*
Y10150D01*
X50380Y10078D01*
X50408Y10010D01*
X50452Y9952D01*
X50510Y9908D01*
X50578Y9880D01*
X50650Y9871D01*
X51850D01*
X51922Y9880D01*
X51990Y9908D01*
X52048Y9952D01*
X52092Y10010D01*
X52120Y10078D01*
X52129Y10150D01*
Y11350D01*
X52120Y11422D01*
X52092Y11490D01*
X52048Y11548D01*
X51990Y11592D01*
X51922Y11620D01*
X51850Y11629D01*
D02*
G37*
G36*
X37100D02*
X35900D01*
X35828Y11620D01*
X35760Y11592D01*
X35702Y11548D01*
X35658Y11490D01*
X35630Y11422D01*
X35621Y11350D01*
Y10150D01*
X35630Y10078D01*
X35658Y10010D01*
X35702Y9952D01*
X35760Y9908D01*
X35828Y9880D01*
X35900Y9871D01*
X37100D01*
X37172Y9880D01*
X37240Y9908D01*
X37298Y9952D01*
X37342Y10010D01*
X37370Y10078D01*
X37379Y10150D01*
Y11350D01*
X37370Y11422D01*
X37342Y11490D01*
X37298Y11548D01*
X37240Y11592D01*
X37172Y11620D01*
X37100Y11629D01*
D02*
G37*
G36*
X22350D02*
X21150D01*
X21078Y11620D01*
X21010Y11592D01*
X20952Y11548D01*
X20908Y11490D01*
X20880Y11422D01*
X20871Y11350D01*
Y10150D01*
X20880Y10078D01*
X20908Y10010D01*
X20952Y9952D01*
X21010Y9908D01*
X21078Y9880D01*
X21150Y9871D01*
X22350D01*
X22422Y9880D01*
X22490Y9908D01*
X22548Y9952D01*
X22592Y10010D01*
X22620Y10078D01*
X22629Y10150D01*
Y11350D01*
X22620Y11422D01*
X22592Y11490D01*
X22548Y11548D01*
X22490Y11592D01*
X22422Y11620D01*
X22350Y11629D01*
D02*
G37*
G36*
X9377Y9988D02*
Y9627D01*
X9738D01*
X9720Y9695D01*
X9653Y9809D01*
X9559Y9903D01*
X9445Y9970D01*
X9377Y9988D01*
D02*
G37*
G36*
X9123D02*
X9055Y9970D01*
X8941Y9903D01*
X8847Y9809D01*
X8780Y9695D01*
X8762Y9627D01*
X9123D01*
Y9988D01*
D02*
G37*
G36*
X63800Y10377D02*
X63700D01*
X63604Y10351D01*
X63519Y10302D01*
X63448Y10231D01*
X63399Y10146D01*
X63373Y10050D01*
Y9950D01*
X63399Y9854D01*
X63448Y9769D01*
X63519Y9698D01*
X63604Y9649D01*
X63700Y9623D01*
X63800D01*
X63896Y9649D01*
X63981Y9698D01*
X64052Y9769D01*
X64101Y9854D01*
X64127Y9950D01*
Y10050D01*
X64101Y10146D01*
X64052Y10231D01*
X63981Y10302D01*
X63896Y10351D01*
X63800Y10377D01*
D02*
G37*
G36*
X62800D02*
X62700D01*
X62604Y10351D01*
X62519Y10302D01*
X62448Y10231D01*
X62399Y10146D01*
X62373Y10050D01*
Y9950D01*
X62399Y9854D01*
X62448Y9769D01*
X62519Y9698D01*
X62604Y9649D01*
X62700Y9623D01*
X62800D01*
X62896Y9649D01*
X62981Y9698D01*
X63052Y9769D01*
X63101Y9854D01*
X63127Y9950D01*
Y10050D01*
X63101Y10146D01*
X63052Y10231D01*
X62981Y10302D01*
X62896Y10351D01*
X62800Y10377D01*
D02*
G37*
G36*
X55800D02*
X55700D01*
X55604Y10351D01*
X55519Y10302D01*
X55448Y10231D01*
X55399Y10146D01*
X55373Y10050D01*
Y9950D01*
X55399Y9854D01*
X55448Y9769D01*
X55519Y9698D01*
X55604Y9649D01*
X55700Y9623D01*
X55800D01*
X55896Y9649D01*
X55981Y9698D01*
X56052Y9769D01*
X56101Y9854D01*
X56127Y9950D01*
Y10050D01*
X56101Y10146D01*
X56052Y10231D01*
X55981Y10302D01*
X55896Y10351D01*
X55800Y10377D01*
D02*
G37*
G36*
X26300D02*
X26200D01*
X26104Y10351D01*
X26019Y10302D01*
X25948Y10231D01*
X25899Y10146D01*
X25873Y10050D01*
Y9950D01*
X25899Y9854D01*
X25948Y9769D01*
X26019Y9698D01*
X26104Y9649D01*
X26200Y9623D01*
X26300D01*
X26396Y9649D01*
X26481Y9698D01*
X26552Y9769D01*
X26601Y9854D01*
X26627Y9950D01*
Y10050D01*
X26601Y10146D01*
X26552Y10231D01*
X26481Y10302D01*
X26396Y10351D01*
X26300Y10377D01*
D02*
G37*
G36*
X60000Y10377D02*
X59900D01*
X59804Y10351D01*
X59719Y10302D01*
X59648Y10231D01*
X59599Y10146D01*
X59573Y10050D01*
Y9950D01*
X59599Y9854D01*
X59648Y9769D01*
X59719Y9698D01*
X59804Y9649D01*
X59900Y9623D01*
X60000D01*
X60096Y9649D01*
X60181Y9698D01*
X60252Y9769D01*
X60301Y9854D01*
X60327Y9950D01*
Y10050D01*
X60301Y10146D01*
X60252Y10231D01*
X60181Y10302D01*
X60096Y10351D01*
X60000Y10377D01*
D02*
G37*
G36*
X44050Y10353D02*
X43950D01*
X43855Y10327D01*
X43769Y10277D01*
X43698Y10207D01*
X43649Y10121D01*
X43623Y10025D01*
Y9926D01*
X43649Y9830D01*
X43698Y9744D01*
X43769Y9674D01*
X43855Y9624D01*
X43950Y9599D01*
X44050D01*
X44146Y9624D01*
X44232Y9674D01*
X44302Y9744D01*
X44351Y9830D01*
X44377Y9926D01*
Y10025D01*
X44351Y10121D01*
X44302Y10207D01*
X44232Y10277D01*
X44146Y10327D01*
X44050Y10353D01*
D02*
G37*
G36*
X58896Y10240D02*
X58797D01*
X58701Y10214D01*
X58615Y10165D01*
X58545Y10094D01*
X58495Y10008D01*
X58469Y9913D01*
Y9813D01*
X58495Y9717D01*
X58545Y9631D01*
X58615Y9561D01*
X58701Y9512D01*
X58797Y9486D01*
X58896D01*
X58992Y9512D01*
X59078Y9561D01*
X59148Y9631D01*
X59198Y9717D01*
X59223Y9813D01*
Y9913D01*
X59198Y10008D01*
X59148Y10094D01*
X59078Y10165D01*
X58992Y10214D01*
X58896Y10240D01*
D02*
G37*
G36*
X29396D02*
X29297D01*
X29201Y10214D01*
X29115Y10165D01*
X29045Y10094D01*
X28995Y10008D01*
X28969Y9913D01*
Y9813D01*
X28995Y9717D01*
X29045Y9631D01*
X29115Y9561D01*
X29201Y9512D01*
X29297Y9486D01*
X29396D01*
X29492Y9512D01*
X29578Y9561D01*
X29648Y9631D01*
X29698Y9717D01*
X29723Y9813D01*
Y9913D01*
X29698Y10008D01*
X29648Y10094D01*
X29578Y10165D01*
X29492Y10214D01*
X29396Y10240D01*
D02*
G37*
G36*
X40800Y10105D02*
X40700D01*
X40604Y10079D01*
X40519Y10029D01*
X40448Y9959D01*
X40399Y9873D01*
X40373Y9777D01*
Y9678D01*
X40399Y9582D01*
X40448Y9496D01*
X40519Y9426D01*
X40604Y9376D01*
X40700Y9351D01*
X40800D01*
X40896Y9376D01*
X40981Y9426D01*
X41052Y9496D01*
X41101Y9582D01*
X41127Y9678D01*
Y9777D01*
X41101Y9873D01*
X41052Y9959D01*
X40981Y10029D01*
X40896Y10079D01*
X40800Y10105D01*
D02*
G37*
G36*
X30800Y9877D02*
X30700D01*
X30604Y9851D01*
X30519Y9802D01*
X30448Y9731D01*
X30399Y9646D01*
X30373Y9550D01*
Y9450D01*
X30399Y9354D01*
X30448Y9269D01*
X30519Y9198D01*
X30604Y9149D01*
X30700Y9123D01*
X30800D01*
X30896Y9149D01*
X30981Y9198D01*
X31052Y9269D01*
X31101Y9354D01*
X31127Y9450D01*
Y9550D01*
X31101Y9646D01*
X31052Y9731D01*
X30981Y9802D01*
X30896Y9851D01*
X30800Y9877D01*
D02*
G37*
G36*
X9738Y9373D02*
X9377D01*
Y9012D01*
X9445Y9030D01*
X9559Y9097D01*
X9653Y9191D01*
X9720Y9305D01*
X9738Y9373D01*
D02*
G37*
G36*
X9123D02*
X8762D01*
X8780Y9305D01*
X8847Y9191D01*
X8941Y9097D01*
X9055Y9030D01*
X9123Y9012D01*
Y9373D01*
D02*
G37*
G36*
X4003Y10105D02*
X3904D01*
X3808Y10079D01*
X3722Y10029D01*
X3652Y9959D01*
X3602Y9873D01*
X3576Y9777D01*
Y9678D01*
X3602Y9582D01*
X3652Y9496D01*
X3722Y9426D01*
X3808Y9376D01*
X3904Y9351D01*
X4003D01*
X4099Y9376D01*
X4138Y9399D01*
X4278Y9363D01*
X4326Y9226D01*
X4269Y9143D01*
X4249Y9131D01*
X4178Y9060D01*
X4129Y8975D01*
X4103Y8879D01*
Y8779D01*
X4129Y8683D01*
X4178Y8598D01*
X4240Y8516D01*
X4178Y8433D01*
X4129Y8348D01*
X4103Y8252D01*
Y8152D01*
X4129Y8056D01*
X4178Y7971D01*
X4249Y7900D01*
X4335Y7851D01*
X4430Y7825D01*
X4530D01*
X4626Y7851D01*
X4712Y7900D01*
X4782Y7971D01*
X4831Y8056D01*
X4857Y8152D01*
Y8252D01*
X4831Y8348D01*
X4782Y8433D01*
X4720Y8516D01*
X4782Y8598D01*
X4831Y8683D01*
X4839Y8710D01*
X4860Y8731D01*
X4981Y8779D01*
X5007Y8779D01*
X5034Y8763D01*
X5130Y8737D01*
X5229D01*
X5325Y8763D01*
X5411Y8813D01*
X5481Y8883D01*
X5531Y8969D01*
X5557Y9065D01*
Y9164D01*
X5531Y9260D01*
X5481Y9346D01*
X5411Y9416D01*
X5325Y9466D01*
X5229Y9491D01*
X5130D01*
X5034Y9550D01*
X5008Y9646D01*
X4959Y9731D01*
X4889Y9802D01*
X4803Y9851D01*
X4707Y9877D01*
X4607D01*
X4512Y9851D01*
X4472Y9828D01*
X4322Y9868D01*
X4297Y9886D01*
X4255Y9959D01*
X4185Y10029D01*
X4099Y10079D01*
X4003Y10105D01*
D02*
G37*
G36*
X60125Y9127D02*
X60025D01*
X59929Y9101D01*
X59844Y9052D01*
X59773Y8981D01*
X59724Y8896D01*
X59698Y8800D01*
Y8700D01*
X59724Y8604D01*
X59773Y8519D01*
X59844Y8448D01*
X59929Y8399D01*
X60025Y8373D01*
X60125D01*
X60221Y8399D01*
X60306Y8448D01*
X60377Y8519D01*
X60426Y8604D01*
X60452Y8700D01*
Y8800D01*
X60426Y8896D01*
X60377Y8981D01*
X60306Y9052D01*
X60221Y9101D01*
X60125Y9127D01*
D02*
G37*
G36*
X45375D02*
X45275D01*
X45179Y9101D01*
X45094Y9052D01*
X45023Y8981D01*
X44974Y8896D01*
X44948Y8800D01*
Y8700D01*
X44974Y8604D01*
X45023Y8519D01*
X45094Y8448D01*
X45179Y8399D01*
X45275Y8373D01*
X45375D01*
X45471Y8399D01*
X45556Y8448D01*
X45627Y8519D01*
X45676Y8604D01*
X45702Y8700D01*
Y8800D01*
X45676Y8896D01*
X45627Y8981D01*
X45556Y9052D01*
X45471Y9101D01*
X45375Y9127D01*
D02*
G37*
G36*
X58723Y8338D02*
X58655Y8320D01*
X58541Y8253D01*
X58447Y8159D01*
X58380Y8045D01*
X58378Y8034D01*
X58222D01*
X58220Y8045D01*
X58153Y8159D01*
X58059Y8253D01*
X57945Y8320D01*
X57877Y8338D01*
Y7850D01*
X57623D01*
Y8338D01*
X57555Y8320D01*
X57441Y8253D01*
X57347Y8159D01*
X57280Y8045D01*
X57278Y8034D01*
X57122D01*
X57120Y8045D01*
X57053Y8159D01*
X56959Y8253D01*
X56845Y8320D01*
X56777Y8338D01*
Y7850D01*
X56650D01*
Y7723D01*
X56162D01*
X56180Y7655D01*
X56247Y7541D01*
X56341Y7447D01*
X56455Y7380D01*
X56466Y7378D01*
Y7222D01*
X56455Y7220D01*
X56341Y7153D01*
X56247Y7059D01*
X56180Y6945D01*
X56162Y6877D01*
X56650D01*
Y6623D01*
X56162D01*
X56180Y6555D01*
X56247Y6441D01*
X56341Y6347D01*
X56455Y6280D01*
X56466Y6278D01*
Y6122D01*
X56455Y6120D01*
X56341Y6053D01*
X56247Y5959D01*
X56180Y5845D01*
X56162Y5777D01*
X56650D01*
Y5650D01*
X56777D01*
Y5162D01*
X56845Y5180D01*
X56959Y5247D01*
X57053Y5341D01*
X57120Y5455D01*
X57122Y5466D01*
X57278D01*
X57280Y5455D01*
X57347Y5341D01*
X57441Y5247D01*
X57555Y5180D01*
X57623Y5162D01*
Y5650D01*
X57877D01*
Y5162D01*
X57945Y5180D01*
X58059Y5247D01*
X58153Y5341D01*
X58220Y5455D01*
X58222Y5466D01*
X58378D01*
X58380Y5455D01*
X58447Y5341D01*
X58541Y5247D01*
X58655Y5180D01*
X58723Y5162D01*
Y5650D01*
X58850D01*
Y5777D01*
X59338D01*
X59320Y5845D01*
X59253Y5959D01*
X59159Y6053D01*
X59045Y6120D01*
X59034Y6122D01*
Y6278D01*
X59045Y6280D01*
X59159Y6347D01*
X59253Y6441D01*
X59320Y6555D01*
X59338Y6623D01*
X58850D01*
Y6877D01*
X59338D01*
X59320Y6945D01*
X59253Y7059D01*
X59159Y7153D01*
X59045Y7220D01*
X59034Y7222D01*
Y7378D01*
X59045Y7380D01*
X59159Y7447D01*
X59253Y7541D01*
X59320Y7655D01*
X59338Y7723D01*
X58850D01*
Y7850D01*
X58723D01*
Y8338D01*
D02*
G37*
G36*
X29223D02*
X29155Y8320D01*
X29041Y8253D01*
X28947Y8159D01*
X28880Y8045D01*
X28878Y8034D01*
X28722D01*
X28720Y8045D01*
X28653Y8159D01*
X28559Y8253D01*
X28445Y8320D01*
X28377Y8338D01*
Y7850D01*
X28123D01*
Y8338D01*
X28055Y8320D01*
X27941Y8253D01*
X27847Y8159D01*
X27780Y8045D01*
X27778Y8034D01*
X27622D01*
X27620Y8045D01*
X27553Y8159D01*
X27459Y8253D01*
X27345Y8320D01*
X27277Y8338D01*
Y7850D01*
X27150D01*
Y7723D01*
X26662D01*
X26680Y7655D01*
X26747Y7541D01*
X26841Y7447D01*
X26955Y7380D01*
X26966Y7378D01*
Y7222D01*
X26955Y7220D01*
X26841Y7153D01*
X26747Y7059D01*
X26680Y6945D01*
X26662Y6877D01*
X27150D01*
Y6623D01*
X26662D01*
X26680Y6555D01*
X26747Y6441D01*
X26841Y6347D01*
X26955Y6280D01*
X26966Y6278D01*
Y6122D01*
X26955Y6120D01*
X26841Y6053D01*
X26747Y5959D01*
X26680Y5845D01*
X26662Y5777D01*
X27150D01*
Y5650D01*
X27277D01*
Y5162D01*
X27345Y5180D01*
X27459Y5247D01*
X27553Y5341D01*
X27620Y5455D01*
X27622Y5466D01*
X27778D01*
X27780Y5455D01*
X27847Y5341D01*
X27941Y5247D01*
X28055Y5180D01*
X28123Y5162D01*
Y5650D01*
X28377D01*
Y5162D01*
X28445Y5180D01*
X28559Y5247D01*
X28653Y5341D01*
X28720Y5455D01*
X28722Y5466D01*
X28878D01*
X28880Y5455D01*
X28947Y5341D01*
X29041Y5247D01*
X29155Y5180D01*
X29223Y5162D01*
Y5650D01*
X29350D01*
Y5777D01*
X29838D01*
X29820Y5845D01*
X29753Y5959D01*
X29659Y6053D01*
X29545Y6120D01*
X29534Y6122D01*
Y6278D01*
X29545Y6280D01*
X29659Y6347D01*
X29753Y6441D01*
X29820Y6555D01*
X29838Y6623D01*
X29350D01*
Y6877D01*
X29838D01*
X29820Y6945D01*
X29753Y7059D01*
X29659Y7153D01*
X29545Y7220D01*
X29534Y7222D01*
Y7378D01*
X29545Y7380D01*
X29659Y7447D01*
X29753Y7541D01*
X29820Y7655D01*
X29838Y7723D01*
X29350D01*
Y7850D01*
X29223D01*
Y8338D01*
D02*
G37*
G36*
X43973D02*
X43905Y8320D01*
X43791Y8253D01*
X43697Y8159D01*
X43630Y8045D01*
X43628Y8034D01*
X43472D01*
X43470Y8045D01*
X43403Y8159D01*
X43309Y8253D01*
X43195Y8320D01*
X43127Y8338D01*
Y7850D01*
X42873D01*
Y8338D01*
X42805Y8320D01*
X42691Y8253D01*
X42597Y8159D01*
X42530Y8045D01*
X42528Y8034D01*
X42372D01*
X42370Y8045D01*
X42303Y8159D01*
X42209Y8253D01*
X42095Y8320D01*
X42027Y8338D01*
Y7850D01*
X41900D01*
Y7723D01*
X41412D01*
X41430Y7655D01*
X41497Y7541D01*
X41591Y7447D01*
X41705Y7380D01*
X41716Y7378D01*
Y7222D01*
X41705Y7220D01*
X41591Y7153D01*
X41497Y7059D01*
X41430Y6945D01*
X41412Y6877D01*
X41900D01*
Y6623D01*
X41412D01*
X41430Y6555D01*
X41497Y6441D01*
X41591Y6347D01*
X41705Y6280D01*
X41716Y6278D01*
Y6122D01*
X41705Y6120D01*
X41591Y6053D01*
X41497Y5959D01*
X41430Y5845D01*
X41412Y5777D01*
X41900D01*
Y5650D01*
X42027D01*
Y5162D01*
X42095Y5180D01*
X42209Y5247D01*
X42303Y5341D01*
X42370Y5455D01*
X42372Y5466D01*
X42528D01*
X42530Y5455D01*
X42597Y5341D01*
X42691Y5247D01*
X42805Y5180D01*
X42873Y5162D01*
Y5650D01*
X43127D01*
Y5162D01*
X43195Y5180D01*
X43309Y5247D01*
X43403Y5341D01*
X43470Y5455D01*
X43472Y5466D01*
X43628D01*
X43630Y5455D01*
X43697Y5341D01*
X43791Y5247D01*
X43905Y5180D01*
X43973Y5162D01*
Y5650D01*
X44100D01*
Y5777D01*
X44588D01*
X44570Y5845D01*
X44503Y5959D01*
X44409Y6053D01*
X44295Y6120D01*
X44284Y6122D01*
Y6278D01*
X44295Y6280D01*
X44409Y6347D01*
X44503Y6441D01*
X44570Y6555D01*
X44588Y6623D01*
X44100D01*
Y6877D01*
X44588D01*
X44570Y6945D01*
X44503Y7059D01*
X44409Y7153D01*
X44295Y7220D01*
X44284Y7222D01*
Y7378D01*
X44295Y7380D01*
X44409Y7447D01*
X44503Y7541D01*
X44570Y7655D01*
X44588Y7723D01*
X44100D01*
Y7850D01*
X43973D01*
Y8338D01*
D02*
G37*
G36*
X58977D02*
Y7977D01*
X59338D01*
X59320Y8045D01*
X59253Y8159D01*
X59159Y8253D01*
X59045Y8320D01*
X58977Y8338D01*
D02*
G37*
G36*
X56523D02*
X56455Y8320D01*
X56341Y8253D01*
X56247Y8159D01*
X56180Y8045D01*
X56162Y7977D01*
X56523D01*
Y8338D01*
D02*
G37*
G36*
X44227D02*
Y7977D01*
X44588D01*
X44570Y8045D01*
X44503Y8159D01*
X44409Y8253D01*
X44295Y8320D01*
X44227Y8338D01*
D02*
G37*
G36*
X41773D02*
X41705Y8320D01*
X41591Y8253D01*
X41497Y8159D01*
X41430Y8045D01*
X41412Y7977D01*
X41773D01*
Y8338D01*
D02*
G37*
G36*
X29477D02*
Y7977D01*
X29838D01*
X29820Y8045D01*
X29753Y8159D01*
X29659Y8253D01*
X29545Y8320D01*
X29477Y8338D01*
D02*
G37*
G36*
X27023D02*
X26955Y8320D01*
X26841Y8253D01*
X26747Y8159D01*
X26680Y8045D01*
X26662Y7977D01*
X27023D01*
Y8338D01*
D02*
G37*
G36*
X54425Y8627D02*
X54325D01*
X54229Y8601D01*
X54144Y8552D01*
X54073Y8481D01*
X54024Y8396D01*
X53998Y8300D01*
Y8200D01*
X54024Y8104D01*
X54073Y8019D01*
X54144Y7948D01*
X54229Y7899D01*
X54325Y7873D01*
X54425D01*
X54521Y7899D01*
X54606Y7948D01*
X54677Y8019D01*
X54726Y8104D01*
X54752Y8200D01*
Y8300D01*
X54726Y8396D01*
X54677Y8481D01*
X54606Y8552D01*
X54521Y8601D01*
X54425Y8627D01*
D02*
G37*
G36*
X24925D02*
X24825D01*
X24729Y8601D01*
X24644Y8552D01*
X24573Y8481D01*
X24524Y8396D01*
X24498Y8300D01*
Y8200D01*
X24524Y8104D01*
X24573Y8019D01*
X24644Y7948D01*
X24729Y7899D01*
X24825Y7873D01*
X24925D01*
X25021Y7899D01*
X25106Y7948D01*
X25177Y8019D01*
X25226Y8104D01*
X25252Y8200D01*
Y8300D01*
X25226Y8396D01*
X25177Y8481D01*
X25106Y8552D01*
X25021Y8601D01*
X24925Y8627D01*
D02*
G37*
G36*
X39675Y8627D02*
X39575D01*
X39479Y8601D01*
X39394Y8552D01*
X39323Y8481D01*
X39274Y8396D01*
X39248Y8300D01*
Y8200D01*
X39274Y8104D01*
X39323Y8019D01*
X39394Y7948D01*
X39479Y7899D01*
X39575Y7873D01*
X39675D01*
X39771Y7899D01*
X39856Y7948D01*
X39927Y8019D01*
X39976Y8104D01*
X40002Y8200D01*
Y8300D01*
X39976Y8396D01*
X39927Y8481D01*
X39856Y8552D01*
X39771Y8601D01*
X39675Y8627D01*
D02*
G37*
G36*
X11377Y7988D02*
Y7627D01*
X11738D01*
X11720Y7695D01*
X11653Y7809D01*
X11559Y7903D01*
X11445Y7970D01*
X11377Y7988D01*
D02*
G37*
G36*
X11123D02*
X11055Y7970D01*
X10941Y7903D01*
X10847Y7809D01*
X10780Y7695D01*
X10762Y7627D01*
X11123D01*
Y7988D01*
D02*
G37*
G36*
X7377D02*
Y7627D01*
X7738D01*
X7720Y7695D01*
X7653Y7809D01*
X7559Y7903D01*
X7445Y7970D01*
X7377Y7988D01*
D02*
G37*
G36*
X7123D02*
X7055Y7970D01*
X6941Y7903D01*
X6847Y7809D01*
X6780Y7695D01*
X6762Y7627D01*
X7123D01*
Y7988D01*
D02*
G37*
G36*
X51336Y9127D02*
X51164D01*
X50994Y9093D01*
X50835Y9027D01*
X50691Y8931D01*
X50569Y8809D01*
X50473Y8665D01*
X50407Y8506D01*
X50373Y8336D01*
Y8164D01*
X50407Y7994D01*
X50473Y7835D01*
X50569Y7691D01*
X50691Y7569D01*
X50835Y7473D01*
X50994Y7407D01*
X51164Y7373D01*
X51336D01*
X51506Y7407D01*
X51665Y7473D01*
X51809Y7569D01*
X51931Y7691D01*
X52027Y7835D01*
X52093Y7994D01*
X52127Y8164D01*
Y8336D01*
X52093Y8506D01*
X52027Y8665D01*
X51931Y8809D01*
X51809Y8931D01*
X51665Y9027D01*
X51506Y9093D01*
X51336Y9127D01*
D02*
G37*
G36*
X36586D02*
X36414D01*
X36244Y9093D01*
X36085Y9027D01*
X35941Y8931D01*
X35819Y8809D01*
X35723Y8665D01*
X35657Y8506D01*
X35623Y8336D01*
Y8164D01*
X35657Y7994D01*
X35723Y7835D01*
X35819Y7691D01*
X35941Y7569D01*
X36085Y7473D01*
X36244Y7407D01*
X36414Y7373D01*
X36586D01*
X36756Y7407D01*
X36915Y7473D01*
X37059Y7569D01*
X37181Y7691D01*
X37277Y7835D01*
X37343Y7994D01*
X37377Y8164D01*
Y8336D01*
X37343Y8506D01*
X37277Y8665D01*
X37181Y8809D01*
X37059Y8931D01*
X36915Y9027D01*
X36756Y9093D01*
X36586Y9127D01*
D02*
G37*
G36*
X21836D02*
X21664D01*
X21494Y9093D01*
X21335Y9027D01*
X21191Y8931D01*
X21069Y8809D01*
X20973Y8665D01*
X20907Y8506D01*
X20873Y8336D01*
Y8164D01*
X20907Y7994D01*
X20973Y7835D01*
X21069Y7691D01*
X21191Y7569D01*
X21335Y7473D01*
X21494Y7407D01*
X21664Y7373D01*
X21836D01*
X22006Y7407D01*
X22165Y7473D01*
X22309Y7569D01*
X22431Y7691D01*
X22527Y7835D01*
X22593Y7994D01*
X22627Y8164D01*
Y8336D01*
X22593Y8506D01*
X22527Y8665D01*
X22431Y8809D01*
X22309Y8931D01*
X22165Y9027D01*
X22006Y9093D01*
X21836Y9127D01*
D02*
G37*
G36*
X13498Y8642D02*
X13399D01*
X13303Y8617D01*
X13217Y8567D01*
X13147Y8497D01*
X13097Y8411D01*
X13072Y8315D01*
Y8216D01*
X13097Y8120D01*
X13147Y8034D01*
X13217Y7964D01*
X13303Y7914D01*
X13399Y7888D01*
X13491D01*
X13499Y7888D01*
X13542Y7857D01*
X13623Y7766D01*
Y7700D01*
X13649Y7604D01*
X13698Y7519D01*
X13769Y7448D01*
X13854Y7399D01*
X13950Y7373D01*
X14050D01*
X14146Y7399D01*
X14231Y7448D01*
X14302Y7519D01*
X14351Y7604D01*
X14377Y7700D01*
Y7800D01*
X14351Y7896D01*
X14302Y7981D01*
X14231Y8052D01*
X14146Y8101D01*
X14050Y8127D01*
X13957D01*
X13950Y8128D01*
X13907Y8158D01*
X13826Y8249D01*
Y8315D01*
X13800Y8411D01*
X13750Y8497D01*
X13680Y8567D01*
X13594Y8617D01*
X13498Y8642D01*
D02*
G37*
G36*
X1800Y7877D02*
X1700D01*
X1604Y7851D01*
X1519Y7802D01*
X1448Y7731D01*
X1399Y7646D01*
X1373Y7550D01*
Y7450D01*
X1399Y7354D01*
X1448Y7269D01*
X1519Y7198D01*
X1604Y7149D01*
X1700Y7123D01*
X1800D01*
X1896Y7149D01*
X1981Y7198D01*
X2052Y7269D01*
X2101Y7354D01*
X2127Y7450D01*
Y7550D01*
X2101Y7646D01*
X2052Y7731D01*
X1981Y7802D01*
X1896Y7851D01*
X1800Y7877D01*
D02*
G37*
G36*
X11738Y7373D02*
X11377D01*
Y7012D01*
X11445Y7030D01*
X11559Y7097D01*
X11653Y7191D01*
X11720Y7305D01*
X11738Y7373D01*
D02*
G37*
G36*
X11123D02*
X10762D01*
X10780Y7305D01*
X10847Y7191D01*
X10941Y7097D01*
X11055Y7030D01*
X11123Y7012D01*
Y7373D01*
D02*
G37*
G36*
X7738D02*
X7377D01*
Y7012D01*
X7445Y7030D01*
X7559Y7097D01*
X7653Y7191D01*
X7720Y7305D01*
X7738Y7373D01*
D02*
G37*
G36*
X7123D02*
X6762D01*
X6780Y7305D01*
X6847Y7191D01*
X6941Y7097D01*
X7055Y7030D01*
X7123Y7012D01*
Y7373D01*
D02*
G37*
G36*
X13300Y7127D02*
X13200D01*
X13104Y7101D01*
X13019Y7052D01*
X12948Y6981D01*
X12899Y6896D01*
X12873Y6800D01*
Y6700D01*
X12899Y6604D01*
X12948Y6519D01*
X13019Y6448D01*
X13104Y6399D01*
X13200Y6373D01*
X13300D01*
X13396Y6399D01*
X13481Y6448D01*
X13552Y6519D01*
X13601Y6604D01*
X13627Y6700D01*
Y6800D01*
X13601Y6896D01*
X13552Y6981D01*
X13481Y7052D01*
X13396Y7101D01*
X13300Y7127D01*
D02*
G37*
G36*
X5235Y6627D02*
X5135D01*
X5039Y6601D01*
X4954Y6552D01*
X4883Y6481D01*
X4834Y6396D01*
X4808Y6300D01*
Y6200D01*
X4834Y6104D01*
X4883Y6019D01*
X4954Y5948D01*
X5039Y5899D01*
X5135Y5873D01*
X5235D01*
X5331Y5899D01*
X5416Y5948D01*
X5487Y6019D01*
X5536Y6104D01*
X5562Y6200D01*
Y6300D01*
X5536Y6396D01*
X5487Y6481D01*
X5416Y6552D01*
X5331Y6601D01*
X5235Y6627D01*
D02*
G37*
G36*
X14550Y6127D02*
X14450D01*
X14354Y6101D01*
X14269Y6052D01*
X14198Y5981D01*
X14149Y5896D01*
X14123Y5800D01*
Y5700D01*
X14149Y5604D01*
X14198Y5519D01*
X14269Y5448D01*
X14354Y5399D01*
X14450Y5373D01*
X14550D01*
X14646Y5399D01*
X14731Y5448D01*
X14802Y5519D01*
X14851Y5604D01*
X14877Y5700D01*
Y5800D01*
X14851Y5896D01*
X14802Y5981D01*
X14731Y6052D01*
X14646Y6101D01*
X14550Y6127D01*
D02*
G37*
G36*
X59338Y5523D02*
X58977D01*
Y5162D01*
X59045Y5180D01*
X59159Y5247D01*
X59253Y5341D01*
X59320Y5455D01*
X59338Y5523D01*
D02*
G37*
G36*
X56523D02*
X56162D01*
X56180Y5455D01*
X56247Y5341D01*
X56341Y5247D01*
X56455Y5180D01*
X56523Y5162D01*
Y5523D01*
D02*
G37*
G36*
X44588D02*
X44227D01*
Y5162D01*
X44295Y5180D01*
X44409Y5247D01*
X44503Y5341D01*
X44570Y5455D01*
X44588Y5523D01*
D02*
G37*
G36*
X41773D02*
X41412D01*
X41430Y5455D01*
X41497Y5341D01*
X41591Y5247D01*
X41705Y5180D01*
X41773Y5162D01*
Y5523D01*
D02*
G37*
G36*
X29838D02*
X29477D01*
Y5162D01*
X29545Y5180D01*
X29659Y5247D01*
X29753Y5341D01*
X29820Y5455D01*
X29838Y5523D01*
D02*
G37*
G36*
X27023D02*
X26662D01*
X26680Y5455D01*
X26747Y5341D01*
X26841Y5247D01*
X26955Y5180D01*
X27023Y5162D01*
Y5523D01*
D02*
G37*
G36*
X12050Y5877D02*
X11950D01*
X11854Y5851D01*
X11769Y5802D01*
X11698Y5731D01*
X11649Y5646D01*
X11623Y5550D01*
Y5450D01*
X11649Y5354D01*
X11698Y5269D01*
X11769Y5198D01*
X11854Y5149D01*
X11950Y5123D01*
X12050D01*
X12146Y5149D01*
X12231Y5198D01*
X12302Y5269D01*
X12351Y5354D01*
X12377Y5450D01*
Y5550D01*
X12351Y5646D01*
X12302Y5731D01*
X12231Y5802D01*
X12146Y5851D01*
X12050Y5877D01*
D02*
G37*
G36*
X54425Y5627D02*
X54325D01*
X54229Y5601D01*
X54144Y5552D01*
X54073Y5481D01*
X54024Y5396D01*
X53998Y5300D01*
Y5200D01*
X54024Y5104D01*
X54073Y5019D01*
X54144Y4948D01*
X54229Y4899D01*
X54325Y4873D01*
X54425D01*
X54521Y4899D01*
X54606Y4948D01*
X54677Y5019D01*
X54726Y5104D01*
X54752Y5200D01*
Y5300D01*
X54726Y5396D01*
X54677Y5481D01*
X54606Y5552D01*
X54521Y5601D01*
X54425Y5627D01*
D02*
G37*
G36*
X24925D02*
X24825D01*
X24729Y5601D01*
X24644Y5552D01*
X24573Y5481D01*
X24524Y5396D01*
X24498Y5300D01*
Y5200D01*
X24524Y5104D01*
X24573Y5019D01*
X24644Y4948D01*
X24729Y4899D01*
X24825Y4873D01*
X24925D01*
X25021Y4899D01*
X25106Y4948D01*
X25177Y5019D01*
X25226Y5104D01*
X25252Y5200D01*
Y5300D01*
X25226Y5396D01*
X25177Y5481D01*
X25106Y5552D01*
X25021Y5601D01*
X24925Y5627D01*
D02*
G37*
G36*
X39675Y5627D02*
X39575D01*
X39479Y5601D01*
X39394Y5552D01*
X39323Y5481D01*
X39274Y5396D01*
X39248Y5300D01*
Y5200D01*
X39274Y5104D01*
X39323Y5019D01*
X39394Y4948D01*
X39479Y4899D01*
X39575Y4873D01*
X39675D01*
X39771Y4899D01*
X39856Y4948D01*
X39927Y5019D01*
X39976Y5104D01*
X40002Y5200D01*
Y5300D01*
X39976Y5396D01*
X39927Y5481D01*
X39856Y5552D01*
X39771Y5601D01*
X39675Y5627D01*
D02*
G37*
G36*
X51336Y6627D02*
X51164D01*
X50994Y6593D01*
X50835Y6527D01*
X50691Y6431D01*
X50569Y6309D01*
X50473Y6165D01*
X50407Y6006D01*
X50373Y5836D01*
Y5664D01*
X50407Y5494D01*
X50473Y5335D01*
X50569Y5191D01*
X50691Y5069D01*
X50835Y4973D01*
X50994Y4907D01*
X51164Y4873D01*
X51336D01*
X51506Y4907D01*
X51665Y4973D01*
X51809Y5069D01*
X51931Y5191D01*
X52027Y5335D01*
X52093Y5494D01*
X52127Y5664D01*
Y5836D01*
X52093Y6006D01*
X52027Y6165D01*
X51931Y6309D01*
X51809Y6431D01*
X51665Y6527D01*
X51506Y6593D01*
X51336Y6627D01*
D02*
G37*
G36*
X36586D02*
X36414D01*
X36244Y6593D01*
X36085Y6527D01*
X35941Y6431D01*
X35819Y6309D01*
X35723Y6165D01*
X35657Y6006D01*
X35623Y5836D01*
Y5664D01*
X35657Y5494D01*
X35723Y5335D01*
X35819Y5191D01*
X35941Y5069D01*
X36085Y4973D01*
X36244Y4907D01*
X36414Y4873D01*
X36586D01*
X36756Y4907D01*
X36915Y4973D01*
X37059Y5069D01*
X37181Y5191D01*
X37277Y5335D01*
X37343Y5494D01*
X37377Y5664D01*
Y5836D01*
X37343Y6006D01*
X37277Y6165D01*
X37181Y6309D01*
X37059Y6431D01*
X36915Y6527D01*
X36756Y6593D01*
X36586Y6627D01*
D02*
G37*
G36*
X21836D02*
X21664D01*
X21494Y6593D01*
X21335Y6527D01*
X21191Y6431D01*
X21069Y6309D01*
X20973Y6165D01*
X20907Y6006D01*
X20873Y5836D01*
Y5664D01*
X20907Y5494D01*
X20973Y5335D01*
X21069Y5191D01*
X21191Y5069D01*
X21335Y4973D01*
X21494Y4907D01*
X21664Y4873D01*
X21836D01*
X22006Y4907D01*
X22165Y4973D01*
X22309Y5069D01*
X22431Y5191D01*
X22527Y5335D01*
X22593Y5494D01*
X22627Y5664D01*
Y5836D01*
X22593Y6006D01*
X22527Y6165D01*
X22431Y6309D01*
X22309Y6431D01*
X22165Y6527D01*
X22006Y6593D01*
X21836Y6627D01*
D02*
G37*
G36*
X9550Y5627D02*
X9450D01*
X9354Y5601D01*
X9269Y5552D01*
X9198Y5481D01*
X9149Y5396D01*
X9123Y5300D01*
Y5200D01*
X9149Y5104D01*
X9198Y5019D01*
X9269Y4948D01*
X9354Y4899D01*
X9450Y4873D01*
X9550D01*
X9646Y4899D01*
X9731Y4948D01*
X9802Y5019D01*
X9851Y5104D01*
X9877Y5200D01*
Y5300D01*
X9851Y5396D01*
X9802Y5481D01*
X9731Y5552D01*
X9646Y5601D01*
X9550Y5627D01*
D02*
G37*
G36*
X8050D02*
X7950D01*
X7854Y5601D01*
X7769Y5552D01*
X7698Y5481D01*
X7649Y5396D01*
X7623Y5300D01*
Y5200D01*
X7649Y5104D01*
X7698Y5019D01*
X7769Y4948D01*
X7854Y4899D01*
X7950Y4873D01*
X8050D01*
X8146Y4899D01*
X8231Y4948D01*
X8302Y5019D01*
X8351Y5104D01*
X8377Y5200D01*
Y5300D01*
X8351Y5396D01*
X8302Y5481D01*
X8231Y5552D01*
X8146Y5601D01*
X8050Y5627D01*
D02*
G37*
G36*
X13550Y5377D02*
X13450D01*
X13354Y5351D01*
X13269Y5302D01*
X13198Y5231D01*
X13149Y5146D01*
X13123Y5050D01*
Y4950D01*
X13149Y4854D01*
X13198Y4769D01*
X13269Y4698D01*
X13354Y4649D01*
X13450Y4623D01*
X13550D01*
X13646Y4649D01*
X13731Y4698D01*
X13802Y4769D01*
X13851Y4854D01*
X13877Y4950D01*
Y5050D01*
X13851Y5146D01*
X13802Y5231D01*
X13731Y5302D01*
X13646Y5351D01*
X13550Y5377D01*
D02*
G37*
G36*
X11050Y5877D02*
X10950D01*
X10854Y5851D01*
X10769Y5802D01*
X10698Y5731D01*
X10649Y5646D01*
X10623Y5550D01*
Y5513D01*
X10575Y5425D01*
X10487Y5377D01*
X10450D01*
X10354Y5351D01*
X10269Y5302D01*
X10198Y5231D01*
X10149Y5146D01*
X10123Y5050D01*
Y4950D01*
X10149Y4854D01*
X10198Y4769D01*
X10269Y4698D01*
X10354Y4649D01*
X10450Y4623D01*
X10550D01*
X10646Y4649D01*
X10731Y4698D01*
X10802Y4769D01*
X10851Y4854D01*
X10877Y4950D01*
Y4987D01*
X10925Y5075D01*
X11013Y5123D01*
X11050D01*
X11146Y5149D01*
X11231Y5198D01*
X11302Y5269D01*
X11351Y5354D01*
X11377Y5450D01*
Y5550D01*
X11351Y5646D01*
X11302Y5731D01*
X11231Y5802D01*
X11146Y5851D01*
X11050Y5877D01*
D02*
G37*
G36*
X4300Y5127D02*
X4200D01*
X4104Y5101D01*
X4019Y5052D01*
X3948Y4981D01*
X3899Y4896D01*
X3873Y4800D01*
Y4700D01*
X3899Y4604D01*
X3948Y4519D01*
X4019Y4448D01*
X4104Y4399D01*
X4200Y4373D01*
X4300D01*
X4396Y4399D01*
X4481Y4448D01*
X4552Y4519D01*
X4601Y4604D01*
X4627Y4700D01*
Y4800D01*
X4601Y4896D01*
X4552Y4981D01*
X4481Y5052D01*
X4396Y5101D01*
X4300Y5127D01*
D02*
G37*
G36*
X3050D02*
X2950D01*
X2854Y5101D01*
X2769Y5052D01*
X2698Y4981D01*
X2649Y4896D01*
X2623Y4800D01*
Y4700D01*
X2649Y4604D01*
X2698Y4519D01*
X2769Y4448D01*
X2854Y4399D01*
X2950Y4373D01*
X3050D01*
X3146Y4399D01*
X3231Y4448D01*
X3302Y4519D01*
X3351Y4604D01*
X3377Y4700D01*
Y4800D01*
X3351Y4896D01*
X3302Y4981D01*
X3231Y5052D01*
X3146Y5101D01*
X3050Y5127D01*
D02*
G37*
G36*
X7550Y4377D02*
X7450D01*
X7354Y4351D01*
X7269Y4302D01*
X7198Y4231D01*
X7149Y4146D01*
X7123Y4050D01*
Y3950D01*
X7149Y3854D01*
X7198Y3769D01*
X7269Y3698D01*
X7354Y3649D01*
X7450Y3623D01*
X7550D01*
X7646Y3649D01*
X7731Y3698D01*
X7802Y3769D01*
X7851Y3854D01*
X7877Y3950D01*
Y4050D01*
X7851Y4146D01*
X7802Y4231D01*
X7731Y4302D01*
X7646Y4351D01*
X7550Y4377D01*
D02*
G37*
G36*
X6550Y4127D02*
X6450D01*
X6354Y4101D01*
X6269Y4052D01*
X6198Y3981D01*
X6149Y3896D01*
X6123Y3800D01*
Y3700D01*
X6149Y3604D01*
X6198Y3519D01*
X6269Y3448D01*
X6354Y3399D01*
X6450Y3373D01*
X6550D01*
X6646Y3399D01*
X6731Y3448D01*
X6802Y3519D01*
X6851Y3604D01*
X6877Y3700D01*
Y3800D01*
X6851Y3896D01*
X6802Y3981D01*
X6731Y4052D01*
X6646Y4101D01*
X6550Y4127D01*
D02*
G37*
G36*
X56050Y3877D02*
X55950D01*
X55854Y3851D01*
X55769Y3802D01*
X55698Y3731D01*
X55649Y3646D01*
X55623Y3550D01*
Y3450D01*
X55649Y3354D01*
X55698Y3269D01*
X55769Y3198D01*
X55854Y3149D01*
X55950Y3123D01*
X56050D01*
X56146Y3149D01*
X56231Y3198D01*
X56302Y3269D01*
X56351Y3354D01*
X56377Y3450D01*
Y3550D01*
X56351Y3646D01*
X56302Y3731D01*
X56231Y3802D01*
X56146Y3851D01*
X56050Y3877D01*
D02*
G37*
G36*
X41300D02*
X41200D01*
X41104Y3851D01*
X41019Y3802D01*
X40948Y3731D01*
X40899Y3646D01*
X40873Y3550D01*
Y3450D01*
X40899Y3354D01*
X40948Y3269D01*
X41019Y3198D01*
X41104Y3149D01*
X41200Y3123D01*
X41300D01*
X41396Y3149D01*
X41481Y3198D01*
X41552Y3269D01*
X41601Y3354D01*
X41627Y3450D01*
Y3550D01*
X41601Y3646D01*
X41552Y3731D01*
X41481Y3802D01*
X41396Y3851D01*
X41300Y3877D01*
D02*
G37*
G36*
X26550D02*
X26450D01*
X26354Y3851D01*
X26269Y3802D01*
X26198Y3731D01*
X26149Y3646D01*
X26123Y3550D01*
Y3450D01*
X26149Y3354D01*
X26198Y3269D01*
X26269Y3198D01*
X26354Y3149D01*
X26450Y3123D01*
X26550D01*
X26646Y3149D01*
X26731Y3198D01*
X26802Y3269D01*
X26851Y3354D01*
X26877Y3450D01*
Y3550D01*
X26851Y3646D01*
X26802Y3731D01*
X26731Y3802D01*
X26646Y3851D01*
X26550Y3877D01*
D02*
G37*
G36*
X18800Y4377D02*
X18700D01*
X18604Y4351D01*
X18519Y4302D01*
X18448Y4231D01*
X18399Y4146D01*
X18373Y4050D01*
Y3950D01*
X18399Y3854D01*
X18448Y3769D01*
X18519Y3698D01*
X18604Y3649D01*
X18700Y3623D01*
X18737D01*
X18825Y3575D01*
X18873Y3487D01*
Y3450D01*
X18899Y3354D01*
X18948Y3269D01*
X19019Y3198D01*
X19104Y3149D01*
X19200Y3123D01*
X19300D01*
X19396Y3149D01*
X19481Y3198D01*
X19552Y3269D01*
X19601Y3354D01*
X19627Y3450D01*
Y3550D01*
X19601Y3646D01*
X19552Y3731D01*
X19481Y3802D01*
X19396Y3851D01*
X19300Y3877D01*
X19263D01*
X19175Y3925D01*
X19127Y4013D01*
Y4050D01*
X19101Y4146D01*
X19052Y4231D01*
X18981Y4302D01*
X18896Y4351D01*
X18800Y4377D01*
D02*
G37*
G36*
X53800Y3377D02*
X53700D01*
X53604Y3351D01*
X53519Y3302D01*
X53448Y3231D01*
X53399Y3146D01*
X53373Y3050D01*
Y2950D01*
X53399Y2854D01*
X53448Y2769D01*
X53519Y2698D01*
X53604Y2649D01*
X53700Y2623D01*
X53800D01*
X53896Y2649D01*
X53981Y2698D01*
X54052Y2769D01*
X54101Y2854D01*
X54127Y2950D01*
Y3050D01*
X54101Y3146D01*
X54052Y3231D01*
X53981Y3302D01*
X53896Y3351D01*
X53800Y3377D01*
D02*
G37*
G36*
X39050D02*
X38950D01*
X38854Y3351D01*
X38769Y3302D01*
X38698Y3231D01*
X38649Y3146D01*
X38623Y3050D01*
Y2950D01*
X38649Y2854D01*
X38698Y2769D01*
X38769Y2698D01*
X38854Y2649D01*
X38950Y2623D01*
X39050D01*
X39146Y2649D01*
X39231Y2698D01*
X39302Y2769D01*
X39351Y2854D01*
X39377Y2950D01*
Y3050D01*
X39351Y3146D01*
X39302Y3231D01*
X39231Y3302D01*
X39146Y3351D01*
X39050Y3377D01*
D02*
G37*
G36*
X24300D02*
X24200D01*
X24104Y3351D01*
X24019Y3302D01*
X23948Y3231D01*
X23899Y3146D01*
X23873Y3050D01*
Y2950D01*
X23899Y2854D01*
X23948Y2769D01*
X24019Y2698D01*
X24104Y2649D01*
X24200Y2623D01*
X24300D01*
X24396Y2649D01*
X24481Y2698D01*
X24552Y2769D01*
X24601Y2854D01*
X24627Y2950D01*
Y3050D01*
X24601Y3146D01*
X24552Y3231D01*
X24481Y3302D01*
X24396Y3351D01*
X24300Y3377D01*
D02*
G37*
G36*
X51336Y4127D02*
X51164D01*
X50994Y4093D01*
X50835Y4027D01*
X50691Y3931D01*
X50569Y3809D01*
X50473Y3665D01*
X50407Y3506D01*
X50373Y3336D01*
Y3164D01*
X50407Y2994D01*
X50473Y2835D01*
X50569Y2691D01*
X50691Y2569D01*
X50835Y2473D01*
X50994Y2407D01*
X51164Y2373D01*
X51336D01*
X51506Y2407D01*
X51665Y2473D01*
X51809Y2569D01*
X51931Y2691D01*
X52027Y2835D01*
X52093Y2994D01*
X52127Y3164D01*
Y3336D01*
X52093Y3506D01*
X52027Y3665D01*
X51931Y3809D01*
X51809Y3931D01*
X51665Y4027D01*
X51506Y4093D01*
X51336Y4127D01*
D02*
G37*
G36*
X36586D02*
X36414D01*
X36244Y4093D01*
X36085Y4027D01*
X35941Y3931D01*
X35819Y3809D01*
X35723Y3665D01*
X35657Y3506D01*
X35623Y3336D01*
Y3164D01*
X35657Y2994D01*
X35723Y2835D01*
X35819Y2691D01*
X35941Y2569D01*
X36085Y2473D01*
X36244Y2407D01*
X36414Y2373D01*
X36586D01*
X36756Y2407D01*
X36915Y2473D01*
X37059Y2569D01*
X37181Y2691D01*
X37277Y2835D01*
X37343Y2994D01*
X37377Y3164D01*
Y3336D01*
X37343Y3506D01*
X37277Y3665D01*
X37181Y3809D01*
X37059Y3931D01*
X36915Y4027D01*
X36756Y4093D01*
X36586Y4127D01*
D02*
G37*
G36*
X21836D02*
X21664D01*
X21494Y4093D01*
X21335Y4027D01*
X21191Y3931D01*
X21069Y3809D01*
X20973Y3665D01*
X20907Y3506D01*
X20873Y3336D01*
Y3164D01*
X20907Y2994D01*
X20973Y2835D01*
X21069Y2691D01*
X21191Y2569D01*
X21335Y2473D01*
X21494Y2407D01*
X21664Y2373D01*
X21836D01*
X22006Y2407D01*
X22165Y2473D01*
X22309Y2569D01*
X22431Y2691D01*
X22527Y2835D01*
X22593Y2994D01*
X22627Y3164D01*
Y3336D01*
X22593Y3506D01*
X22527Y3665D01*
X22431Y3809D01*
X22309Y3931D01*
X22165Y4027D01*
X22006Y4093D01*
X21836Y4127D01*
D02*
G37*
G36*
X9050Y3877D02*
X8950D01*
X8854Y3851D01*
X8769Y3802D01*
X8698Y3731D01*
X8649Y3646D01*
X8623Y3550D01*
Y3450D01*
X8649Y3354D01*
X8698Y3269D01*
X8698Y3262D01*
X8643Y3112D01*
X8604Y3101D01*
X8519Y3052D01*
X8448Y2981D01*
X8399Y2896D01*
X8373Y2800D01*
Y2700D01*
X8399Y2604D01*
X8448Y2519D01*
X8519Y2448D01*
X8604Y2399D01*
X8700Y2373D01*
X8800D01*
X8896Y2399D01*
X8981Y2448D01*
X9052Y2519D01*
X9101Y2604D01*
X9127Y2700D01*
Y2800D01*
X9101Y2896D01*
X9052Y2981D01*
X9052Y2988D01*
X9107Y3138D01*
X9146Y3149D01*
X9231Y3198D01*
X9302Y3269D01*
X9351Y3354D01*
X9377Y3450D01*
Y3550D01*
X9351Y3646D01*
X9302Y3731D01*
X9231Y3802D01*
X9146Y3851D01*
X9050Y3877D01*
D02*
G37*
G36*
X17300Y2392D02*
X17200D01*
X17104Y2366D01*
X17019Y2317D01*
X16948Y2246D01*
X16899Y2161D01*
X16873Y2065D01*
Y1965D01*
X16899Y1869D01*
X16948Y1784D01*
X17019Y1713D01*
X17104Y1664D01*
X17200Y1638D01*
X17300D01*
X17396Y1664D01*
X17481Y1713D01*
X17552Y1784D01*
X17601Y1869D01*
X17627Y1965D01*
Y2065D01*
X17601Y2161D01*
X17552Y2246D01*
X17481Y2317D01*
X17396Y2366D01*
X17300Y2392D01*
D02*
G37*
G36*
X53800Y2377D02*
X53700D01*
X53604Y2351D01*
X53519Y2302D01*
X53448Y2231D01*
X53399Y2146D01*
X53373Y2050D01*
Y1950D01*
X53399Y1854D01*
X53448Y1769D01*
X53519Y1698D01*
X53604Y1649D01*
X53700Y1623D01*
X53800D01*
X53896Y1649D01*
X53981Y1698D01*
X54052Y1769D01*
X54101Y1854D01*
X54127Y1950D01*
Y2050D01*
X54101Y2146D01*
X54052Y2231D01*
X53981Y2302D01*
X53896Y2351D01*
X53800Y2377D01*
D02*
G37*
G36*
X39050D02*
X38950D01*
X38854Y2351D01*
X38769Y2302D01*
X38698Y2231D01*
X38649Y2146D01*
X38623Y2050D01*
Y1950D01*
X38649Y1854D01*
X38698Y1769D01*
X38769Y1698D01*
X38854Y1649D01*
X38950Y1623D01*
X39050D01*
X39146Y1649D01*
X39231Y1698D01*
X39302Y1769D01*
X39351Y1854D01*
X39377Y1950D01*
Y2050D01*
X39351Y2146D01*
X39302Y2231D01*
X39231Y2302D01*
X39146Y2351D01*
X39050Y2377D01*
D02*
G37*
G36*
X24300D02*
X24200D01*
X24104Y2351D01*
X24019Y2302D01*
X23948Y2231D01*
X23899Y2146D01*
X23873Y2050D01*
Y1950D01*
X23899Y1854D01*
X23948Y1769D01*
X24019Y1698D01*
X24104Y1649D01*
X24200Y1623D01*
X24300D01*
X24396Y1649D01*
X24481Y1698D01*
X24552Y1769D01*
X24601Y1854D01*
X24627Y1950D01*
Y2050D01*
X24601Y2146D01*
X24552Y2231D01*
X24481Y2302D01*
X24396Y2351D01*
X24300Y2377D01*
D02*
G37*
G36*
X61300Y1877D02*
X61200D01*
X61104Y1851D01*
X61019Y1802D01*
X60948Y1731D01*
X60899Y1646D01*
X60873Y1550D01*
Y1450D01*
X60899Y1354D01*
X60948Y1269D01*
X61019Y1198D01*
X61104Y1149D01*
X61200Y1123D01*
X61300D01*
X61396Y1149D01*
X61481Y1198D01*
X61552Y1269D01*
X61601Y1354D01*
X61627Y1450D01*
Y1550D01*
X61601Y1646D01*
X61552Y1731D01*
X61481Y1802D01*
X61396Y1851D01*
X61300Y1877D01*
D02*
G37*
G36*
X46550D02*
X46450D01*
X46354Y1851D01*
X46269Y1802D01*
X46198Y1731D01*
X46149Y1646D01*
X46123Y1550D01*
Y1450D01*
X46149Y1354D01*
X46198Y1269D01*
X46269Y1198D01*
X46354Y1149D01*
X46450Y1123D01*
X46550D01*
X46646Y1149D01*
X46731Y1198D01*
X46802Y1269D01*
X46851Y1354D01*
X46877Y1450D01*
Y1550D01*
X46851Y1646D01*
X46802Y1731D01*
X46731Y1802D01*
X46646Y1851D01*
X46550Y1877D01*
D02*
G37*
G36*
X31800D02*
X31700D01*
X31604Y1851D01*
X31519Y1802D01*
X31448Y1731D01*
X31399Y1646D01*
X31373Y1550D01*
Y1450D01*
X31399Y1354D01*
X31448Y1269D01*
X31519Y1198D01*
X31604Y1149D01*
X31700Y1123D01*
X31800D01*
X31896Y1149D01*
X31981Y1198D01*
X32052Y1269D01*
X32101Y1354D01*
X32127Y1450D01*
Y1550D01*
X32101Y1646D01*
X32052Y1731D01*
X31981Y1802D01*
X31896Y1851D01*
X31800Y1877D01*
D02*
G37*
%LPD*%
D90*
X21310Y25900D02*
D03*
D91*
X28500Y17250D02*
D03*
D94*
X31930Y22750D02*
D03*
X40570D02*
D03*
D95*
X31930Y28110D02*
D03*
X40570D02*
D03*
D96*
X27000Y10500D02*
D03*
Y12000D02*
D03*
X8211Y16532D02*
D03*
X48065Y15750D02*
D03*
X44873Y15000D02*
D03*
X6750Y17560D02*
D03*
X45250Y28500D02*
D03*
X48250Y7350D02*
D03*
X42750Y17150D02*
D03*
X48250Y18350D02*
D03*
X53075D02*
D03*
X24250Y19500D02*
D03*
X17985Y20810D02*
D03*
X15950Y5550D02*
D03*
X9653Y20332D02*
D03*
X10950Y20500D02*
D03*
X12250Y1950D02*
D03*
X17250Y15000D02*
D03*
Y13750D02*
D03*
X8500Y15000D02*
D03*
X4250Y17250D02*
D03*
X6000D02*
D03*
X3400Y7800D02*
D03*
X53750Y21750D02*
D03*
X51000Y21500D02*
D03*
X47265Y27000D02*
D03*
X45500Y24000D02*
D03*
X46500D02*
D03*
X43250Y24000D02*
D03*
X44250D02*
D03*
X45000Y19750D02*
D03*
X44000D02*
D03*
X47000Y20750D02*
D03*
X1750Y21000D02*
D03*
X7235Y21250D02*
D03*
X3850Y23615D02*
D03*
X2500Y22250D02*
D03*
X7500Y24000D02*
D03*
X14865Y23150D02*
D03*
X19615Y20810D02*
D03*
X18500Y19500D02*
D03*
X27750Y21500D02*
D03*
X32750Y24500D02*
D03*
X33750D02*
D03*
X38750D02*
D03*
X39750D02*
D03*
X16000Y2000D02*
D03*
X14750Y2000D02*
D03*
X13500D02*
D03*
X9750Y2015D02*
D03*
X17250Y12250D02*
D03*
X32000Y2500D02*
D03*
X46750D02*
D03*
X26750Y1500D02*
D03*
X27750Y1000D02*
D03*
X41500Y1500D02*
D03*
X42500Y1000D02*
D03*
X41750Y10750D02*
D03*
Y11750D02*
D03*
X57250Y1000D02*
D03*
X56250Y1500D02*
D03*
X31250Y12500D02*
D03*
X28000Y13000D02*
D03*
X46000Y12500D02*
D03*
X42750Y13000D02*
D03*
X61500Y2500D02*
D03*
X57500Y13000D02*
D03*
X56500Y11750D02*
D03*
Y10750D02*
D03*
X60750Y12500D02*
D03*
X61000Y11250D02*
D03*
X55000Y19500D02*
D03*
X56500D02*
D03*
X55000Y27250D02*
D03*
X54000D02*
D03*
X57500Y26250D02*
D03*
Y27250D02*
D03*
X44100Y7850D02*
D03*
X44100Y6750D02*
D03*
X44100Y5650D02*
D03*
X43000Y7850D02*
D03*
Y5650D02*
D03*
X41900Y7850D02*
D03*
X41900Y6750D02*
D03*
X41900Y5650D02*
D03*
X11250Y7500D02*
D03*
X7250D02*
D03*
Y11500D02*
D03*
X11250D02*
D03*
X9250Y9500D02*
D03*
X58850Y7850D02*
D03*
Y6750D02*
D03*
Y5650D02*
D03*
X57750Y7850D02*
D03*
Y5650D02*
D03*
X56650Y7850D02*
D03*
Y6750D02*
D03*
Y5650D02*
D03*
X29350Y7850D02*
D03*
Y6750D02*
D03*
Y5650D02*
D03*
X28250Y7850D02*
D03*
Y5650D02*
D03*
X27150Y7850D02*
D03*
Y6750D02*
D03*
Y5650D02*
D03*
M02*
