G04*
G04 #@! TF.GenerationSoftware,Altium Limited,Altium Designer,23.3.1 (30)*
G04*
G04 Layer_Physical_Order=1*
G04 Layer_Color=255*
%FSLAX43Y43*%
%MOMM*%
G71*
G04*
G04 #@! TF.SameCoordinates,A4EA7D40-A082-4D09-80F0-C7F5A4317295*
G04*
G04*
G04 #@! TF.FilePolarity,Positive*
G04*
G01*
G75*
%ADD12C,0.150*%
G04:AMPARAMS|DCode=13|XSize=0.75mm|YSize=0.96mm|CornerRadius=0.075mm|HoleSize=0mm|Usage=FLASHONLY|Rotation=180.000|XOffset=0mm|YOffset=0mm|HoleType=Round|Shape=RoundedRectangle|*
%AMROUNDEDRECTD13*
21,1,0.750,0.810,0,0,180.0*
21,1,0.600,0.960,0,0,180.0*
1,1,0.150,-0.300,0.405*
1,1,0.150,0.300,0.405*
1,1,0.150,0.300,-0.405*
1,1,0.150,-0.300,-0.405*
%
%ADD13ROUNDEDRECTD13*%
%ADD14O,0.700X0.250*%
%ADD15O,0.250X0.700*%
G04:AMPARAMS|DCode=16|XSize=0.7mm|YSize=0.9mm|CornerRadius=0.07mm|HoleSize=0mm|Usage=FLASHONLY|Rotation=0.000|XOffset=0mm|YOffset=0mm|HoleType=Round|Shape=RoundedRectangle|*
%AMROUNDEDRECTD16*
21,1,0.700,0.760,0,0,0.0*
21,1,0.560,0.900,0,0,0.0*
1,1,0.140,0.280,-0.380*
1,1,0.140,-0.280,-0.380*
1,1,0.140,-0.280,0.380*
1,1,0.140,0.280,0.380*
%
%ADD16ROUNDEDRECTD16*%
%ADD17R,3.100X3.100*%
%ADD18O,1.000X0.250*%
%ADD19O,0.250X1.000*%
G04:AMPARAMS|DCode=20|XSize=0.75mm|YSize=0.96mm|CornerRadius=0.075mm|HoleSize=0mm|Usage=FLASHONLY|Rotation=270.000|XOffset=0mm|YOffset=0mm|HoleType=Round|Shape=RoundedRectangle|*
%AMROUNDEDRECTD20*
21,1,0.750,0.810,0,0,270.0*
21,1,0.600,0.960,0,0,270.0*
1,1,0.150,-0.405,-0.300*
1,1,0.150,-0.405,0.300*
1,1,0.150,0.405,0.300*
1,1,0.150,0.405,-0.300*
%
%ADD20ROUNDEDRECTD20*%
G04:AMPARAMS|DCode=21|XSize=0.9mm|YSize=0.95mm|CornerRadius=0.09mm|HoleSize=0mm|Usage=FLASHONLY|Rotation=270.000|XOffset=0mm|YOffset=0mm|HoleType=Round|Shape=RoundedRectangle|*
%AMROUNDEDRECTD21*
21,1,0.900,0.770,0,0,270.0*
21,1,0.720,0.950,0,0,270.0*
1,1,0.180,-0.385,-0.360*
1,1,0.180,-0.385,0.360*
1,1,0.180,0.385,0.360*
1,1,0.180,0.385,-0.360*
%
%ADD21ROUNDEDRECTD21*%
G04:AMPARAMS|DCode=22|XSize=0.7mm|YSize=0.9mm|CornerRadius=0.07mm|HoleSize=0mm|Usage=FLASHONLY|Rotation=90.000|XOffset=0mm|YOffset=0mm|HoleType=Round|Shape=RoundedRectangle|*
%AMROUNDEDRECTD22*
21,1,0.700,0.760,0,0,90.0*
21,1,0.560,0.900,0,0,90.0*
1,1,0.140,0.380,0.280*
1,1,0.140,0.380,-0.280*
1,1,0.140,-0.380,-0.280*
1,1,0.140,-0.380,0.280*
%
%ADD22ROUNDEDRECTD22*%
G04:AMPARAMS|DCode=23|XSize=0.8mm|YSize=0.8mm|CornerRadius=0.08mm|HoleSize=0mm|Usage=FLASHONLY|Rotation=270.000|XOffset=0mm|YOffset=0mm|HoleType=Round|Shape=RoundedRectangle|*
%AMROUNDEDRECTD23*
21,1,0.800,0.640,0,0,270.0*
21,1,0.640,0.800,0,0,270.0*
1,1,0.160,-0.320,-0.320*
1,1,0.160,-0.320,0.320*
1,1,0.160,0.320,0.320*
1,1,0.160,0.320,-0.320*
%
%ADD23ROUNDEDRECTD23*%
G04:AMPARAMS|DCode=24|XSize=0.4mm|YSize=1.22mm|CornerRadius=0.04mm|HoleSize=0mm|Usage=FLASHONLY|Rotation=180.000|XOffset=0mm|YOffset=0mm|HoleType=Round|Shape=RoundedRectangle|*
%AMROUNDEDRECTD24*
21,1,0.400,1.140,0,0,180.0*
21,1,0.320,1.220,0,0,180.0*
1,1,0.080,-0.160,0.570*
1,1,0.080,0.160,0.570*
1,1,0.080,0.160,-0.570*
1,1,0.080,-0.160,-0.570*
%
%ADD24ROUNDEDRECTD24*%
G04:AMPARAMS|DCode=25|XSize=0.3mm|YSize=0.7mm|CornerRadius=0.03mm|HoleSize=0mm|Usage=FLASHONLY|Rotation=180.000|XOffset=0mm|YOffset=0mm|HoleType=Round|Shape=RoundedRectangle|*
%AMROUNDEDRECTD25*
21,1,0.300,0.640,0,0,180.0*
21,1,0.240,0.700,0,0,180.0*
1,1,0.060,-0.120,0.320*
1,1,0.060,0.120,0.320*
1,1,0.060,0.120,-0.320*
1,1,0.060,-0.120,-0.320*
%
%ADD25ROUNDEDRECTD25*%
G04:AMPARAMS|DCode=26|XSize=1mm|YSize=0.7mm|CornerRadius=0.07mm|HoleSize=0mm|Usage=FLASHONLY|Rotation=180.000|XOffset=0mm|YOffset=0mm|HoleType=Round|Shape=RoundedRectangle|*
%AMROUNDEDRECTD26*
21,1,1.000,0.560,0,0,180.0*
21,1,0.860,0.700,0,0,180.0*
1,1,0.140,-0.430,0.280*
1,1,0.140,0.430,0.280*
1,1,0.140,0.430,-0.280*
1,1,0.140,-0.430,-0.280*
%
%ADD26ROUNDEDRECTD26*%
G04:AMPARAMS|DCode=27|XSize=0.6mm|YSize=0.95mm|CornerRadius=0.06mm|HoleSize=0mm|Usage=FLASHONLY|Rotation=0.000|XOffset=0mm|YOffset=0mm|HoleType=Round|Shape=RoundedRectangle|*
%AMROUNDEDRECTD27*
21,1,0.600,0.830,0,0,0.0*
21,1,0.480,0.950,0,0,0.0*
1,1,0.120,0.240,-0.415*
1,1,0.120,-0.240,-0.415*
1,1,0.120,-0.240,0.415*
1,1,0.120,0.240,0.415*
%
%ADD27ROUNDEDRECTD27*%
%ADD28R,5.600X5.600*%
G04:AMPARAMS|DCode=29|XSize=0.3mm|YSize=0.55mm|CornerRadius=0.03mm|HoleSize=0mm|Usage=FLASHONLY|Rotation=180.000|XOffset=0mm|YOffset=0mm|HoleType=Round|Shape=RoundedRectangle|*
%AMROUNDEDRECTD29*
21,1,0.300,0.490,0,0,180.0*
21,1,0.240,0.550,0,0,180.0*
1,1,0.060,-0.120,0.245*
1,1,0.060,0.120,0.245*
1,1,0.060,0.120,-0.245*
1,1,0.060,-0.120,-0.245*
%
%ADD29ROUNDEDRECTD29*%
G04:AMPARAMS|DCode=30|XSize=0.3mm|YSize=0.55mm|CornerRadius=0.03mm|HoleSize=0mm|Usage=FLASHONLY|Rotation=270.000|XOffset=0mm|YOffset=0mm|HoleType=Round|Shape=RoundedRectangle|*
%AMROUNDEDRECTD30*
21,1,0.300,0.490,0,0,270.0*
21,1,0.240,0.550,0,0,270.0*
1,1,0.060,-0.245,-0.120*
1,1,0.060,-0.245,0.120*
1,1,0.060,0.245,0.120*
1,1,0.060,0.245,-0.120*
%
%ADD30ROUNDEDRECTD30*%
G04:AMPARAMS|DCode=31|XSize=1.4mm|YSize=1.2mm|CornerRadius=0.12mm|HoleSize=0mm|Usage=FLASHONLY|Rotation=270.000|XOffset=0mm|YOffset=0mm|HoleType=Round|Shape=RoundedRectangle|*
%AMROUNDEDRECTD31*
21,1,1.400,0.960,0,0,270.0*
21,1,1.160,1.200,0,0,270.0*
1,1,0.240,-0.480,-0.580*
1,1,0.240,-0.480,0.580*
1,1,0.240,0.480,0.580*
1,1,0.240,0.480,-0.580*
%
%ADD31ROUNDEDRECTD31*%
G04:AMPARAMS|DCode=32|XSize=1mm|YSize=1.8mm|CornerRadius=0.1mm|HoleSize=0mm|Usage=FLASHONLY|Rotation=180.000|XOffset=0mm|YOffset=0mm|HoleType=Round|Shape=RoundedRectangle|*
%AMROUNDEDRECTD32*
21,1,1.000,1.600,0,0,180.0*
21,1,0.800,1.800,0,0,180.0*
1,1,0.200,-0.400,0.800*
1,1,0.200,0.400,0.800*
1,1,0.200,0.400,-0.800*
1,1,0.200,-0.400,-0.800*
%
%ADD32ROUNDEDRECTD32*%
G04:AMPARAMS|DCode=33|XSize=0.6mm|YSize=0.95mm|CornerRadius=0.06mm|HoleSize=0mm|Usage=FLASHONLY|Rotation=90.000|XOffset=0mm|YOffset=0mm|HoleType=Round|Shape=RoundedRectangle|*
%AMROUNDEDRECTD33*
21,1,0.600,0.830,0,0,90.0*
21,1,0.480,0.950,0,0,90.0*
1,1,0.120,0.415,0.240*
1,1,0.120,0.415,-0.240*
1,1,0.120,-0.415,-0.240*
1,1,0.120,-0.415,0.240*
%
%ADD33ROUNDEDRECTD33*%
G04:AMPARAMS|DCode=34|XSize=1mm|YSize=1.8mm|CornerRadius=0.1mm|HoleSize=0mm|Usage=FLASHONLY|Rotation=270.000|XOffset=0mm|YOffset=0mm|HoleType=Round|Shape=RoundedRectangle|*
%AMROUNDEDRECTD34*
21,1,1.000,1.600,0,0,270.0*
21,1,0.800,1.800,0,0,270.0*
1,1,0.200,-0.800,-0.400*
1,1,0.200,-0.800,0.400*
1,1,0.200,0.800,0.400*
1,1,0.200,0.800,-0.400*
%
%ADD34ROUNDEDRECTD34*%
G04:AMPARAMS|DCode=35|XSize=0.55mm|YSize=0.8mm|CornerRadius=0.055mm|HoleSize=0mm|Usage=FLASHONLY|Rotation=0.000|XOffset=0mm|YOffset=0mm|HoleType=Round|Shape=RoundedRectangle|*
%AMROUNDEDRECTD35*
21,1,0.550,0.690,0,0,0.0*
21,1,0.440,0.800,0,0,0.0*
1,1,0.110,0.220,-0.345*
1,1,0.110,-0.220,-0.345*
1,1,0.110,-0.220,0.345*
1,1,0.110,0.220,0.345*
%
%ADD35ROUNDEDRECTD35*%
G04:AMPARAMS|DCode=36|XSize=0.55mm|YSize=0.8mm|CornerRadius=0.055mm|HoleSize=0mm|Usage=FLASHONLY|Rotation=90.000|XOffset=0mm|YOffset=0mm|HoleType=Round|Shape=RoundedRectangle|*
%AMROUNDEDRECTD36*
21,1,0.550,0.690,0,0,90.0*
21,1,0.440,0.800,0,0,90.0*
1,1,0.110,0.345,0.220*
1,1,0.110,0.345,-0.220*
1,1,0.110,-0.345,-0.220*
1,1,0.110,-0.345,0.220*
%
%ADD36ROUNDEDRECTD36*%
G04:AMPARAMS|DCode=37|XSize=1.5mm|YSize=3.6mm|CornerRadius=0.15mm|HoleSize=0mm|Usage=FLASHONLY|Rotation=180.000|XOffset=0mm|YOffset=0mm|HoleType=Round|Shape=RoundedRectangle|*
%AMROUNDEDRECTD37*
21,1,1.500,3.300,0,0,180.0*
21,1,1.200,3.600,0,0,180.0*
1,1,0.300,-0.600,1.650*
1,1,0.300,0.600,1.650*
1,1,0.300,0.600,-1.650*
1,1,0.300,-0.600,-1.650*
%
%ADD37ROUNDEDRECTD37*%
G04:AMPARAMS|DCode=38|XSize=1.1mm|YSize=3.7mm|CornerRadius=0.11mm|HoleSize=0mm|Usage=FLASHONLY|Rotation=0.000|XOffset=0mm|YOffset=0mm|HoleType=Round|Shape=RoundedRectangle|*
%AMROUNDEDRECTD38*
21,1,1.100,3.480,0,0,0.0*
21,1,0.880,3.700,0,0,0.0*
1,1,0.220,0.440,-1.740*
1,1,0.220,-0.440,-1.740*
1,1,0.220,-0.440,1.740*
1,1,0.220,0.440,1.740*
%
%ADD38ROUNDEDRECTD38*%
G04:AMPARAMS|DCode=39|XSize=1.9mm|YSize=1.7mm|CornerRadius=0.17mm|HoleSize=0mm|Usage=FLASHONLY|Rotation=90.000|XOffset=0mm|YOffset=0mm|HoleType=Round|Shape=RoundedRectangle|*
%AMROUNDEDRECTD39*
21,1,1.900,1.360,0,0,90.0*
21,1,1.560,1.700,0,0,90.0*
1,1,0.340,0.680,0.780*
1,1,0.340,0.680,-0.780*
1,1,0.340,-0.680,-0.780*
1,1,0.340,-0.680,0.780*
%
%ADD39ROUNDEDRECTD39*%
%ADD77C,1.000*%
%ADD78C,2.000*%
G04:AMPARAMS|DCode=79|XSize=2mm|YSize=2mm|CornerRadius=0.2mm|HoleSize=0mm|Usage=FLASHONLY|Rotation=90.000|XOffset=0mm|YOffset=0mm|HoleType=Round|Shape=RoundedRectangle|*
%AMROUNDEDRECTD79*
21,1,2.000,1.600,0,0,90.0*
21,1,1.600,2.000,0,0,90.0*
1,1,0.400,0.800,0.800*
1,1,0.400,0.800,-0.800*
1,1,0.400,-0.800,-0.800*
1,1,0.400,-0.800,0.800*
%
%ADD79ROUNDEDRECTD79*%
%ADD80C,0.500*%
%ADD81C,0.200*%
%ADD82C,0.300*%
%ADD83C,0.146*%
%ADD84C,0.400*%
%ADD85C,0.800*%
%ADD86C,1.000*%
%ADD87C,0.320*%
%ADD88C,0.700*%
%ADD89C,0.600*%
%ADD90C,1.800*%
%ADD91C,1.500*%
G04:AMPARAMS|DCode=92|XSize=1.5mm|YSize=1.5mm|CornerRadius=0.15mm|HoleSize=0mm|Usage=FLASHONLY|Rotation=0.000|XOffset=0mm|YOffset=0mm|HoleType=Round|Shape=RoundedRectangle|*
%AMROUNDEDRECTD92*
21,1,1.500,1.200,0,0,0.0*
21,1,1.200,1.500,0,0,0.0*
1,1,0.300,0.600,-0.600*
1,1,0.300,-0.600,-0.600*
1,1,0.300,-0.600,0.600*
1,1,0.300,0.600,0.600*
%
%ADD92ROUNDEDRECTD92*%
G04:AMPARAMS|DCode=93|XSize=1.5mm|YSize=1.5mm|CornerRadius=0.15mm|HoleSize=0mm|Usage=FLASHONLY|Rotation=270.000|XOffset=0mm|YOffset=0mm|HoleType=Round|Shape=RoundedRectangle|*
%AMROUNDEDRECTD93*
21,1,1.500,1.200,0,0,270.0*
21,1,1.200,1.500,0,0,270.0*
1,1,0.300,-0.600,-0.600*
1,1,0.300,-0.600,0.600*
1,1,0.300,0.600,0.600*
1,1,0.300,0.600,-0.600*
%
%ADD93ROUNDEDRECTD93*%
%ADD94O,1.100X2.100*%
%ADD95O,1.100X2.600*%
%ADD96C,0.500*%
G36*
X40000Y24500D02*
Y24000D01*
X39750Y23750D01*
Y23500D01*
X39250D01*
X38778Y23972D01*
X38768Y24021D01*
X38733Y24073D01*
X38681Y24108D01*
X38632Y24118D01*
X38500Y24250D01*
Y24500D01*
X38750Y24750D01*
X39750D01*
X40000Y24500D01*
D02*
G37*
G36*
X34000D02*
Y24250D01*
X33868Y24118D01*
X33819Y24108D01*
X33767Y24073D01*
X33732Y24021D01*
X33722Y23972D01*
X33250Y23500D01*
X32750D01*
X32750Y23750D01*
X32500Y24000D01*
X32500Y24500D01*
X32750Y24750D01*
X33750D01*
X34000Y24500D01*
D02*
G37*
G36*
X27250Y23250D02*
Y22750D01*
X26750Y22250D01*
X26250D01*
X25750Y22750D01*
Y23250D01*
X26000Y23500D01*
X27000D01*
X27250Y23250D01*
D02*
G37*
G36*
X8500Y17500D02*
Y16250D01*
X8250Y16000D01*
X4250D01*
X4000Y16250D01*
Y17500D01*
X4500D01*
X4819Y17181D01*
Y17145D01*
X4834Y17072D01*
X4875Y17010D01*
X4937Y16969D01*
X5010Y16954D01*
X5490D01*
X5563Y16969D01*
X5625Y17010D01*
X5666Y17072D01*
X5681Y17145D01*
Y17431D01*
X5750Y17500D01*
X6000Y17750D01*
X8250D01*
X8500Y17500D01*
D02*
G37*
G36*
X40250Y3250D02*
Y1750D01*
X40000Y1500D01*
X39000D01*
X38500Y2000D01*
Y3000D01*
X39000Y3500D01*
X40000D01*
X40250Y3250D01*
D02*
G37*
G36*
X25500D02*
Y1750D01*
X25250Y1500D01*
X24250D01*
X23750Y2000D01*
Y3000D01*
X24250Y3500D01*
X25250D01*
X25500Y3250D01*
D02*
G37*
G36*
X28250Y750D02*
X28000Y500D01*
X27000D01*
X26250Y1250D01*
Y2000D01*
X27500Y3250D01*
X28250D01*
Y750D01*
D02*
G37*
G36*
X59250Y14250D02*
X57750D01*
X57500Y14000D01*
X54750D01*
X54500Y14250D01*
Y15250D01*
X55250Y16000D01*
X59250D01*
Y14250D01*
D02*
G37*
G36*
X55000Y3250D02*
Y1750D01*
X54750Y1500D01*
X53750D01*
X53250Y2000D01*
Y3000D01*
X53750Y3500D01*
X54750D01*
X55000Y3250D01*
D02*
G37*
G36*
X57750Y750D02*
X57500Y500D01*
X56500D01*
X55750Y1250D01*
Y2000D01*
X57000Y3250D01*
X57750D01*
Y750D01*
D02*
G37*
G36*
X43000D02*
X42750Y500D01*
X41750D01*
X41000Y1250D01*
Y2000D01*
X42250Y3250D01*
X43000D01*
Y750D01*
D02*
G37*
G36*
X47000Y16250D02*
X45000D01*
X43750Y17500D01*
Y18250D01*
X47000D01*
Y16250D01*
D02*
G37*
G36*
X47900Y24600D02*
Y23700D01*
X43100D01*
X42900Y23900D01*
Y25200D01*
X43000Y25300D01*
X47200D01*
X47900Y24600D01*
D02*
G37*
G36*
X57000Y19750D02*
Y18750D01*
X56500Y18250D01*
X55000D01*
X54500Y18750D01*
Y19750D01*
X54750Y20000D01*
X56750D01*
X57000Y19750D01*
D02*
G37*
G36*
X56000Y25500D02*
X56750D01*
Y25000D01*
X55750Y24000D01*
Y23000D01*
X54750D01*
X54000Y23750D01*
X53500D01*
X53250Y24000D01*
Y24250D01*
X53750Y24750D01*
Y24925D01*
X53900Y25023D01*
X53902Y25023D01*
X54000Y25010D01*
X55000D01*
X55098Y25023D01*
X55190Y25061D01*
X55269Y25121D01*
X55329Y25200D01*
X55367Y25292D01*
X55380Y25390D01*
Y25750D01*
X55750D01*
X56000Y25500D01*
D02*
G37*
D12*
X41000Y19750D02*
X41685Y20435D01*
X42000D01*
X30750Y9500D02*
X31805Y10555D01*
Y14457D01*
X29000Y12550D02*
X29700Y13250D01*
X29750D01*
X19750Y12000D02*
X23250D01*
X23500Y11750D01*
X17000Y16349D02*
X18069Y15281D01*
Y13431D02*
X19250Y12250D01*
X18069Y13431D02*
Y15281D01*
X17744Y13256D02*
Y15212D01*
Y13256D02*
X18750Y12250D01*
X16315Y16641D02*
X17744Y15212D01*
X16315Y16641D02*
Y16750D01*
X12838Y15935D02*
X13425Y16522D01*
X12913Y22654D02*
X13425Y22142D01*
Y16522D02*
Y22142D01*
X13720Y16240D02*
Y22322D01*
X12914Y15434D02*
X13720Y16240D01*
X13250Y22791D02*
X13720Y22322D01*
X12913Y22654D02*
Y23087D01*
X13250Y22791D02*
Y23500D01*
X14014Y20264D02*
X14250Y20500D01*
X14014Y15859D02*
Y20264D01*
X41825Y14750D02*
X42325Y14250D01*
X42750D01*
X43324Y21714D02*
X43750Y22140D01*
X43324Y17114D02*
Y21714D01*
Y17114D02*
X44595Y15843D01*
X46357D01*
X47200Y15000D01*
X47315D01*
X48065Y14250D01*
X48815Y13721D02*
Y14500D01*
Y13721D02*
X49067Y13469D01*
X8500Y12875D02*
Y13600D01*
X7520Y13998D02*
X8000Y13518D01*
Y12875D02*
Y13518D01*
X9000Y12875D02*
Y14008D01*
X8925Y14083D02*
X9000Y14008D01*
X9500Y13385D02*
X10193Y14078D01*
X9500Y12875D02*
Y13385D01*
X10000Y12875D02*
Y13242D01*
X11008Y14250D02*
X11623D01*
X10000Y13242D02*
X11008Y14250D01*
X10737Y13534D02*
X11071D01*
X10500Y12875D02*
Y13297D01*
X10737Y13534D01*
X11500Y13345D02*
X14014Y15859D01*
X11500Y12875D02*
Y13345D01*
X13763Y15161D02*
X14750Y16148D01*
X13763Y11808D02*
Y15161D01*
X14750Y16148D02*
Y18315D01*
X12625Y12875D02*
X13000Y13250D01*
X12000Y12875D02*
X12625D01*
X35000Y15250D02*
X36435D01*
X37185Y16000D01*
X56315Y27205D02*
Y28500D01*
X56310Y26505D02*
Y27200D01*
Y26505D02*
X56315Y26500D01*
X44000Y9075D02*
Y9976D01*
X41022Y10000D02*
X42250D01*
X40750Y9728D02*
X41022Y10000D01*
X12625Y7750D02*
X14000D01*
X14000Y7750D01*
X13433Y8250D02*
X13449Y8265D01*
X12625Y8250D02*
X13433D01*
X7000Y4250D02*
Y6125D01*
X6500Y3750D02*
X7000Y4250D01*
X14000Y10500D02*
Y11294D01*
X14270Y11564D01*
Y12669D01*
X14595Y12994D01*
X12625Y9750D02*
X13250D01*
X14000Y10500D01*
X17235Y4200D02*
X17250Y4185D01*
X16000Y4200D02*
X17235D01*
X17250Y4185D02*
X18223Y5158D01*
Y12170D01*
X17399Y12994D02*
X18223Y12170D01*
X14595Y12994D02*
X17399D01*
X17000Y16349D02*
Y17315D01*
X16315Y18000D02*
X17000Y17315D01*
X18750Y4000D02*
Y12250D01*
X19250Y3500D02*
Y12250D01*
X11000Y5500D02*
Y6125D01*
X10500Y5000D02*
X10500Y5000D01*
Y6125D01*
X13205Y11250D02*
X13763Y11808D01*
X12625Y11250D02*
X13205D01*
X12625Y12250D02*
X13250D01*
X7500Y4000D02*
Y6125D01*
Y4000D02*
X7500Y4000D01*
X8000Y5250D02*
X8000Y5250D01*
X8000Y5250D02*
Y6125D01*
X8500Y3000D02*
X8750Y2750D01*
X8500Y3000D02*
Y6125D01*
X30750Y8250D02*
X30750Y8250D01*
X30575Y8250D02*
X30750D01*
X30750Y8250D02*
Y9500D01*
X12250Y4113D02*
Y4250D01*
X11000Y2863D02*
X12250Y4113D01*
X11000Y2815D02*
Y2863D01*
X9685Y24250D02*
X11768D01*
X9000Y24935D02*
X9685Y24250D01*
X11768D02*
X12018Y24000D01*
X12500Y23500D02*
X12913Y23087D01*
X15000Y20850D02*
Y21750D01*
X15250Y22000D01*
X15387Y22137D02*
Y23504D01*
X30315Y20500D02*
Y21750D01*
X4457Y11519D02*
X4726Y11250D01*
X4706Y10250D02*
X5875D01*
X4462Y10493D02*
X4706Y10250D01*
X3040Y12851D02*
X3953Y11938D01*
Y9728D02*
Y11938D01*
X4657Y9500D02*
X4907Y9750D01*
X5875D01*
X4726Y11250D02*
X5875D01*
X11000Y22750D02*
Y23565D01*
Y22750D02*
X11000Y22750D01*
X38000Y25250D02*
X40075D01*
X41500Y23825D01*
Y21560D02*
Y23825D01*
X38675Y18735D02*
X41500Y21560D01*
X38675Y16750D02*
Y18735D01*
X37185Y14438D02*
Y14500D01*
Y14438D02*
X38773Y12850D01*
X37185Y16000D02*
X37248D01*
X38498Y14750D02*
X38675D01*
X37248Y16000D02*
X38498Y14750D01*
X41825D02*
Y16750D01*
X49435Y25161D02*
Y25750D01*
X49075Y24801D02*
X49435Y25161D01*
X49075Y24060D02*
Y24801D01*
X31685Y20500D02*
X32500D01*
X27250Y19750D02*
Y21010D01*
X26760Y21500D02*
X27250Y21010D01*
X26560Y21500D02*
X26760D01*
X22750Y20250D02*
Y20685D01*
X23565Y21500D01*
Y22615D02*
Y22750D01*
X22250Y21300D02*
X23565Y22615D01*
X20700Y20810D02*
X21760D01*
X22250Y21300D01*
X16315Y19500D02*
Y22055D01*
X15950Y22420D02*
Y23150D01*
Y22420D02*
X16315Y22055D01*
X9000Y3500D02*
Y6125D01*
X9500Y5250D02*
Y6125D01*
X5180Y9114D02*
X5315Y9250D01*
X5875D01*
X12625Y9750D02*
X12625Y9750D01*
X3040Y12851D02*
Y14876D01*
X2804Y15112D02*
X3040Y14876D01*
X2804Y15112D02*
Y15736D01*
X1750Y16790D02*
X2804Y15736D01*
X1750Y14250D02*
X2613Y13387D01*
Y12651D02*
X3500Y11764D01*
X2613Y12651D02*
Y13387D01*
X3500Y8493D02*
Y11764D01*
X3398Y13297D02*
Y14939D01*
X4945Y11750D02*
X5875D01*
X3398Y13297D02*
X4945Y11750D01*
X3137Y15200D02*
Y21753D01*
Y15200D02*
X3398Y14939D01*
X3750Y13600D02*
X3850Y13500D01*
X3475Y15311D02*
X3750Y15036D01*
Y13600D02*
Y15036D01*
X3475Y15311D02*
Y21465D01*
X4039Y14016D02*
X4359Y13696D01*
Y13295D02*
X5403Y12250D01*
X4359Y13295D02*
Y13696D01*
X5403Y12250D02*
X5875D01*
X4039Y14016D02*
Y15202D01*
X3786Y15456D02*
X4039Y15202D01*
X3786Y15456D02*
Y18110D01*
X4789Y19113D01*
X6469D01*
X3475Y21465D02*
X3986Y21977D01*
X3137Y21753D02*
X3690Y22306D01*
X3986Y21977D02*
X4478D01*
X4994Y22493D01*
Y23679D01*
X7500Y26185D01*
X4530Y25595D02*
X5185Y26250D01*
X4294Y22306D02*
X4530Y22542D01*
Y25595D01*
X3690Y22306D02*
X4294D01*
X9450Y21250D02*
X10550Y20150D01*
Y19509D02*
Y20150D01*
X8175Y20045D02*
X8720Y19500D01*
X9750D01*
X7401Y20045D02*
X8175D01*
X6469Y19113D02*
X7401Y20045D01*
X15050Y10850D02*
X15300Y10600D01*
X15050Y10850D02*
Y12250D01*
X12625Y8750D02*
X13999D01*
X14625Y9376D01*
X16224D01*
X17200Y8400D01*
X17250Y8350D01*
Y6950D02*
Y8350D01*
X13449Y7250D02*
X13770Y6929D01*
X12625Y7250D02*
X13449D01*
X11759Y4944D02*
X12347D01*
X13770Y6366D02*
Y6929D01*
X12347Y4944D02*
X13770Y6366D01*
X11000Y4185D02*
X11759Y4944D01*
X9750Y4185D02*
X10000Y4435D01*
Y6125D01*
X12018Y24000D02*
X14890D01*
X15387Y23504D01*
X16130Y19685D02*
X16315Y19500D01*
X14750Y19685D02*
X16130D01*
X11350Y15860D02*
X11776Y15434D01*
X12914D01*
X12500Y15935D02*
X12838D01*
X11750Y16269D02*
Y16500D01*
X12084Y15935D02*
X12500D01*
X11750Y16269D02*
X12084Y15935D01*
X11350Y15860D02*
Y16500D01*
X4243Y7750D02*
X5875D01*
X3500Y8493D02*
X4243Y7750D01*
X2236Y4564D02*
Y7402D01*
X3100Y8265D01*
Y10400D01*
X2236Y4564D02*
X2700Y4100D01*
X5000D01*
X6500Y5600D02*
Y6125D01*
X5000Y4100D02*
X6500Y5600D01*
X1790Y11710D02*
X3100Y10400D01*
X1750Y11710D02*
X1790D01*
X49435Y27000D02*
X49435Y27000D01*
Y25750D02*
Y27000D01*
X11000Y23565D02*
X11000Y23565D01*
X9000Y23565D02*
X11000D01*
X9000Y24935D02*
X9050Y24985D01*
Y26310D01*
X13950Y9250D02*
X15300Y10600D01*
X12625Y9250D02*
X13950D01*
X30265Y20550D02*
X30315Y20500D01*
X28940Y20550D02*
X30265D01*
X25235D02*
X26560D01*
X24935Y20250D02*
X25235Y20550D01*
X24935Y21500D02*
X24935Y21500D01*
X26560D01*
X34685Y21435D02*
X34750Y21500D01*
X34685Y20500D02*
Y21435D01*
X37250Y21065D02*
Y22290D01*
Y21065D02*
X37815Y20500D01*
X27750Y9075D02*
Y9750D01*
X27500Y10000D02*
X27750Y9750D01*
X26250Y10000D02*
X27500D01*
X42500Y9075D02*
Y9750D01*
X42250Y10000D02*
X42500Y9750D01*
X55750Y10000D02*
X57000D01*
X57250Y9750D01*
Y9075D02*
Y9750D01*
X26500Y3500D02*
X26902D01*
X27250Y3848D01*
Y4425D01*
X41250Y3500D02*
X41652D01*
X42000Y3848D01*
Y4425D01*
X56750Y3848D02*
Y4425D01*
X56402Y3500D02*
X56750Y3848D01*
X56000Y3500D02*
X56402D01*
X29000Y12550D02*
X29050Y12500D01*
X43750Y12550D02*
Y13500D01*
Y12550D02*
X43800Y12500D01*
X58500Y12550D02*
X58550Y12500D01*
X58500Y12550D02*
Y13500D01*
X60815D01*
X61815Y12500D01*
X58250Y9075D02*
Y10178D01*
X58508Y10436D01*
X59080D01*
X59258Y10614D01*
Y11792D01*
X58550Y12500D02*
X59258Y11792D01*
X43500Y9075D02*
Y10178D01*
X43758Y10436D01*
X44330D01*
X44508Y10614D01*
Y11792D01*
X43800Y12500D02*
X44508Y11792D01*
X29050Y12500D02*
X29758Y11792D01*
Y10614D02*
Y11792D01*
X29580Y10436D02*
X29758Y10614D01*
X29008Y10436D02*
X29580D01*
X28750Y10178D02*
X29008Y10436D01*
X28750Y9075D02*
Y10178D01*
X28691Y2359D02*
X29500Y1550D01*
X28250Y3888D02*
X28691Y3447D01*
X28250Y3888D02*
Y4425D01*
X28691Y2359D02*
Y3447D01*
X28750Y3959D02*
Y4425D01*
Y3959D02*
X29125Y3584D01*
X29125Y2950D02*
X29500D01*
X29125Y2950D02*
Y3584D01*
X29250Y3968D02*
Y4425D01*
Y3968D02*
X29581Y3637D01*
X30063D01*
X30750Y2950D01*
X29250Y9767D02*
X29346Y9863D01*
X29250Y9075D02*
Y9767D01*
X43441Y2359D02*
X44250Y1550D01*
X43000Y3888D02*
X43441Y3447D01*
X43000Y3888D02*
Y4425D01*
X43441Y2359D02*
Y3447D01*
X43500Y3959D02*
Y4425D01*
Y3959D02*
X43875Y3584D01*
X43875Y2950D02*
X44250D01*
X43875Y2950D02*
Y3584D01*
X44000Y3968D02*
Y4425D01*
Y3968D02*
X44331Y3637D01*
X44813D01*
X45500Y2950D01*
X58750Y9075D02*
Y9767D01*
X58846Y9863D01*
X59563Y3637D02*
X60250Y2950D01*
X59081Y3637D02*
X59563D01*
X58750Y3968D02*
X59081Y3637D01*
X58750Y3968D02*
Y4425D01*
X58625Y2950D02*
Y3584D01*
Y2950D02*
X58625Y2950D01*
X59000D01*
X58250Y3959D02*
X58625Y3584D01*
X58250Y3959D02*
Y4425D01*
X58191Y2359D02*
Y3447D01*
X57750Y3888D02*
Y4425D01*
Y3888D02*
X58191Y3447D01*
Y2359D02*
X59000Y1550D01*
D13*
X47200Y15000D02*
D03*
X45800D02*
D03*
X19300Y28000D02*
D03*
X20700D02*
D03*
X9450Y21250D02*
D03*
X8050D02*
D03*
X10700Y15000D02*
D03*
X9300D02*
D03*
X63200Y11250D02*
D03*
X61800D02*
D03*
X59950Y11250D02*
D03*
X58550D02*
D03*
Y12500D02*
D03*
X59950D02*
D03*
X45200Y11250D02*
D03*
X43800D02*
D03*
Y12500D02*
D03*
X45200D02*
D03*
X30450Y11250D02*
D03*
X29050D02*
D03*
Y12500D02*
D03*
X30450D02*
D03*
X15050Y12250D02*
D03*
X16450Y12250D02*
D03*
X14550Y6750D02*
D03*
X15950D02*
D03*
X15050Y15000D02*
D03*
X16450D02*
D03*
Y13750D02*
D03*
X15050D02*
D03*
X56700Y13000D02*
D03*
X55300D02*
D03*
X41950D02*
D03*
X40550D02*
D03*
X27200D02*
D03*
X25800D02*
D03*
D14*
X9250Y19000D02*
D03*
Y18600D02*
D03*
Y18200D02*
D03*
Y17800D02*
D03*
Y17400D02*
D03*
Y17000D02*
D03*
X12250D02*
D03*
Y17400D02*
D03*
Y17800D02*
D03*
Y18200D02*
D03*
Y18600D02*
D03*
Y19000D02*
D03*
D15*
X11750Y19500D02*
D03*
X11350D02*
D03*
X10950D02*
D03*
X10550D02*
D03*
X10150D02*
D03*
X9750D02*
D03*
X11750Y16500D02*
D03*
X11350D02*
D03*
X10950D02*
D03*
X10550D02*
D03*
X10150D02*
D03*
X9750D02*
D03*
D16*
X15815Y28000D02*
D03*
X17185D02*
D03*
X13685D02*
D03*
X12315D02*
D03*
X37185Y16000D02*
D03*
X35815D02*
D03*
X24935Y21500D02*
D03*
X23565D02*
D03*
X48815Y14500D02*
D03*
X50185D02*
D03*
X37185D02*
D03*
X35815D02*
D03*
X3815Y26250D02*
D03*
X5185D02*
D03*
X16315Y18000D02*
D03*
X17685D02*
D03*
X63185Y12500D02*
D03*
X61815D02*
D03*
X16315Y16750D02*
D03*
X17685D02*
D03*
X49435Y25750D02*
D03*
X48065Y25750D02*
D03*
X17685Y19500D02*
D03*
X16315D02*
D03*
X48065Y27000D02*
D03*
X49435D02*
D03*
X58815Y28500D02*
D03*
X60185Y28500D02*
D03*
X56315Y28500D02*
D03*
X57685Y28500D02*
D03*
X5935Y21250D02*
D03*
X4565Y21250D02*
D03*
X24935Y22750D02*
D03*
X23565D02*
D03*
X30315Y20500D02*
D03*
X31685Y20500D02*
D03*
X23565Y20250D02*
D03*
X24935D02*
D03*
X39185Y20500D02*
D03*
X37815D02*
D03*
X33315D02*
D03*
X34685D02*
D03*
D17*
X43000Y6750D02*
D03*
X57750D02*
D03*
X28250D02*
D03*
D18*
X40675Y5250D02*
D03*
Y5750D02*
D03*
Y6250D02*
D03*
Y6750D02*
D03*
Y7250D02*
D03*
Y7750D02*
D03*
Y8250D02*
D03*
X45325D02*
D03*
Y7750D02*
D03*
Y7250D02*
D03*
Y6750D02*
D03*
Y6250D02*
D03*
Y5750D02*
D03*
Y5250D02*
D03*
X55425D02*
D03*
Y5750D02*
D03*
Y6250D02*
D03*
Y6750D02*
D03*
Y7250D02*
D03*
Y7750D02*
D03*
Y8250D02*
D03*
X60075D02*
D03*
Y7750D02*
D03*
Y7250D02*
D03*
Y6750D02*
D03*
Y6250D02*
D03*
Y5750D02*
D03*
Y5250D02*
D03*
X25925D02*
D03*
Y5750D02*
D03*
Y6250D02*
D03*
Y6750D02*
D03*
Y7250D02*
D03*
Y7750D02*
D03*
Y8250D02*
D03*
X30575D02*
D03*
Y7750D02*
D03*
Y7250D02*
D03*
Y6750D02*
D03*
Y6250D02*
D03*
Y5750D02*
D03*
Y5250D02*
D03*
D19*
X41500Y9075D02*
D03*
X42000D02*
D03*
X42500D02*
D03*
X43000D02*
D03*
X43500D02*
D03*
X44000D02*
D03*
X44500D02*
D03*
Y4425D02*
D03*
X44000D02*
D03*
X43500D02*
D03*
X43000D02*
D03*
X42500D02*
D03*
X42000D02*
D03*
X41500D02*
D03*
X56250Y9075D02*
D03*
X56750D02*
D03*
X57250D02*
D03*
X57750D02*
D03*
X58250D02*
D03*
X58750D02*
D03*
X59250D02*
D03*
Y4425D02*
D03*
X58750D02*
D03*
X58250D02*
D03*
X57750D02*
D03*
X57250D02*
D03*
X56750D02*
D03*
X56250D02*
D03*
X26750Y9075D02*
D03*
X27250D02*
D03*
X27750D02*
D03*
X28250D02*
D03*
X28750D02*
D03*
X29250D02*
D03*
X29750D02*
D03*
Y4425D02*
D03*
X29250D02*
D03*
X28750D02*
D03*
X28250D02*
D03*
X27750D02*
D03*
X27250D02*
D03*
X26750D02*
D03*
D20*
X4750Y14800D02*
D03*
Y16200D02*
D03*
X7250Y14800D02*
D03*
Y16200D02*
D03*
X7750Y18700D02*
D03*
Y17300D02*
D03*
X17250Y6950D02*
D03*
X17250Y5550D02*
D03*
X16000Y4200D02*
D03*
Y2800D02*
D03*
X4250Y5550D02*
D03*
X4250Y6950D02*
D03*
X6000Y14800D02*
D03*
Y16200D02*
D03*
X3000Y6950D02*
D03*
X3000Y5550D02*
D03*
X14750Y2800D02*
D03*
X14750Y4200D02*
D03*
X13500Y2800D02*
D03*
Y4200D02*
D03*
X60250Y2950D02*
D03*
Y1550D02*
D03*
X59000Y2950D02*
D03*
Y1550D02*
D03*
X61500Y3300D02*
D03*
Y4700D02*
D03*
X45500Y2950D02*
D03*
Y1550D02*
D03*
X44250Y2950D02*
D03*
Y1550D02*
D03*
X46750Y3300D02*
D03*
Y4700D02*
D03*
X30750Y2950D02*
D03*
Y1550D02*
D03*
X29500Y2950D02*
D03*
Y1550D02*
D03*
X32000Y3300D02*
D03*
Y4700D02*
D03*
X42750Y28200D02*
D03*
X42750Y26800D02*
D03*
X53750Y22550D02*
D03*
X53750Y23950D02*
D03*
X22250Y22700D02*
D03*
Y21300D02*
D03*
X51000Y22300D02*
D03*
Y23700D02*
D03*
D21*
X38675Y16750D02*
D03*
X41825D02*
D03*
X38675Y14750D02*
D03*
X41825D02*
D03*
D22*
X7500Y27315D02*
D03*
Y28685D02*
D03*
Y24815D02*
D03*
Y26185D02*
D03*
X11000Y2815D02*
D03*
Y4185D02*
D03*
X42000Y20435D02*
D03*
Y19065D02*
D03*
X62500Y15435D02*
D03*
Y14065D02*
D03*
X9000Y24935D02*
D03*
X9000Y23565D02*
D03*
X17250Y4185D02*
D03*
Y2815D02*
D03*
X9750D02*
D03*
X9750Y4185D02*
D03*
X2500Y23065D02*
D03*
Y24435D02*
D03*
X60250Y27185D02*
D03*
X60250Y25815D02*
D03*
X14750Y19685D02*
D03*
Y18315D02*
D03*
X11000Y23565D02*
D03*
Y24935D02*
D03*
D23*
X12250Y4250D02*
D03*
Y2750D02*
D03*
D24*
X49725Y24060D02*
D03*
X49075Y24060D02*
D03*
X48425Y24060D02*
D03*
X47775Y24060D02*
D03*
Y21440D02*
D03*
X48425Y21440D02*
D03*
X49075Y21440D02*
D03*
X49725Y21440D02*
D03*
D25*
X39250Y22290D02*
D03*
X38750D02*
D03*
X38250D02*
D03*
X37750D02*
D03*
X37250D02*
D03*
X36750Y22290D02*
D03*
X35750D02*
D03*
X35250Y22290D02*
D03*
X34750D02*
D03*
X34250D02*
D03*
X33750D02*
D03*
X33250D02*
D03*
X34000Y23640D02*
D03*
X34500D02*
D03*
X35000D02*
D03*
X35500D02*
D03*
X36000D02*
D03*
X36500D02*
D03*
X37000D02*
D03*
X37500D02*
D03*
X38000D02*
D03*
X38500D02*
D03*
D26*
X33150D02*
D03*
X39350D02*
D03*
D27*
X6200Y19940D02*
D03*
X4300D02*
D03*
X5250Y17560D02*
D03*
X9050Y26310D02*
D03*
X10950D02*
D03*
X10000Y28690D02*
D03*
X19750Y23190D02*
D03*
X20700Y20810D02*
D03*
X18800D02*
D03*
D28*
X9250Y9500D02*
D03*
D29*
X12000Y6125D02*
D03*
X11500Y6125D02*
D03*
X11000D02*
D03*
X10500D02*
D03*
X10000Y6125D02*
D03*
X9500Y6125D02*
D03*
X9000D02*
D03*
X8500Y6125D02*
D03*
X8000D02*
D03*
X7500D02*
D03*
X7000D02*
D03*
X6500Y6125D02*
D03*
Y12875D02*
D03*
X7000D02*
D03*
X7500D02*
D03*
X8000D02*
D03*
X8500D02*
D03*
X9000D02*
D03*
X9500D02*
D03*
X10000D02*
D03*
X10500D02*
D03*
X11000D02*
D03*
X11500D02*
D03*
X12000D02*
D03*
D30*
X5875Y6750D02*
D03*
Y7250D02*
D03*
X5875Y7750D02*
D03*
Y8250D02*
D03*
Y8750D02*
D03*
Y9250D02*
D03*
Y9750D02*
D03*
Y10250D02*
D03*
Y10750D02*
D03*
Y11250D02*
D03*
Y11750D02*
D03*
Y12250D02*
D03*
X12625D02*
D03*
Y11750D02*
D03*
Y11250D02*
D03*
Y10750D02*
D03*
Y10250D02*
D03*
Y9750D02*
D03*
Y9250D02*
D03*
Y8750D02*
D03*
Y8250D02*
D03*
Y7750D02*
D03*
Y7250D02*
D03*
Y6750D02*
D03*
D31*
X17200Y10600D02*
D03*
Y8400D02*
D03*
X15300Y8400D02*
D03*
X15300Y10600D02*
D03*
D32*
X57360Y2500D02*
D03*
X54640D02*
D03*
X57360Y11250D02*
D03*
X54640D02*
D03*
X42610Y2500D02*
D03*
X39890D02*
D03*
X42610Y11250D02*
D03*
X39890D02*
D03*
X27860Y2500D02*
D03*
X25140D02*
D03*
X27860Y11250D02*
D03*
X25140D02*
D03*
D33*
X44060Y28450D02*
D03*
Y26550D02*
D03*
X46440Y27500D02*
D03*
X58690Y25300D02*
D03*
X58690Y26250D02*
D03*
X58690Y27200D02*
D03*
X56310D02*
D03*
Y25300D02*
D03*
X28940Y20550D02*
D03*
X28940Y21500D02*
D03*
X28940Y22450D02*
D03*
X26560D02*
D03*
X26560Y21500D02*
D03*
X26560Y20550D02*
D03*
D34*
X55750Y18360D02*
D03*
Y15640D02*
D03*
X54500Y28110D02*
D03*
Y25390D02*
D03*
X44500Y20610D02*
D03*
Y17890D02*
D03*
X43750Y24860D02*
D03*
Y22140D02*
D03*
X46000Y24860D02*
D03*
Y22140D02*
D03*
D35*
X15000Y20850D02*
D03*
X14050Y23150D02*
D03*
X15950D02*
D03*
D36*
X6150Y23750D02*
D03*
X3850Y22800D02*
D03*
X3850Y24700D02*
D03*
D37*
X50750Y18000D02*
D03*
X46750Y18000D02*
D03*
D38*
X58250Y22500D02*
D03*
X55250D02*
D03*
D39*
X58750Y15100D02*
D03*
X58750Y18900D02*
D03*
D77*
X63500Y1500D02*
D03*
X2000Y1750D02*
D03*
X51500Y28500D02*
D03*
D78*
X1750Y19330D02*
D03*
Y16790D02*
D03*
Y14250D02*
D03*
Y11710D02*
D03*
D79*
Y9170D02*
D03*
D80*
X27000Y10500D02*
X27250Y10750D01*
X27860D01*
X27000Y12000D02*
X27250Y11750D01*
X27860D01*
X43250Y22140D02*
Y23000D01*
X59950Y10000D02*
X59950Y10000D01*
X62750D01*
X63750D01*
X54000Y25390D02*
Y26250D01*
X44250Y23000D02*
X44250Y22140D01*
Y22140D02*
Y22140D01*
X55000Y25390D02*
Y26250D01*
X55000Y25390D02*
X55000Y25390D01*
X54500Y25390D02*
X55000D01*
X54000D02*
X54500D01*
X44110Y28500D02*
X45250D01*
X44060Y28450D02*
X44110Y28500D01*
X43310Y28200D02*
X43560Y28450D01*
X42750Y28200D02*
X43310D01*
X43560Y28450D02*
X44060D01*
X43560Y26550D02*
X44060D01*
X42750Y26800D02*
X43310D01*
X43560Y26550D01*
X44060D02*
X44110Y26500D01*
X45250D01*
X47000Y20750D02*
X47553D01*
X47775Y20972D01*
Y21440D01*
X23398Y23779D02*
X25369Y25750D01*
X22250Y22945D02*
X23083Y23779D01*
X23398D01*
X22250Y22700D02*
Y22945D01*
X17985Y20810D02*
X18800D01*
X4565Y21250D02*
X5000Y20815D01*
Y20500D02*
Y20815D01*
X4300Y19940D02*
X4494Y19746D01*
X5000D01*
Y20500D01*
X15950Y5550D02*
X17250D01*
X15950D02*
Y6750D01*
X14250Y13750D02*
X15050D01*
X14250Y15000D02*
X15050D01*
X13500Y4200D02*
Y5000D01*
Y4200D02*
X14750D01*
X14500Y6700D02*
X14550Y6750D01*
X14500Y5750D02*
Y6700D01*
X16450Y15000D02*
X17250D01*
X16450Y13750D02*
X17250D01*
X10700Y15000D02*
X11500D01*
X8500D02*
X9300D01*
X5250Y17560D02*
Y18500D01*
X5250Y18500D02*
X5250Y18500D01*
X53750Y21750D02*
Y22550D01*
X49725Y23553D02*
X50108Y23169D01*
X50639Y23700D01*
X51000D01*
X49075Y22136D02*
X50108Y23169D01*
X49075Y21440D02*
Y22136D01*
X51000Y24500D02*
X51000Y24500D01*
X51000Y23700D02*
Y24500D01*
Y21500D02*
Y22300D01*
X49725Y23553D02*
Y24060D01*
X48425Y23067D02*
Y24060D01*
X48065Y25750D02*
X48425Y25390D01*
Y24060D02*
Y25390D01*
X47265Y27000D02*
X48065D01*
X46440Y26560D02*
Y27500D01*
Y26560D02*
X47250Y25750D01*
X48065D01*
X43250Y22140D02*
X43750D01*
X46000Y24860D02*
X46500D01*
Y24000D02*
Y24860D01*
X45500Y24000D02*
Y24860D01*
X46000D01*
X43750Y24860D02*
X44250D01*
Y24000D02*
Y24860D01*
X43250Y24000D02*
Y24860D01*
X43750D01*
X44000Y20610D02*
X44500D01*
X44000Y19750D02*
Y20610D01*
X45000Y19750D02*
Y20610D01*
X44500D02*
X45000D01*
X46750Y18000D02*
Y19000D01*
X48425Y20675D02*
Y21440D01*
X46750Y19000D02*
X48425Y20675D01*
X49075Y20425D02*
Y21440D01*
X50750Y18000D02*
Y18750D01*
X49075Y20425D02*
X50750Y18750D01*
X18800Y20810D02*
X19615D01*
X19750Y23190D02*
X20820D01*
X21310Y22700D01*
X22250D01*
X26369Y24250D02*
X27869Y25750D01*
X25500Y24250D02*
X26369D01*
X24935Y23685D02*
X25500Y24250D01*
X24935Y22750D02*
Y23685D01*
X27869Y25750D02*
X28940Y24679D01*
Y22450D02*
Y24679D01*
X32000Y2500D02*
Y3300D01*
X46750Y2500D02*
Y3300D01*
X27860Y10750D02*
Y11250D01*
Y11750D01*
X41750Y10750D02*
X42610D01*
X42610Y10750D02*
Y11250D01*
Y11750D01*
X41750D02*
X42610D01*
X30450Y12500D02*
X31250D01*
X27200Y13000D02*
X28000D01*
X25140Y10750D02*
Y11250D01*
X24250Y11750D02*
X25140D01*
X24250Y10750D02*
X25140D01*
X45200Y12500D02*
X46000D01*
X41950Y13000D02*
X42750D01*
X39890Y10750D02*
Y11250D01*
X39000Y11750D02*
X39890D01*
X39000Y10750D02*
X39890D01*
X61500Y2500D02*
Y3300D01*
X56500Y11750D02*
X57360D01*
X53750Y10750D02*
X54640D01*
X53750Y11750D02*
X54640D01*
Y10750D02*
Y11250D01*
X57360D02*
Y11750D01*
Y10750D02*
Y11250D01*
X57360Y10750D02*
X57360Y10750D01*
X56500Y10750D02*
X57360D01*
X56700Y13000D02*
X57500D01*
X61000Y11250D02*
X61800D01*
X60750Y12500D02*
X60750Y12500D01*
X59950Y12500D02*
X60750D01*
X55000Y27250D02*
Y28110D01*
X54500D02*
X55000D01*
X54000D02*
X54500D01*
X54000Y28110D02*
X54000Y28110D01*
X54000Y27250D02*
Y28110D01*
X57500Y26250D02*
X58690D01*
D81*
X12903Y17000D02*
X12914Y17010D01*
X12250Y17000D02*
X12903D01*
X9250Y16726D02*
Y17000D01*
X9056Y16532D02*
X9250Y16726D01*
X8211Y16532D02*
X9056D01*
X44873Y15000D02*
X45800D01*
X23565Y20185D02*
X24250Y19500D01*
X23565Y20185D02*
Y20250D01*
X9653Y20332D02*
X10150Y19836D01*
Y19500D02*
Y19836D01*
X10950Y19500D02*
X10950Y19500D01*
X10950Y19500D02*
Y20500D01*
X20189Y18291D02*
X22459D01*
X17685Y18000D02*
X19898D01*
X20189Y18291D01*
X22459D02*
X23500Y17250D01*
X17685Y16750D02*
X19614D01*
X20173Y16191D01*
X24941D01*
X26000Y17250D01*
X11350Y19500D02*
Y20060D01*
X11623Y20332D01*
X9300Y15000D02*
X10150Y15850D01*
Y16500D01*
X10700Y15000D02*
X10950Y15250D01*
Y16500D01*
X7750Y18700D02*
Y19500D01*
Y18700D02*
X8050Y19000D01*
X9250D01*
X18235Y28000D02*
X19300D01*
X12315Y27275D02*
X13690Y25900D01*
X12315Y27275D02*
Y28000D01*
X16230Y25900D02*
X17185Y26855D01*
Y28000D01*
X14750D02*
X15815D01*
X13685D02*
X14750D01*
X35500Y23640D02*
Y24500D01*
X62500Y15435D02*
Y16500D01*
X63185Y12500D02*
Y13389D01*
X62500Y14074D02*
X63185Y13389D01*
X45550Y1500D02*
X46500D01*
X45500Y1550D02*
X45550Y1500D01*
X30800D02*
X31750D01*
X30750Y1550D02*
X30800Y1500D01*
X60250Y1550D02*
X60300Y1500D01*
X61250D01*
X45325Y8250D02*
Y8750D01*
X60075Y8250D02*
Y8750D01*
X63185Y12500D02*
X63200Y12485D01*
Y11250D02*
Y12485D01*
X58750Y15100D02*
X60250Y16600D01*
Y25815D01*
D82*
X6990Y13739D02*
Y14540D01*
Y13739D02*
X7500Y13229D01*
X6990Y14540D02*
X7250Y14800D01*
X7500Y12875D02*
Y13229D01*
X45200Y11250D02*
X46250D01*
X46250Y11250D01*
X5935Y21250D02*
X6099Y21086D01*
Y20041D02*
Y21086D01*
Y20041D02*
X6200Y19940D01*
X12250Y1950D02*
Y2750D01*
X35015Y16000D02*
X35815D01*
X35015Y14500D02*
X35815D01*
X42000Y18265D02*
Y19065D01*
X3000Y6950D02*
X3400D01*
X3000D02*
X4250D01*
X3400D02*
X3400Y7800D01*
X7500Y26185D02*
Y27315D01*
X3815Y26250D02*
X3850Y26215D01*
Y24700D02*
Y26215D01*
X2765Y24700D02*
X3850D01*
X2500Y24435D02*
X2765Y24700D01*
X5935Y21250D02*
Y23535D01*
X6150Y23750D01*
X1750Y19330D02*
Y21000D01*
Y7500D02*
Y9170D01*
X4250Y6950D02*
X4950D01*
X5250Y7250D02*
X5875D01*
X4950Y6950D02*
X5250Y7250D01*
X5185Y6250D02*
X5685Y6750D01*
X5875D01*
X3000Y4750D02*
Y5550D01*
X4250Y4750D02*
Y5550D01*
X12000Y5500D02*
Y6125D01*
X12625Y6750D02*
X13250D01*
Y10750D02*
X13250Y10750D01*
X12625Y10750D02*
X13250D01*
X7000Y7250D02*
X7250Y7500D01*
X5875Y7250D02*
X7000D01*
X11250Y7500D02*
X11500Y7250D01*
Y6125D02*
Y7250D01*
X9250Y9500D02*
X10000Y10250D01*
X12625D01*
X7000Y11750D02*
X7250Y11500D01*
X7000Y11750D02*
Y12875D01*
X6500D02*
Y13485D01*
X6000Y13985D02*
X6500Y13485D01*
X4750Y14800D02*
X6000D01*
Y13985D02*
Y14800D01*
X4750Y13985D02*
Y14800D01*
X7235Y21250D02*
X8050D01*
X3850Y22800D02*
Y23615D01*
X2500Y22250D02*
Y23065D01*
X7500Y24000D02*
Y24815D01*
X21310Y25900D02*
Y27390D01*
X20700Y28000D02*
X21310Y27390D01*
X14050Y23150D02*
X14865D01*
X17685Y19500D02*
X18500D01*
X27750Y21500D02*
X28940D01*
X34730Y24519D02*
Y25230D01*
X35000Y23640D02*
Y24249D01*
X34730Y24519D02*
X35000Y24249D01*
X34750Y22290D02*
Y22817D01*
X35000Y23067D02*
Y23640D01*
X34750Y22817D02*
X35000Y23067D01*
X37500Y23640D02*
Y24500D01*
X37750Y22290D02*
Y22817D01*
X37500Y23067D02*
Y23640D01*
Y23067D02*
X37750Y22817D01*
X34750Y25250D02*
X35750D01*
X36750D01*
X37500Y24500D01*
X34730Y25230D02*
X34750Y25250D01*
X39250Y23540D02*
X39350Y23640D01*
X39250Y22290D02*
Y23540D01*
Y20565D02*
Y22290D01*
X39185Y20500D02*
X39250Y20565D01*
X33150Y23640D02*
X33250Y23540D01*
Y22290D02*
Y23540D01*
Y20565D02*
Y22290D01*
Y20565D02*
X33315Y20500D01*
X50185Y14500D02*
X50985D01*
X29750Y9075D02*
Y9300D01*
X30450Y10000D02*
Y11250D01*
X29750Y9300D02*
X30450Y10000D01*
Y11250D02*
X31250D01*
X17250Y2015D02*
Y2815D01*
X16000Y2000D02*
Y2800D01*
X14750Y2000D02*
Y2800D01*
X13500Y2000D02*
Y2800D01*
X9750Y2015D02*
Y2815D01*
X16450Y12250D02*
X17250D01*
X27750Y4425D02*
Y6250D01*
X28250Y6750D01*
X27750Y2610D02*
Y4425D01*
Y2610D02*
X27860Y2500D01*
X42500Y6250D02*
X43000Y6750D01*
X42500Y2610D02*
Y6250D01*
Y2610D02*
X42610Y2500D01*
X57250Y2610D02*
X57360Y2500D01*
X57250Y2610D02*
Y4425D01*
X25925Y5750D02*
X27050D01*
X27150Y5650D01*
X27050Y7750D02*
X27150Y7850D01*
X25925Y7750D02*
X27050D01*
X40675Y5750D02*
X41800D01*
X41900Y5650D01*
X41800Y7750D02*
X41900Y7850D01*
X40675Y7750D02*
X41800D01*
X55425D02*
X56550D01*
X56650Y7850D01*
X45200Y10000D02*
Y11250D01*
X56550Y5750D02*
X56650Y5650D01*
X55425Y5750D02*
X56550D01*
X57250Y6250D02*
X57750Y6750D01*
X57250Y4425D02*
Y6250D01*
X24250D02*
X25925D01*
X23750Y5750D02*
X24250Y6250D01*
X21750Y5750D02*
X23750D01*
X22925Y4425D02*
X26750D01*
X21750Y3250D02*
X22925Y4425D01*
X24250Y7250D02*
X25925D01*
X23250Y8250D02*
X24250Y7250D01*
X21750Y8250D02*
X23250D01*
X23425Y9075D02*
X26750D01*
X21750Y10750D02*
X23425Y9075D01*
X30575Y5250D02*
X31450D01*
X32000Y4700D01*
X29450Y7750D02*
X30575D01*
X29350Y7850D02*
X29450Y7750D01*
X28250Y7850D02*
Y9075D01*
X39000Y6250D02*
X40675D01*
X38500Y5750D02*
X39000Y6250D01*
X36500Y5750D02*
X38500D01*
X37675Y4425D02*
X41500D01*
X36500Y3250D02*
X37675Y4425D01*
X39000Y7250D02*
X40675D01*
X38000Y8250D02*
X39000Y7250D01*
X36500Y8250D02*
X38000D01*
X38175Y9075D02*
X41500D01*
X36500Y10750D02*
X38175Y9075D01*
X45325Y5250D02*
X46200D01*
X46750Y4700D01*
X44200Y7750D02*
X45325D01*
X44100Y7850D02*
X44200Y7750D01*
X43000Y7850D02*
Y9075D01*
X44500D02*
Y9300D01*
X45200Y10000D01*
X59250Y9300D02*
X59950Y10000D01*
X59250Y9075D02*
Y9300D01*
X59950Y10000D02*
Y11250D01*
X57750Y7850D02*
Y9075D01*
X58850Y7850D02*
X58950Y7750D01*
X60075D01*
X60950Y5250D02*
X61500Y4700D01*
X60075Y5250D02*
X60950D01*
X51250Y10750D02*
X52925Y9075D01*
X56250D01*
X51250Y8250D02*
X52750D01*
X53750Y7250D01*
X55425D01*
X51250Y3250D02*
X52425Y4425D01*
X56250D01*
X51250Y5750D02*
X53250D01*
X53750Y6250D01*
X55425D01*
X60185Y28500D02*
X60250Y28435D01*
Y27185D02*
Y28435D01*
X60235Y27200D02*
X60250Y27185D01*
X58690Y27200D02*
X60235D01*
X58815Y28500D02*
X58815Y28500D01*
X57685Y28500D02*
X58815D01*
X57500Y28315D02*
X57685Y28500D01*
X57500Y27250D02*
Y28315D01*
D83*
X32781Y12145D02*
X32906Y12020D01*
X32913Y12640D02*
X34166Y13893D01*
X32913Y12277D02*
Y12640D01*
X32781Y12145D02*
X32781D01*
X32781D02*
X32913Y12277D01*
X32463Y12577D02*
X33893Y14006D01*
X32463Y12463D02*
Y12577D01*
X33893Y14006D02*
Y17357D01*
X36106Y19570D01*
X34166Y17244D02*
X36379Y19457D01*
X34166Y13893D02*
Y17244D01*
X36379Y19457D02*
Y21129D01*
X36106Y19570D02*
Y21144D01*
X4480Y8186D02*
X4657Y8363D01*
X35750Y21500D02*
X36106Y21144D01*
X36379Y21129D02*
X36750Y21500D01*
X4480Y8186D02*
Y8202D01*
Y8814D02*
Y8829D01*
Y8814D02*
X4657Y8637D01*
X5762D01*
X5875Y8750D01*
X4657Y8363D02*
X5762D01*
X5875Y8250D01*
X35750Y22290D02*
Y22581D01*
X36500Y23331D02*
Y23640D01*
X35750Y22581D02*
X36500Y23331D01*
X36000Y23640D02*
Y24250D01*
X36250Y24500D01*
X36750Y21500D02*
Y22290D01*
X35750Y22290D02*
X35750Y22290D01*
X35750Y21500D02*
Y22290D01*
D84*
X31250Y26000D02*
X41250D01*
X42250Y25000D01*
X46000Y22140D02*
X46531D01*
X26619Y27000D02*
X27869Y25750D01*
X24500Y27000D02*
X26619D01*
X22000Y24500D02*
X24500Y27000D01*
X12500Y24500D02*
X22000D01*
X12065Y24935D02*
X12500Y24500D01*
X11000Y24935D02*
X12065D01*
X10950Y24985D02*
X11000Y24935D01*
X10950Y24985D02*
Y26310D01*
X28250Y29000D02*
X31250Y26000D01*
X11500Y29000D02*
X28250D01*
X11190Y28690D02*
X11500Y29000D01*
X10000Y28690D02*
X11190D01*
X9995Y28685D02*
X10000Y28690D01*
X7500Y28685D02*
X9995D01*
D85*
X48175Y22817D02*
X48425Y23067D01*
X47458Y22817D02*
X48175D01*
X46531Y22140D02*
X47208Y22817D01*
X25140Y12340D02*
X25800Y13000D01*
X25140Y11250D02*
Y11750D01*
Y12340D01*
X39890D02*
X40550Y13000D01*
X39890Y11250D02*
Y11750D01*
Y12340D01*
X54640Y11750D02*
Y12340D01*
Y11250D02*
Y11750D01*
Y12340D02*
X55300Y13000D01*
D86*
X44250Y22140D02*
X46000D01*
X43750D02*
X44250D01*
X46000D02*
X46000Y22140D01*
D87*
X24875Y5250D02*
X25925D01*
X24875Y8250D02*
X25925D01*
X39625Y5250D02*
X40675D01*
X39625Y8250D02*
X40675D01*
X54375Y8250D02*
X55425D01*
X54375Y5250D02*
X55425D01*
D88*
X27860Y11250D02*
X29050D01*
X42610D02*
X43800D01*
X57360D02*
X58550D01*
D89*
X58250Y19400D02*
Y22500D01*
Y19400D02*
X58750Y18900D01*
X58250Y23980D02*
X58690Y24420D01*
X58250Y22500D02*
Y23980D01*
X58690Y24420D02*
Y25300D01*
D90*
X21310Y25900D02*
D03*
X18770D02*
D03*
X16230D02*
D03*
X13690D02*
D03*
D91*
X26000Y17250D02*
D03*
X23500D02*
D03*
X28500D02*
D03*
X25369Y25750D02*
D03*
X21750Y3250D02*
D03*
Y8250D02*
D03*
Y5750D02*
D03*
X36500D02*
D03*
Y8250D02*
D03*
Y3250D02*
D03*
X51250Y5750D02*
D03*
Y8250D02*
D03*
Y3250D02*
D03*
D92*
X21000Y17250D02*
D03*
X27869Y25750D02*
D03*
D93*
X21750Y10750D02*
D03*
X36500D02*
D03*
X51250D02*
D03*
D94*
X31930Y22750D02*
D03*
X40570D02*
D03*
D95*
X31930Y28110D02*
D03*
X40570D02*
D03*
D96*
X18661Y14204D02*
D03*
X18595Y14854D02*
D03*
X41000Y19750D02*
D03*
X31805Y14457D02*
D03*
X29750Y13250D02*
D03*
X23500Y11750D02*
D03*
X27000Y10500D02*
D03*
Y12000D02*
D03*
X12914Y17010D02*
D03*
X14250Y20500D02*
D03*
X8211Y16532D02*
D03*
X19750Y12000D02*
D03*
X42750Y14250D02*
D03*
X48065Y15750D02*
D03*
X44873Y15000D02*
D03*
X48065Y14250D02*
D03*
X49067Y13469D02*
D03*
X8500Y13600D02*
D03*
X7520Y13998D02*
D03*
X8925Y14083D02*
D03*
X10193Y14078D02*
D03*
X11071Y13534D02*
D03*
X63750Y10000D02*
D03*
X62750D02*
D03*
X46250Y11250D02*
D03*
X6750Y17560D02*
D03*
X32463Y12463D02*
D03*
X32906Y12020D02*
D03*
X11623Y14250D02*
D03*
X13000Y13250D02*
D03*
X35000Y15250D02*
D03*
X56315Y26500D02*
D03*
X55000Y26250D02*
D03*
X54000D02*
D03*
X45250Y28500D02*
D03*
X45250Y26500D02*
D03*
X44000Y9976D02*
D03*
X40750Y9728D02*
D03*
X14000Y7750D02*
D03*
X13449Y8265D02*
D03*
X6500Y3750D02*
D03*
X14000Y10500D02*
D03*
X18750Y4000D02*
D03*
X19250Y3500D02*
D03*
X11000Y5500D02*
D03*
X10500Y5000D02*
D03*
X13250Y12250D02*
D03*
X7500Y4000D02*
D03*
X8000Y5250D02*
D03*
X8750Y2750D02*
D03*
X30750Y9500D02*
D03*
X13250Y23500D02*
D03*
X12500D02*
D03*
X15250Y22000D02*
D03*
X30315Y21750D02*
D03*
X4457Y11519D02*
D03*
X4462Y10493D02*
D03*
X3953Y9728D02*
D03*
X4657Y9500D02*
D03*
X11000Y22750D02*
D03*
X38000Y25250D02*
D03*
X38773Y12850D02*
D03*
X48250Y7350D02*
D03*
X42750Y17150D02*
D03*
X48250Y18350D02*
D03*
X53075D02*
D03*
X57000Y14500D02*
D03*
X56000D02*
D03*
X55000D02*
D03*
X27250Y19750D02*
D03*
X22750Y20250D02*
D03*
X24250Y19500D02*
D03*
X17985Y20810D02*
D03*
X5000Y19746D02*
D03*
Y20500D02*
D03*
X42250Y25000D02*
D03*
X9000Y3500D02*
D03*
X15950Y5550D02*
D03*
X9500Y5250D02*
D03*
X5180Y9114D02*
D03*
X4480Y8829D02*
D03*
Y8202D02*
D03*
X3850Y13500D02*
D03*
X9653Y20332D02*
D03*
X10950Y20500D02*
D03*
X14250Y13750D02*
D03*
X14250Y15000D02*
D03*
X13500Y5000D02*
D03*
X12250Y1950D02*
D03*
X35015Y16000D02*
D03*
Y14500D02*
D03*
X42000Y18265D02*
D03*
X17250Y15000D02*
D03*
Y13750D02*
D03*
X12914Y15434D02*
D03*
X12500Y15935D02*
D03*
X11623Y20332D02*
D03*
X11500Y15000D02*
D03*
X8500D02*
D03*
X7750Y19500D02*
D03*
X4250Y17250D02*
D03*
X6000D02*
D03*
X5250Y18500D02*
D03*
X3400Y7800D02*
D03*
X53750Y21750D02*
D03*
X51000Y24500D02*
D03*
X51000Y21500D02*
D03*
X47265Y27000D02*
D03*
X44250Y23000D02*
D03*
X43250Y23000D02*
D03*
X45500Y24000D02*
D03*
X46500D02*
D03*
X43250Y24000D02*
D03*
X44250D02*
D03*
X45000Y19750D02*
D03*
X44000D02*
D03*
X47000Y20750D02*
D03*
X1750Y21000D02*
D03*
Y7500D02*
D03*
X5185Y6250D02*
D03*
X3000Y4750D02*
D03*
X4250D02*
D03*
X12000Y5500D02*
D03*
X13250Y6750D02*
D03*
Y10750D02*
D03*
X6000Y13985D02*
D03*
X4750D02*
D03*
X7235Y21250D02*
D03*
X3850Y23615D02*
D03*
X2500Y22250D02*
D03*
X7500Y24000D02*
D03*
X18235Y28000D02*
D03*
X14750D02*
D03*
X14865Y23150D02*
D03*
X19615Y20810D02*
D03*
X18500Y19500D02*
D03*
X27750Y21500D02*
D03*
X35500Y24500D02*
D03*
X36250D02*
D03*
X27000Y23250D02*
D03*
X26000D02*
D03*
X35750Y25250D02*
D03*
X36750D02*
D03*
X34750D02*
D03*
X32500Y20500D02*
D03*
X32750Y24500D02*
D03*
X33750D02*
D03*
X38750D02*
D03*
X39750D02*
D03*
X34750Y21500D02*
D03*
X36750D02*
D03*
X35750D02*
D03*
X14500Y5750D02*
D03*
X62500Y16500D02*
D03*
X50985Y14500D02*
D03*
X59950Y10000D02*
D03*
X31250Y11250D02*
D03*
X17250Y2015D02*
D03*
X16000Y2000D02*
D03*
X14750Y2000D02*
D03*
X13500D02*
D03*
X9750Y2015D02*
D03*
X17250Y12250D02*
D03*
X26250Y10000D02*
D03*
X55750D02*
D03*
X53750Y3000D02*
D03*
Y2000D02*
D03*
X39000D02*
D03*
Y3000D02*
D03*
X24875Y5250D02*
D03*
Y8250D02*
D03*
X39625Y5250D02*
D03*
Y8250D02*
D03*
X32000Y2500D02*
D03*
X46750D02*
D03*
X24250Y2000D02*
D03*
Y3000D02*
D03*
X26500Y3500D02*
D03*
X41250D02*
D03*
X26750Y1500D02*
D03*
X27750Y1000D02*
D03*
X41500Y1500D02*
D03*
X42500Y1000D02*
D03*
X43750Y13500D02*
D03*
X58500D02*
D03*
X41750Y10750D02*
D03*
Y11750D02*
D03*
X57250Y1000D02*
D03*
X56250Y1500D02*
D03*
X56000Y3500D02*
D03*
X46500Y1500D02*
D03*
X31750D02*
D03*
X61250D02*
D03*
X54375Y8250D02*
D03*
X31250Y12500D02*
D03*
X28000Y13000D02*
D03*
X24250Y11750D02*
D03*
Y10750D02*
D03*
X46000Y12500D02*
D03*
X42750Y13000D02*
D03*
X39000Y11750D02*
D03*
Y10750D02*
D03*
X54375Y5250D02*
D03*
X29346Y9863D02*
D03*
X45325Y8750D02*
D03*
X60075D02*
D03*
X58846Y9863D02*
D03*
X61500Y2500D02*
D03*
X53750Y10750D02*
D03*
Y11750D02*
D03*
X57500Y13000D02*
D03*
X56500Y11750D02*
D03*
Y10750D02*
D03*
X60750Y12500D02*
D03*
X61000Y11250D02*
D03*
X55000Y19500D02*
D03*
X56500D02*
D03*
X55000Y27250D02*
D03*
X54000D02*
D03*
X57500Y26250D02*
D03*
Y27250D02*
D03*
X44100Y7850D02*
D03*
X44100Y6750D02*
D03*
X44100Y5650D02*
D03*
X43000Y7850D02*
D03*
Y6750D02*
D03*
Y5650D02*
D03*
X41900Y7850D02*
D03*
X41900Y6750D02*
D03*
X41900Y5650D02*
D03*
X11250Y7500D02*
D03*
X7250D02*
D03*
Y11500D02*
D03*
X11250D02*
D03*
X9250Y9500D02*
D03*
X58850Y7850D02*
D03*
Y6750D02*
D03*
Y5650D02*
D03*
X57750Y7850D02*
D03*
Y6750D02*
D03*
Y5650D02*
D03*
X56650Y7850D02*
D03*
Y6750D02*
D03*
Y5650D02*
D03*
X29350Y7850D02*
D03*
Y6750D02*
D03*
Y5650D02*
D03*
X28250Y7850D02*
D03*
Y6750D02*
D03*
Y5650D02*
D03*
X27150Y7850D02*
D03*
Y6750D02*
D03*
Y5650D02*
D03*
M02*
